<?xml version="1.0" encoding="utf-8"?>
<!-- Generator: Adobe Illustrator 27.3.1, SVG Export Plug-In . SVG Version: 6.00 Build 0)  -->
<svg version="1.1" id="Layer_1" xmlns="http://www.w3.org/2000/svg" xmlns:xlink="http://www.w3.org/1999/xlink" x="0px" y="0px"
	 viewBox="0 0 15 15" style="enable-background:new 0 0 15 15;" xml:space="preserve">
<style type="text/css">
	.st0{fill:#3498DB;}
</style>
<g id="a">
</g>
<g id="b">
	<g id="c">
		<g>
			<path class="st0" d="M6.3,5.6c0.2,0.7,0.4,1.2,0.6,1.7l0.2,0.6H5.5l0.2-0.6C5.9,6.8,6.1,6.2,6.3,5.6L6.3,5.6z"/>
			<path class="st0" d="M10.7,0H4.3C1.9,0,0,1.9,0,4.3v6.4C0,13.1,1.9,15,4.3,15h6.4c2.4,0,4.3-1.9,4.3-4.3V4.3
				C15,1.9,13.1,0,10.7,0z M8.1,10.4L7.5,8.7H5.1l-0.6,1.6H3.3L5.8,4h1.1l2.5,6.3H8.1L8.1,10.4z M11.2,10.4h-1.1V5.8h1.1V10.4z
				 M11.3,4.7h-1.2V3.5h1.2V4.7z"/>
		</g>
	</g>
</g>
</svg>
