<?xml version="1.0" encoding="utf-8"?>
<!-- Generator: Adobe Illustrator 27.3.1, SVG Export Plug-In . SVG Version: 6.00 Build 0)  -->
<svg version="1.1" id="Layer_1" xmlns="http://www.w3.org/2000/svg" xmlns:xlink="http://www.w3.org/1999/xlink" x="0px" y="0px"
	 viewBox="0 0 15 15" style="enable-background:new 0 0 15 15;" xml:space="preserve">
<style type="text/css">
	.st0{fill:#3498DB;}
</style>
<g id="a">
</g>
<g id="b">
	<g id="c">
		<path class="st0" d="M10.7,0H4.3C1.9,0,0,1.9,0,4.3v6.4C0,13.1,1.9,15,4.3,15h6.4c2.4,0,4.3-1.9,4.3-4.3V4.3C15,1.9,13.1,0,10.7,0
			z M8.1,6.8C7.9,7,7.8,7.2,7.5,7.4C7.3,7.6,7,7.7,6.6,7.8C6.3,7.9,5.9,7.9,5.4,7.9c-0.1,0-0.2,0-0.3,0c-0.1,0-0.2,0-0.3,0v2.5H3.7
			V4h1.8c0.3,0,0.6,0,0.8,0c0.2,0,0.4,0.1,0.6,0.1c0.4,0.1,0.8,0.3,1,0.6c0.2,0.3,0.3,0.7,0.3,1.1C8.3,6.2,8.2,6.5,8.1,6.8L8.1,6.8z
			 M12.1,6.7H12c-0.3,0-0.6,0.1-0.9,0.2c-0.3,0.1-0.5,0.3-0.6,0.5v3.1H9.3V5.8h0.9l0.1,0.6h0c0.1-0.2,0.3-0.4,0.5-0.6
			s0.5-0.2,0.8-0.2c0.1,0,0.2,0,0.3,0L12.1,6.7L12.1,6.7z M6.5,5.1C6.4,5.1,6.2,5.1,6.1,5S5.7,5,5.5,5H4.8v1.9c0.1,0,0.2,0,0.2,0
			s0.2,0,0.3,0c0.3,0,0.6,0,0.8-0.1c0.2-0.1,0.4-0.1,0.5-0.2S6.9,6.5,7,6.3C7,6.2,7,6.1,7,5.9c0-0.2,0-0.3-0.1-0.5
			C6.8,5.3,6.7,5.2,6.5,5.1L6.5,5.1z"/>
	</g>
</g>
</svg>
