<?xml version="1.0" encoding="UTF-8"?><svg xmlns="http://www.w3.org/2000/svg" xmlns:xlink="http://www.w3.org/1999/xlink" viewBox="0 0 15.03 15.03"><defs><style>.e{fill:url(#d);}</style><linearGradient id="d" x1="0" y1="7.52" x2="15.03" y2="7.52" gradientTransform="matrix(1, 0, 0, 1, 0, 0)" gradientUnits="userSpaceOnUse"><stop offset="0" stop-color="#2f1cef"/><stop offset="1" stop-color="#4933fd"/></linearGradient></defs><g id="a"/><g id="b"><g id="c"><path class="e" d="M10.74,0H4.3C1.92,0,0,1.92,0,4.3v6.44c0,2.37,1.92,4.3,4.3,4.3h6.44c2.37,0,4.3-1.92,4.3-4.3V4.3c0-2.37-1.93-4.3-4.3-4.3Zm-2.67,6.76c-.12,.24-.31,.45-.55,.62-.25,.17-.54,.3-.89,.39-.35,.09-.75,.14-1.2,.14-.1,0-.2,0-.31,0-.1,0-.19-.01-.28-.02v2.47h-1.15V4.04h1.82c.31,0,.57,.02,.8,.04,.23,.03,.43,.07,.61,.12,.43,.13,.76,.34,1,.63,.23,.29,.35,.66,.35,1.1,0,.31-.06,.58-.19,.83Zm3.99-.09h-.1c-.34,0-.64,.05-.9,.15-.26,.1-.46,.26-.6,.47v3.06h-1.12V5.78h.92l.1,.64h.02c.13-.23,.31-.41,.54-.55s.51-.2,.83-.2c.12,0,.21,0,.3,.02v.98Zm-5.57-1.56c-.11-.04-.25-.06-.41-.08-.16-.02-.36-.03-.6-.03h-.66v1.91c.07,.01,.15,.02,.25,.02s.21,.01,.32,.01c.31,0,.57-.03,.78-.08,.21-.05,.38-.12,.51-.21,.13-.09,.22-.2,.27-.32,.06-.13,.09-.27,.09-.42,0-.19-.04-.35-.13-.48-.08-.13-.23-.24-.44-.32Z"/></g></g></svg>