<?xml version="1.0" encoding="utf-8"?>
<!-- Generator: Adobe Illustrator 27.3.1, SVG Export Plug-In . SVG Version: 6.00 Build 0)  -->
<svg version="1.1" id="Layer_1" xmlns="http://www.w3.org/2000/svg" xmlns:xlink="http://www.w3.org/1999/xlink" x="0px" y="0px"
	 viewBox="0 0 15 15" style="enable-background:new 0 0 15 15;" xml:space="preserve">
<style type="text/css">
	.st0{fill:#3498DB;}
</style>
<g id="a">
</g>
<g id="b">
	<g id="c">
		<g>
			<path class="st0" d="M4.9,5.6c0.2,0.7,0.4,1.2,0.6,1.7l0.2,0.6H4.1l0.2-0.6C4.5,6.8,4.7,6.2,4.9,5.6L4.9,5.6L4.9,5.6z"/>
			<path class="st0" d="M10.7,0H4.3C1.9,0,0,1.9,0,4.3v6.4C0,13.1,1.9,15,4.3,15h6.4c2.4,0,4.3-1.9,4.3-4.3V4.3
				C15,1.9,13.1,0,10.7,0z M6.7,10.4L6.1,8.7H3.7l-0.6,1.6H1.9L4.4,4h1.1l2.5,6.3H6.7z M12.8,8.6c0,0.4-0.1,0.7-0.2,0.9
				c-0.1,0.1-0.2,0.3-0.3,0.4c-0.1,0.1-0.2,0.2-0.4,0.3c-0.2,0.1-0.3,0.1-0.5,0.2c-0.2,0.1-0.4,0.1-0.7,0.1c-0.5,0-0.8-0.1-1.1-0.2
				C9.3,10.1,9,9.9,8.9,9.6C8.8,9.5,8.7,9.3,8.7,9.1S8.6,8.8,8.6,8.6V5.8h1.1v2.7c0,0.1,0,0.3,0,0.4c0,0.1,0.1,0.2,0.1,0.3
				c0.1,0.1,0.2,0.2,0.3,0.3c0.1,0.1,0.3,0.1,0.5,0.1c0.2,0,0.4,0,0.5-0.1c0.1-0.1,0.2-0.2,0.3-0.3c0.1-0.1,0.1-0.4,0.1-0.6V5.8h1.1
				L12.8,8.6L12.8,8.6z"/>
		</g>
	</g>
</g>
</svg>
