<?xml version="1.0" encoding="UTF-8"?><svg xmlns="http://www.w3.org/2000/svg" xmlns:xlink="http://www.w3.org/1999/xlink" viewBox="0 0 15.03 15.03"><defs><style>.e{fill:url(#d);}</style><linearGradient id="d" x1="0" y1="7.52" x2="15.03" y2="7.52" gradientTransform="matrix(1, 0, 0, 1, 0, 0)" gradientUnits="userSpaceOnUse"><stop offset="0" stop-color="#2f1cef"/><stop offset="1" stop-color="#4933fd"/></linearGradient></defs><g id="a"/><g id="b"><g id="c"><path class="e" d="M9.29,6.66c-.16-.07-.33-.11-.52-.11-.12,0-.24,.03-.37,.08-.13,.04-.25,.12-.35,.24-.11,.12-.19,.27-.27,.47-.07,.2-.1,.46-.1,.77,0,.46,.09,.82,.26,1.07s.44,.39,.78,.39c.11,0,.21-.02,.31-.04,.1-.03,.19-.06,.28-.11,.09-.05,.17-.1,.24-.16s.12-.11,.17-.17v-2.17c-.13-.11-.28-.19-.45-.27Zm0,0c-.16-.07-.33-.11-.52-.11-.12,0-.24,.03-.37,.08-.13,.04-.25,.12-.35,.24-.11,.12-.19,.27-.27,.47-.07,.2-.1,.46-.1,.77,0,.46,.09,.82,.26,1.07s.44,.39,.78,.39c.11,0,.21-.02,.31-.04,.1-.03,.19-.06,.28-.11,.09-.05,.17-.1,.24-.16s.12-.11,.17-.17v-2.17c-.13-.11-.28-.19-.45-.27Zm0,0c-.16-.07-.33-.11-.52-.11-.12,0-.24,.03-.37,.08-.13,.04-.25,.12-.35,.24-.11,.12-.19,.27-.27,.47-.07,.2-.1,.46-.1,.77,0,.46,.09,.82,.26,1.07s.44,.39,.78,.39c.11,0,.21-.02,.31-.04,.1-.03,.19-.06,.28-.11,.09-.05,.17-.1,.24-.16s.12-.11,.17-.17v-2.17c-.13-.11-.28-.19-.45-.27Zm0,0c-.16-.07-.33-.11-.52-.11-.12,0-.24,.03-.37,.08-.13,.04-.25,.12-.35,.24-.11,.12-.19,.27-.27,.47-.07,.2-.1,.46-.1,.77,0,.46,.09,.82,.26,1.07s.44,.39,.78,.39c.11,0,.21-.02,.31-.04,.1-.03,.19-.06,.28-.11,.09-.05,.17-.1,.24-.16s.12-.11,.17-.17v-2.17c-.13-.11-.28-.19-.45-.27Zm0,0c-.16-.07-.33-.11-.52-.11-.12,0-.24,.03-.37,.08-.13,.04-.25,.12-.35,.24-.11,.12-.19,.27-.27,.47-.07,.2-.1,.46-.1,.77,0,.46,.09,.82,.26,1.07s.44,.39,.78,.39c.11,0,.21-.02,.31-.04,.1-.03,.19-.06,.28-.11,.09-.05,.17-.1,.24-.16s.12-.11,.17-.17v-2.17c-.13-.11-.28-.19-.45-.27Zm0,0c-.16-.07-.33-.11-.52-.11-.12,0-.24,.03-.37,.08-.13,.04-.25,.12-.35,.24-.11,.12-.19,.27-.27,.47-.07,.2-.1,.46-.1,.77,0,.46,.09,.82,.26,1.07s.44,.39,.78,.39c.11,0,.21-.02,.31-.04,.1-.03,.19-.06,.28-.11,.09-.05,.17-.1,.24-.16s.12-.11,.17-.17v-2.17c-.13-.11-.28-.19-.45-.27Zm0,0c-.16-.07-.33-.11-.52-.11-.12,0-.24,.03-.37,.08-.13,.04-.25,.12-.35,.24-.11,.12-.19,.27-.27,.47-.07,.2-.1,.46-.1,.77,0,.46,.09,.82,.26,1.07s.44,.39,.78,.39c.11,0,.21-.02,.31-.04,.1-.03,.19-.06,.28-.11,.09-.05,.17-.1,.24-.16s.12-.11,.17-.17v-2.17c-.13-.11-.28-.19-.45-.27Zm0,0c-.16-.07-.33-.11-.52-.11-.12,0-.24,.03-.37,.08-.13,.04-.25,.12-.35,.24-.11,.12-.19,.27-.27,.47-.07,.2-.1,.46-.1,.77,0,.46,.09,.82,.26,1.07s.44,.39,.78,.39c.11,0,.21-.02,.31-.04,.1-.03,.19-.06,.28-.11,.09-.05,.17-.1,.24-.16s.12-.11,.17-.17v-2.17c-.13-.11-.28-.19-.45-.27Zm0,0c-.16-.07-.33-.11-.52-.11-.12,0-.24,.03-.37,.08-.13,.04-.25,.12-.35,.24-.11,.12-.19,.27-.27,.47-.07,.2-.1,.46-.1,.77,0,.46,.09,.82,.26,1.07s.44,.39,.78,.39c.11,0,.21-.02,.31-.04,.1-.03,.19-.06,.28-.11,.09-.05,.17-.1,.24-.16s.12-.11,.17-.17v-2.17c-.13-.11-.28-.19-.45-.27Zm0,0c-.16-.07-.33-.11-.52-.11-.12,0-.24,.03-.37,.08-.13,.04-.25,.12-.35,.24-.11,.12-.19,.27-.27,.47-.07,.2-.1,.46-.1,.77,0,.46,.09,.82,.26,1.07s.44,.39,.78,.39c.11,0,.21-.02,.31-.04,.1-.03,.19-.06,.28-.11,.09-.05,.17-.1,.24-.16s.12-.11,.17-.17v-2.17c-.13-.11-.28-.19-.45-.27Zm0,0c-.16-.07-.33-.11-.52-.11-.12,0-.24,.03-.37,.08-.13,.04-.25,.12-.35,.24-.11,.12-.19,.27-.27,.47-.07,.2-.1,.46-.1,.77,0,.46,.09,.82,.26,1.07s.44,.39,.78,.39c.11,0,.21-.02,.31-.04,.1-.03,.19-.06,.28-.11,.09-.05,.17-.1,.24-.16s.12-.11,.17-.17v-2.17c-.13-.11-.28-.19-.45-.27Zm0,0c-.16-.07-.33-.11-.52-.11-.12,0-.24,.03-.37,.08-.13,.04-.25,.12-.35,.24-.11,.12-.19,.27-.27,.47-.07,.2-.1,.46-.1,.77,0,.46,.09,.82,.26,1.07s.44,.39,.78,.39c.11,0,.21-.02,.31-.04,.1-.03,.19-.06,.28-.11,.09-.05,.17-.1,.24-.16s.12-.11,.17-.17v-2.17c-.13-.11-.28-.19-.45-.27Zm0,0c-.16-.07-.33-.11-.52-.11-.12,0-.24,.03-.37,.08-.13,.04-.25,.12-.35,.24-.11,.12-.19,.27-.27,.47-.07,.2-.1,.46-.1,.77,0,.46,.09,.82,.26,1.07s.44,.39,.78,.39c.11,0,.21-.02,.31-.04,.1-.03,.19-.06,.28-.11,.09-.05,.17-.1,.24-.16s.12-.11,.17-.17v-2.17c-.13-.11-.28-.19-.45-.27Zm0,0c-.16-.07-.33-.11-.52-.11-.12,0-.24,.03-.37,.08-.13,.04-.25,.12-.35,.24-.11,.12-.19,.27-.27,.47-.07,.2-.1,.46-.1,.77,0,.46,.09,.82,.26,1.07s.44,.39,.78,.39c.11,0,.21-.02,.31-.04,.1-.03,.19-.06,.28-.11,.09-.05,.17-.1,.24-.16s.12-.11,.17-.17v-2.17c-.13-.11-.28-.19-.45-.27Zm0,0c-.16-.07-.33-.11-.52-.11-.12,0-.24,.03-.37,.08-.13,.04-.25,.12-.35,.24-.11,.12-.19,.27-.27,.47-.07,.2-.1,.46-.1,.77,0,.46,.09,.82,.26,1.07s.44,.39,.78,.39c.11,0,.21-.02,.31-.04,.1-.03,.19-.06,.28-.11,.09-.05,.17-.1,.24-.16s.12-.11,.17-.17v-2.17c-.13-.11-.28-.19-.45-.27Zm0,0c-.16-.07-.33-.11-.52-.11-.12,0-.24,.03-.37,.08-.13,.04-.25,.12-.35,.24-.11,.12-.19,.27-.27,.47-.07,.2-.1,.46-.1,.77,0,.46,.09,.82,.26,1.07s.44,.39,.78,.39c.11,0,.21-.02,.31-.04,.1-.03,.19-.06,.28-.11,.09-.05,.17-.1,.24-.16s.12-.11,.17-.17v-2.17c-.13-.11-.28-.19-.45-.27Zm0,0c-.16-.07-.33-.11-.52-.11-.12,0-.24,.03-.37,.08-.13,.04-.25,.12-.35,.24-.11,.12-.19,.27-.27,.47-.07,.2-.1,.46-.1,.77,0,.46,.09,.82,.26,1.07s.44,.39,.78,.39c.11,0,.21-.02,.31-.04,.1-.03,.19-.06,.28-.11,.09-.05,.17-.1,.24-.16s.12-.11,.17-.17v-2.17c-.13-.11-.28-.19-.45-.27Zm0,0c-.16-.07-.33-.11-.52-.11-.12,0-.24,.03-.37,.08-.13,.04-.25,.12-.35,.24-.11,.12-.19,.27-.27,.47-.07,.2-.1,.46-.1,.77,0,.46,.09,.82,.26,1.07s.44,.39,.78,.39c.11,0,.21-.02,.31-.04,.1-.03,.19-.06,.28-.11,.09-.05,.17-.1,.24-.16s.12-.11,.17-.17v-2.17c-.13-.11-.28-.19-.45-.27Zm0,0c-.16-.07-.33-.11-.52-.11-.12,0-.24,.03-.37,.08-.13,.04-.25,.12-.35,.24-.11,.12-.19,.27-.27,.47-.07,.2-.1,.46-.1,.77,0,.46,.09,.82,.26,1.07s.44,.39,.78,.39c.11,0,.21-.02,.31-.04,.1-.03,.19-.06,.28-.11,.09-.05,.17-.1,.24-.16s.12-.11,.17-.17v-2.17c-.13-.11-.28-.19-.45-.27Zm0,0c-.16-.07-.33-.11-.52-.11-.12,0-.24,.03-.37,.08-.13,.04-.25,.12-.35,.24-.11,.12-.19,.27-.27,.47-.07,.2-.1,.46-.1,.77,0,.46,.09,.82,.26,1.07s.44,.39,.78,.39c.11,0,.21-.02,.31-.04,.1-.03,.19-.06,.28-.11,.09-.05,.17-.1,.24-.16s.12-.11,.17-.17v-2.17c-.13-.11-.28-.19-.45-.27Zm0,0c-.16-.07-.33-.11-.52-.11-.12,0-.24,.03-.37,.08-.13,.04-.25,.12-.35,.24-.11,.12-.19,.27-.27,.47-.07,.2-.1,.46-.1,.77,0,.46,.09,.82,.26,1.07s.44,.39,.78,.39c.11,0,.21-.02,.31-.04,.1-.03,.19-.06,.28-.11,.09-.05,.17-.1,.24-.16s.12-.11,.17-.17v-2.17c-.13-.11-.28-.19-.45-.27Zm0,0c-.16-.07-.33-.11-.52-.11-.12,0-.24,.03-.37,.08-.13,.04-.25,.12-.35,.24-.11,.12-.19,.27-.27,.47-.07,.2-.1,.46-.1,.77,0,.46,.09,.82,.26,1.07s.44,.39,.78,.39c.11,0,.21-.02,.31-.04,.1-.03,.19-.06,.28-.11,.09-.05,.17-.1,.24-.16s.12-.11,.17-.17v-2.17c-.13-.11-.28-.19-.45-.27Zm0,0c-.16-.07-.33-.11-.52-.11-.12,0-.24,.03-.37,.08-.13,.04-.25,.12-.35,.24-.11,.12-.19,.27-.27,.47-.07,.2-.1,.46-.1,.77,0,.46,.09,.82,.26,1.07s.44,.39,.78,.39c.11,0,.21-.02,.31-.04,.1-.03,.19-.06,.28-.11,.09-.05,.17-.1,.24-.16s.12-.11,.17-.17v-2.17c-.13-.11-.28-.19-.45-.27Zm0,0c-.16-.07-.33-.11-.52-.11-.12,0-.24,.03-.37,.08-.13,.04-.25,.12-.35,.24-.11,.12-.19,.27-.27,.47-.07,.2-.1,.46-.1,.77,0,.46,.09,.82,.26,1.07s.44,.39,.78,.39c.11,0,.21-.02,.31-.04,.1-.03,.19-.06,.28-.11,.09-.05,.17-.1,.24-.16s.12-.11,.17-.17v-2.17c-.13-.11-.28-.19-.45-.27ZM10.74,0H4.3C1.92,0,0,1.93,0,4.3v6.44c0,2.37,1.92,4.3,4.3,4.3h6.44c2.37,0,4.3-1.92,4.3-4.3V4.3c0-2.37-1.93-4.3-4.3-4.3ZM5.4,10.35h-1.15V4.04h1.15v6.31Zm4.48,0l-.05-.48h-.02c-.06,.08-.14,.16-.24,.23-.09,.08-.19,.14-.31,.19-.11,.05-.24,.1-.37,.13s-.28,.05-.43,.05c-.25,0-.49-.04-.71-.13-.23-.09-.43-.22-.62-.41-.18-.18-.32-.42-.43-.72-.11-.3-.17-.65-.17-1.05s.06-.75,.17-1.07c.11-.31,.26-.57,.45-.78,.19-.21,.41-.37,.66-.48,.24-.11,.5-.16,.76-.16,.12,0,.24,.01,.35,.04,.11,.02,.21,.05,.31,.09s.19,.08,.27,.13c.09,.05,.17,.1,.24,.14h.01c0-.06,0-.15,0-.27,0-.11,0-.24,0-.37v-1.91h1.12v5.48c0,.3,0,.56,.01,.78,0,.21,.01,.41,.02,.58h-1.01Zm-1.1-3.8c-.12,0-.24,.03-.37,.08-.13,.04-.25,.12-.35,.24-.11,.12-.19,.27-.27,.47-.07,.2-.1,.46-.1,.77,0,.46,.09,.82,.26,1.07s.44,.39,.78,.39c.11,0,.21-.02,.31-.04,.1-.03,.19-.06,.28-.11,.09-.05,.17-.1,.24-.16s.12-.11,.17-.17v-2.17c-.13-.11-.28-.19-.45-.27-.16-.07-.33-.11-.52-.11Zm.52,.11c-.16-.07-.33-.11-.52-.11-.12,0-.24,.03-.37,.08-.13,.04-.25,.12-.35,.24-.11,.12-.19,.27-.27,.47-.07,.2-.1,.46-.1,.77,0,.46,.09,.82,.26,1.07s.44,.39,.78,.39c.11,0,.21-.02,.31-.04,.1-.03,.19-.06,.28-.11,.09-.05,.17-.1,.24-.16s.12-.11,.17-.17v-2.17c-.13-.11-.28-.19-.45-.27Zm0,0c-.16-.07-.33-.11-.52-.11-.12,0-.24,.03-.37,.08-.13,.04-.25,.12-.35,.24-.11,.12-.19,.27-.27,.47-.07,.2-.1,.46-.1,.77,0,.46,.09,.82,.26,1.07s.44,.39,.78,.39c.11,0,.21-.02,.31-.04,.1-.03,.19-.06,.28-.11,.09-.05,.17-.1,.24-.16s.12-.11,.17-.17v-2.17c-.13-.11-.28-.19-.45-.27Zm0,0c-.16-.07-.33-.11-.52-.11-.12,0-.24,.03-.37,.08-.13,.04-.25,.12-.35,.24-.11,.12-.19,.27-.27,.47-.07,.2-.1,.46-.1,.77,0,.46,.09,.82,.26,1.07s.44,.39,.78,.39c.11,0,.21-.02,.31-.04,.1-.03,.19-.06,.28-.11,.09-.05,.17-.1,.24-.16s.12-.11,.17-.17v-2.17c-.13-.11-.28-.19-.45-.27Zm0,0c-.16-.07-.33-.11-.52-.11-.12,0-.24,.03-.37,.08-.13,.04-.25,.12-.35,.24-.11,.12-.19,.27-.27,.47-.07,.2-.1,.46-.1,.77,0,.46,.09,.82,.26,1.07s.44,.39,.78,.39c.11,0,.21-.02,.31-.04,.1-.03,.19-.06,.28-.11,.09-.05,.17-.1,.24-.16s.12-.11,.17-.17v-2.17c-.13-.11-.28-.19-.45-.27Zm0,0c-.16-.07-.33-.11-.52-.11-.12,0-.24,.03-.37,.08-.13,.04-.25,.12-.35,.24-.11,.12-.19,.27-.27,.47-.07,.2-.1,.46-.1,.77,0,.46,.09,.82,.26,1.07s.44,.39,.78,.39c.11,0,.21-.02,.31-.04,.1-.03,.19-.06,.28-.11,.09-.05,.17-.1,.24-.16s.12-.11,.17-.17v-2.17c-.13-.11-.28-.19-.45-.27Zm0,0c-.16-.07-.33-.11-.52-.11-.12,0-.24,.03-.37,.08-.13,.04-.25,.12-.35,.24-.11,.12-.19,.27-.27,.47-.07,.2-.1,.46-.1,.77,0,.46,.09,.82,.26,1.07s.44,.39,.78,.39c.11,0,.21-.02,.31-.04,.1-.03,.19-.06,.28-.11,.09-.05,.17-.1,.24-.16s.12-.11,.17-.17v-2.17c-.13-.11-.28-.19-.45-.27Zm0,0c-.16-.07-.33-.11-.52-.11-.12,0-.24,.03-.37,.08-.13,.04-.25,.12-.35,.24-.11,.12-.19,.27-.27,.47-.07,.2-.1,.46-.1,.77,0,.46,.09,.82,.26,1.07s.44,.39,.78,.39c.11,0,.21-.02,.31-.04,.1-.03,.19-.06,.28-.11,.09-.05,.17-.1,.24-.16s.12-.11,.17-.17v-2.17c-.13-.11-.28-.19-.45-.27Zm0,0c-.16-.07-.33-.11-.52-.11-.12,0-.24,.03-.37,.08-.13,.04-.25,.12-.35,.24-.11,.12-.19,.27-.27,.47-.07,.2-.1,.46-.1,.77,0,.46,.09,.82,.26,1.07s.44,.39,.78,.39c.11,0,.21-.02,.31-.04,.1-.03,.19-.06,.28-.11,.09-.05,.17-.1,.24-.16s.12-.11,.17-.17v-2.17c-.13-.11-.28-.19-.45-.27Zm0,0c-.16-.07-.33-.11-.52-.11-.12,0-.24,.03-.37,.08-.13,.04-.25,.12-.35,.24-.11,.12-.19,.27-.27,.47-.07,.2-.1,.46-.1,.77,0,.46,.09,.82,.26,1.07s.44,.39,.78,.39c.11,0,.21-.02,.31-.04,.1-.03,.19-.06,.28-.11,.09-.05,.17-.1,.24-.16s.12-.11,.17-.17v-2.17c-.13-.11-.28-.19-.45-.27Zm0,0c-.16-.07-.33-.11-.52-.11-.12,0-.24,.03-.37,.08-.13,.04-.25,.12-.35,.24-.11,.12-.19,.27-.27,.47-.07,.2-.1,.46-.1,.77,0,.46,.09,.82,.26,1.07s.44,.39,.78,.39c.11,0,.21-.02,.31-.04,.1-.03,.19-.06,.28-.11,.09-.05,.17-.1,.24-.16s.12-.11,.17-.17v-2.17c-.13-.11-.28-.19-.45-.27Zm0,0c-.16-.07-.33-.11-.52-.11-.12,0-.24,.03-.37,.08-.13,.04-.25,.12-.35,.24-.11,.12-.19,.27-.27,.47-.07,.2-.1,.46-.1,.77,0,.46,.09,.82,.26,1.07s.44,.39,.78,.39c.11,0,.21-.02,.31-.04,.1-.03,.19-.06,.28-.11,.09-.05,.17-.1,.24-.16s.12-.11,.17-.17v-2.17c-.13-.11-.28-.19-.45-.27Zm0,0c-.16-.07-.33-.11-.52-.11-.12,0-.24,.03-.37,.08-.13,.04-.25,.12-.35,.24-.11,.12-.19,.27-.27,.47-.07,.2-.1,.46-.1,.77,0,.46,.09,.82,.26,1.07s.44,.39,.78,.39c.11,0,.21-.02,.31-.04,.1-.03,.19-.06,.28-.11,.09-.05,.17-.1,.24-.16s.12-.11,.17-.17v-2.17c-.13-.11-.28-.19-.45-.27Zm0,0c-.16-.07-.33-.11-.52-.11-.12,0-.24,.03-.37,.08-.13,.04-.25,.12-.35,.24-.11,.12-.19,.27-.27,.47-.07,.2-.1,.46-.1,.77,0,.46,.09,.82,.26,1.07s.44,.39,.78,.39c.11,0,.21-.02,.31-.04,.1-.03,.19-.06,.28-.11,.09-.05,.17-.1,.24-.16s.12-.11,.17-.17v-2.17c-.13-.11-.28-.19-.45-.27Zm0,0c-.16-.07-.33-.11-.52-.11-.12,0-.24,.03-.37,.08-.13,.04-.25,.12-.35,.24-.11,.12-.19,.27-.27,.47-.07,.2-.1,.46-.1,.77,0,.46,.09,.82,.26,1.07s.44,.39,.78,.39c.11,0,.21-.02,.31-.04,.1-.03,.19-.06,.28-.11,.09-.05,.17-.1,.24-.16s.12-.11,.17-.17v-2.17c-.13-.11-.28-.19-.45-.27Zm0,0c-.16-.07-.33-.11-.52-.11-.12,0-.24,.03-.37,.08-.13,.04-.25,.12-.35,.24-.11,.12-.19,.27-.27,.47-.07,.2-.1,.46-.1,.77,0,.46,.09,.82,.26,1.07s.44,.39,.78,.39c.11,0,.21-.02,.31-.04,.1-.03,.19-.06,.28-.11,.09-.05,.17-.1,.24-.16s.12-.11,.17-.17v-2.17c-.13-.11-.28-.19-.45-.27Zm0,0c-.16-.07-.33-.11-.52-.11-.12,0-.24,.03-.37,.08-.13,.04-.25,.12-.35,.24-.11,.12-.19,.27-.27,.47-.07,.2-.1,.46-.1,.77,0,.46,.09,.82,.26,1.07s.44,.39,.78,.39c.11,0,.21-.02,.31-.04,.1-.03,.19-.06,.28-.11,.09-.05,.17-.1,.24-.16s.12-.11,.17-.17v-2.17c-.13-.11-.28-.19-.45-.27Zm0,0c-.16-.07-.33-.11-.52-.11-.12,0-.24,.03-.37,.08-.13,.04-.25,.12-.35,.24-.11,.12-.19,.27-.27,.47-.07,.2-.1,.46-.1,.77,0,.46,.09,.82,.26,1.07s.44,.39,.78,.39c.11,0,.21-.02,.31-.04,.1-.03,.19-.06,.28-.11,.09-.05,.17-.1,.24-.16s.12-.11,.17-.17v-2.17c-.13-.11-.28-.19-.45-.27Zm0,0c-.16-.07-.33-.11-.52-.11-.12,0-.24,.03-.37,.08-.13,.04-.25,.12-.35,.24-.11,.12-.19,.27-.27,.47-.07,.2-.1,.46-.1,.77,0,.46,.09,.82,.26,1.07s.44,.39,.78,.39c.11,0,.21-.02,.31-.04,.1-.03,.19-.06,.28-.11,.09-.05,.17-.1,.24-.16s.12-.11,.17-.17v-2.17c-.13-.11-.28-.19-.45-.27Zm0,0c-.16-.07-.33-.11-.52-.11-.12,0-.24,.03-.37,.08-.13,.04-.25,.12-.35,.24-.11,.12-.19,.27-.27,.47-.07,.2-.1,.46-.1,.77,0,.46,.09,.82,.26,1.07s.44,.39,.78,.39c.11,0,.21-.02,.31-.04,.1-.03,.19-.06,.28-.11,.09-.05,.17-.1,.24-.16s.12-.11,.17-.17v-2.17c-.13-.11-.28-.19-.45-.27Zm0,0c-.16-.07-.33-.11-.52-.11-.12,0-.24,.03-.37,.08-.13,.04-.25,.12-.35,.24-.11,.12-.19,.27-.27,.47-.07,.2-.1,.46-.1,.77,0,.46,.09,.82,.26,1.07s.44,.39,.78,.39c.11,0,.21-.02,.31-.04,.1-.03,.19-.06,.28-.11,.09-.05,.17-.1,.24-.16s.12-.11,.17-.17v-2.17c-.13-.11-.28-.19-.45-.27Zm0,0c-.16-.07-.33-.11-.52-.11-.12,0-.24,.03-.37,.08-.13,.04-.25,.12-.35,.24-.11,.12-.19,.27-.27,.47-.07,.2-.1,.46-.1,.77,0,.46,.09,.82,.26,1.07s.44,.39,.78,.39c.11,0,.21-.02,.31-.04,.1-.03,.19-.06,.28-.11,.09-.05,.17-.1,.24-.16s.12-.11,.17-.17v-2.17c-.13-.11-.28-.19-.45-.27Zm0,0c-.16-.07-.33-.11-.52-.11-.12,0-.24,.03-.37,.08-.13,.04-.25,.12-.35,.24-.11,.12-.19,.27-.27,.47-.07,.2-.1,.46-.1,.77,0,.46,.09,.82,.26,1.07s.44,.39,.78,.39c.11,0,.21-.02,.31-.04,.1-.03,.19-.06,.28-.11,.09-.05,.17-.1,.24-.16s.12-.11,.17-.17v-2.17c-.13-.11-.28-.19-.45-.27Z"/></g></g></svg>