<?xml version="1.0" encoding="utf-8"?>
<!-- Generator: Adobe Illustrator 27.3.1, SVG Export Plug-In . SVG Version: 6.00 Build 0)  -->
<svg version="1.1" id="Layer_1" xmlns="http://www.w3.org/2000/svg" xmlns:xlink="http://www.w3.org/1999/xlink" x="0px" y="0px"
	 viewBox="0 0 15 15" style="enable-background:new 0 0 15 15;" xml:space="preserve">
<style type="text/css">
	.st0{fill:#3498DB;}
</style>
<g id="a">
</g>
<g id="b">
	<g id="c">
		<g>
			<path class="st0" d="M5.1,5.6c0.2,0.7,0.4,1.2,0.6,1.7l0.2,0.6H4.2l0.2-0.6C4.6,6.8,4.8,6.2,5.1,5.6L5.1,5.6z"/>
			<path class="st0" d="M11.5,7.1c0-0.1-0.1-0.2-0.2-0.3c-0.1-0.1-0.2-0.2-0.3-0.2c-0.1-0.1-0.2-0.1-0.4-0.1s-0.3,0-0.4,0.1
				C10.1,6.7,10,6.7,9.9,6.8s0,0.2,0,0.3C9.8,7.3,9.8,7.4,9.8,7.5h1.8C11.6,7.4,11.6,7.3,11.5,7.1z M11.5,7.1c0-0.1-0.1-0.2-0.2-0.3
				c-0.1-0.1-0.2-0.2-0.3-0.2c-0.1-0.1-0.2-0.1-0.4-0.1s-0.3,0-0.4,0.1C10.1,6.7,10,6.7,9.9,6.8s0,0.2,0,0.3
				C9.8,7.3,9.8,7.4,9.8,7.5h1.8C11.6,7.4,11.6,7.3,11.5,7.1z M11.5,7.1c0-0.1-0.1-0.2-0.2-0.3c-0.1-0.1-0.2-0.2-0.3-0.2
				c-0.1-0.1-0.2-0.1-0.4-0.1s-0.3,0-0.4,0.1C10.1,6.7,10,6.7,9.9,6.8s0,0.2,0,0.3C9.8,7.3,9.8,7.4,9.8,7.5h1.8
				C11.6,7.4,11.6,7.3,11.5,7.1z M11.5,7.1c0-0.1-0.1-0.2-0.2-0.3c-0.1-0.1-0.2-0.2-0.3-0.2c-0.1-0.1-0.2-0.1-0.4-0.1
				s-0.3,0-0.4,0.1C10.1,6.7,10,6.7,9.9,6.8s0,0.2,0,0.3C9.8,7.3,9.8,7.4,9.8,7.5h1.8C11.6,7.4,11.6,7.3,11.5,7.1z M11.5,7.1
				c0-0.1-0.1-0.2-0.2-0.3c-0.1-0.1-0.2-0.2-0.3-0.2c-0.1-0.1-0.2-0.1-0.4-0.1s-0.3,0-0.4,0.1C10.1,6.7,10,6.7,9.9,6.8s0,0.2,0,0.3
				C9.8,7.3,9.8,7.4,9.8,7.5h1.8C11.6,7.4,11.6,7.3,11.5,7.1z M11.5,7.1c0-0.1-0.1-0.2-0.2-0.3c-0.1-0.1-0.2-0.2-0.3-0.2
				c-0.1-0.1-0.2-0.1-0.4-0.1s-0.3,0-0.4,0.1C10.1,6.7,10,6.7,9.9,6.8s0,0.2,0,0.3C9.8,7.3,9.8,7.4,9.8,7.5h1.8
				C11.6,7.4,11.6,7.3,11.5,7.1z M11.5,7.1c0-0.1-0.1-0.2-0.2-0.3c-0.1-0.1-0.2-0.2-0.3-0.2c-0.1-0.1-0.2-0.1-0.4-0.1
				s-0.3,0-0.4,0.1C10.1,6.7,10,6.7,9.9,6.8s0,0.2,0,0.3C9.8,7.3,9.8,7.4,9.8,7.5h1.8C11.6,7.4,11.6,7.3,11.5,7.1z M11.5,7.1
				c0-0.1-0.1-0.2-0.2-0.3c-0.1-0.1-0.2-0.2-0.3-0.2c-0.1-0.1-0.2-0.1-0.4-0.1s-0.3,0-0.4,0.1C10.1,6.7,10,6.7,9.9,6.8s0,0.2,0,0.3
				C9.8,7.3,9.8,7.4,9.8,7.5h1.8C11.6,7.4,11.6,7.3,11.5,7.1z M11.5,7.1c0-0.1-0.1-0.2-0.2-0.3c-0.1-0.1-0.2-0.2-0.3-0.2
				c-0.1-0.1-0.2-0.1-0.4-0.1s-0.3,0-0.4,0.1C10.1,6.7,10,6.7,9.9,6.8s0,0.2,0,0.3C9.8,7.3,9.8,7.4,9.8,7.5h1.8
				C11.6,7.4,11.6,7.3,11.5,7.1z M11.5,7.1c0-0.1-0.1-0.2-0.2-0.3c-0.1-0.1-0.2-0.2-0.3-0.2c-0.1-0.1-0.2-0.1-0.4-0.1
				s-0.3,0-0.4,0.1C10.1,6.7,10,6.7,9.9,6.8s0,0.2,0,0.3C9.8,7.3,9.8,7.4,9.8,7.5h1.8C11.6,7.4,11.6,7.3,11.5,7.1z M11.5,7.1
				c0-0.1-0.1-0.2-0.2-0.3c-0.1-0.1-0.2-0.2-0.3-0.2c-0.1-0.1-0.2-0.1-0.4-0.1s-0.3,0-0.4,0.1C10.1,6.7,10,6.7,9.9,6.8s0,0.2,0,0.3
				C9.8,7.3,9.8,7.4,9.8,7.5h1.8C11.6,7.4,11.6,7.3,11.5,7.1z M11.5,7.1c0-0.1-0.1-0.2-0.2-0.3c-0.1-0.1-0.2-0.2-0.3-0.2
				c-0.1-0.1-0.2-0.1-0.4-0.1s-0.3,0-0.4,0.1C10.1,6.7,10,6.7,9.9,6.8s0,0.2,0,0.3C9.8,7.3,9.8,7.4,9.8,7.5h1.8
				C11.6,7.4,11.6,7.3,11.5,7.1z M11.5,7.1c0-0.1-0.1-0.2-0.2-0.3c-0.1-0.1-0.2-0.2-0.3-0.2c-0.1-0.1-0.2-0.1-0.4-0.1
				s-0.3,0-0.4,0.1C10.1,6.7,10,6.7,9.9,6.8s0,0.2,0,0.3C9.8,7.3,9.8,7.4,9.8,7.5h1.8C11.6,7.4,11.6,7.3,11.5,7.1z M11.5,7.1
				c0-0.1-0.1-0.2-0.2-0.3c-0.1-0.1-0.2-0.2-0.3-0.2c-0.1-0.1-0.2-0.1-0.4-0.1s-0.3,0-0.4,0.1C10.1,6.7,10,6.7,9.9,6.8s0,0.2,0,0.3
				C9.8,7.3,9.8,7.4,9.8,7.5h1.8C11.6,7.4,11.6,7.3,11.5,7.1z M11.5,7.1c0-0.1-0.1-0.2-0.2-0.3c-0.1-0.1-0.2-0.2-0.3-0.2
				c-0.1-0.1-0.2-0.1-0.4-0.1s-0.3,0-0.4,0.1C10.1,6.7,10,6.7,9.9,6.8s0,0.2,0,0.3C9.8,7.3,9.8,7.4,9.8,7.5h1.8
				C11.6,7.4,11.6,7.3,11.5,7.1z M11.5,7.1c0-0.1-0.1-0.2-0.2-0.3c-0.1-0.1-0.2-0.2-0.3-0.2c-0.1-0.1-0.2-0.1-0.4-0.1
				s-0.3,0-0.4,0.1C10.1,6.7,10,6.7,9.9,6.8s0,0.2,0,0.3C9.8,7.3,9.8,7.4,9.8,7.5h1.8C11.6,7.4,11.6,7.3,11.5,7.1z M11.5,7.1
				c0-0.1-0.1-0.2-0.2-0.3c-0.1-0.1-0.2-0.2-0.3-0.2c-0.1-0.1-0.2-0.1-0.4-0.1s-0.3,0-0.4,0.1C10.1,6.7,10,6.7,9.9,6.8s0,0.2,0,0.3
				C9.8,7.3,9.8,7.4,9.8,7.5h1.8C11.6,7.4,11.6,7.3,11.5,7.1z M11.5,7.1c0-0.1-0.1-0.2-0.2-0.3c-0.1-0.1-0.2-0.2-0.3-0.2
				c-0.1-0.1-0.2-0.1-0.4-0.1s-0.3,0-0.4,0.1C10.1,6.7,10,6.7,9.9,6.8s0,0.2,0,0.3C9.8,7.3,9.8,7.4,9.8,7.5h1.8
				C11.6,7.4,11.6,7.3,11.5,7.1z M11.5,7.1c0-0.1-0.1-0.2-0.2-0.3c-0.1-0.1-0.2-0.2-0.3-0.2c-0.1-0.1-0.2-0.1-0.4-0.1
				s-0.3,0-0.4,0.1C10.1,6.7,10,6.7,9.9,6.8s0,0.2,0,0.3C9.8,7.3,9.8,7.4,9.8,7.5h1.8C11.6,7.4,11.6,7.3,11.5,7.1z M11.5,7.1
				c0-0.1-0.1-0.2-0.2-0.3c-0.1-0.1-0.2-0.2-0.3-0.2c-0.1-0.1-0.2-0.1-0.4-0.1s-0.3,0-0.4,0.1C10.1,6.7,10,6.7,9.9,6.8s0,0.2,0,0.3
				C9.8,7.3,9.8,7.4,9.8,7.5h1.8C11.6,7.4,11.6,7.3,11.5,7.1z M11.5,7.1c0-0.1-0.1-0.2-0.2-0.3c-0.1-0.1-0.2-0.2-0.3-0.2
				c-0.1-0.1-0.2-0.1-0.4-0.1s-0.3,0-0.4,0.1C10.1,6.7,10,6.7,9.9,6.8s0,0.2,0,0.3C9.8,7.3,9.8,7.4,9.8,7.5h1.8
				C11.6,7.4,11.6,7.3,11.5,7.1z M11.5,7.1c0-0.1-0.1-0.2-0.2-0.3c-0.1-0.1-0.2-0.2-0.3-0.2c-0.1-0.1-0.2-0.1-0.4-0.1
				s-0.3,0-0.4,0.1C10.1,6.7,10,6.7,9.9,6.8s0,0.2,0,0.3C9.8,7.3,9.8,7.4,9.8,7.5h1.8C11.6,7.4,11.6,7.3,11.5,7.1z M11.5,7.1
				c0-0.1-0.1-0.2-0.2-0.3c-0.1-0.1-0.2-0.2-0.3-0.2c-0.1-0.1-0.2-0.1-0.4-0.1s-0.3,0-0.4,0.1C10.1,6.7,10,6.7,9.9,6.8s0,0.2,0,0.3
				C9.8,7.3,9.8,7.4,9.8,7.5h1.8C11.6,7.4,11.6,7.3,11.5,7.1z M11.5,7.1c0-0.1-0.1-0.2-0.2-0.3c-0.1-0.1-0.2-0.2-0.3-0.2
				c-0.1-0.1-0.2-0.1-0.4-0.1s-0.3,0-0.4,0.1C10.1,6.7,10,6.7,9.9,6.8s0,0.2,0,0.3C9.8,7.3,9.8,7.4,9.8,7.5h1.8
				C11.6,7.4,11.6,7.3,11.5,7.1z M11.5,7.1c0-0.1-0.1-0.2-0.2-0.3c-0.1-0.1-0.2-0.2-0.3-0.2c-0.1-0.1-0.2-0.1-0.4-0.1
				s-0.3,0-0.4,0.1C10.1,6.7,10,6.7,9.9,6.8s0,0.2,0,0.3C9.8,7.3,9.8,7.4,9.8,7.5h1.8C11.6,7.4,11.6,7.3,11.5,7.1z M11.5,7.1
				c0-0.1-0.1-0.2-0.2-0.3c-0.1-0.1-0.2-0.2-0.3-0.2c-0.1-0.1-0.2-0.1-0.4-0.1s-0.3,0-0.4,0.1C10.1,6.7,10,6.7,9.9,6.8s0,0.2,0,0.3
				C9.8,7.3,9.8,7.4,9.8,7.5h1.8C11.6,7.4,11.6,7.3,11.5,7.1z M10.7,0H4.3C1.9,0,0,1.9,0,4.3v6.4C0,13.1,1.9,15,4.3,15h6.4
				c2.4,0,4.3-1.9,4.3-4.3V4.3C15,1.9,13.1,0,10.7,0z M6.8,10.4L6.2,8.7H3.8l-0.6,1.6H2L4.5,4h1.1l2.5,6.3L6.8,10.4L6.8,10.4z
				 M12.7,8.4h-3c0,0.2,0.1,0.4,0.1,0.5s0.2,0.3,0.3,0.4c0.1,0.1,0.3,0.2,0.4,0.2c0.2,0,0.4,0.1,0.6,0.1c0.2,0,0.4,0,0.7-0.1
				c0.2,0,0.5-0.1,0.7-0.2v0.9c-0.1,0.1-0.4,0.1-0.7,0.2s-0.6,0.1-0.9,0.1s-0.6,0-0.9-0.1c-0.3-0.1-0.5-0.2-0.8-0.4
				C9.1,9.8,8.9,9.5,8.8,9.2s-0.2-0.6-0.2-1s0.1-0.8,0.2-1.1c0.1-0.3,0.3-0.6,0.5-0.8S9.7,6,9.9,5.9c0.3-0.1,0.5-0.2,0.8-0.2
				s0.6,0.1,0.8,0.1C11.7,5.9,12,6,12.1,6.2c0.2,0.2,0.3,0.4,0.4,0.7c0.1,0.3,0.1,0.7,0.1,1.1C12.7,8.2,12.7,8.3,12.7,8.4L12.7,8.4z
				 M11.4,6.8c-0.1-0.1-0.2-0.2-0.3-0.2c-0.1-0.1-0.2-0.1-0.4-0.1s-0.3,0-0.4,0.1c-0.1,0.1-0.2,0.1-0.3,0.2S9.9,7,9.9,7.1
				C9.8,7.3,9.8,7.4,9.8,7.5h1.8c0-0.1,0-0.3-0.1-0.4C11.5,7,11.4,6.9,11.4,6.8z M11.5,7.1c0-0.1-0.1-0.2-0.2-0.3
				c-0.1-0.1-0.2-0.2-0.3-0.2c-0.1-0.1-0.2-0.1-0.4-0.1s-0.3,0-0.4,0.1C10.1,6.7,10,6.7,9.9,6.8s0,0.2,0,0.3
				C9.8,7.3,9.8,7.4,9.8,7.5h1.8C11.6,7.4,11.6,7.3,11.5,7.1z M11.5,7.1c0-0.1-0.1-0.2-0.2-0.3c-0.1-0.1-0.2-0.2-0.3-0.2
				c-0.1-0.1-0.2-0.1-0.4-0.1s-0.3,0-0.4,0.1C10.1,6.7,10,6.7,9.9,6.8s0,0.2,0,0.3C9.8,7.3,9.8,7.4,9.8,7.5h1.8
				C11.6,7.4,11.6,7.3,11.5,7.1z M11.5,7.1c0-0.1-0.1-0.2-0.2-0.3c-0.1-0.1-0.2-0.2-0.3-0.2c-0.1-0.1-0.2-0.1-0.4-0.1
				s-0.3,0-0.4,0.1C10.1,6.7,10,6.7,9.9,6.8s0,0.2,0,0.3C9.8,7.3,9.8,7.4,9.8,7.5h1.8C11.6,7.4,11.6,7.3,11.5,7.1z M11.5,7.1
				c0-0.1-0.1-0.2-0.2-0.3c-0.1-0.1-0.2-0.2-0.3-0.2c-0.1-0.1-0.2-0.1-0.4-0.1s-0.3,0-0.4,0.1C10.1,6.7,10,6.7,9.9,6.8s0,0.2,0,0.3
				C9.8,7.3,9.8,7.4,9.8,7.5h1.8C11.6,7.4,11.6,7.3,11.5,7.1z M11.5,7.1c0-0.1-0.1-0.2-0.2-0.3c-0.1-0.1-0.2-0.2-0.3-0.2
				c-0.1-0.1-0.2-0.1-0.4-0.1s-0.3,0-0.4,0.1C10.1,6.7,10,6.7,9.9,6.8s0,0.2,0,0.3C9.8,7.3,9.8,7.4,9.8,7.5h1.8
				C11.6,7.4,11.6,7.3,11.5,7.1z M11.5,7.1c0-0.1-0.1-0.2-0.2-0.3c-0.1-0.1-0.2-0.2-0.3-0.2c-0.1-0.1-0.2-0.1-0.4-0.1
				s-0.3,0-0.4,0.1C10.1,6.7,10,6.7,9.9,6.8s0,0.2,0,0.3C9.8,7.3,9.8,7.4,9.8,7.5h1.8C11.6,7.4,11.6,7.3,11.5,7.1z M11.5,7.1
				c0-0.1-0.1-0.2-0.2-0.3c-0.1-0.1-0.2-0.2-0.3-0.2c-0.1-0.1-0.2-0.1-0.4-0.1s-0.3,0-0.4,0.1C10.1,6.7,10,6.7,9.9,6.8s0,0.2,0,0.3
				C9.8,7.3,9.8,7.4,9.8,7.5h1.8C11.6,7.4,11.6,7.3,11.5,7.1z M11.5,7.1c0-0.1-0.1-0.2-0.2-0.3c-0.1-0.1-0.2-0.2-0.3-0.2
				c-0.1-0.1-0.2-0.1-0.4-0.1s-0.3,0-0.4,0.1C10.1,6.7,10,6.7,9.9,6.8s0,0.2,0,0.3C9.8,7.3,9.8,7.4,9.8,7.5h1.8
				C11.6,7.4,11.6,7.3,11.5,7.1z M11.5,7.1c0-0.1-0.1-0.2-0.2-0.3c-0.1-0.1-0.2-0.2-0.3-0.2c-0.1-0.1-0.2-0.1-0.4-0.1
				s-0.3,0-0.4,0.1C10.1,6.7,10,6.7,9.9,6.8s0,0.2,0,0.3C9.8,7.3,9.8,7.4,9.8,7.5h1.8C11.6,7.4,11.6,7.3,11.5,7.1z M11.5,7.1
				c0-0.1-0.1-0.2-0.2-0.3c-0.1-0.1-0.2-0.2-0.3-0.2c-0.1-0.1-0.2-0.1-0.4-0.1s-0.3,0-0.4,0.1C10.1,6.7,10,6.7,9.9,6.8s0,0.2,0,0.3
				C9.8,7.3,9.8,7.4,9.8,7.5h1.8C11.6,7.4,11.6,7.3,11.5,7.1z M11.5,7.1c0-0.1-0.1-0.2-0.2-0.3c-0.1-0.1-0.2-0.2-0.3-0.2
				c-0.1-0.1-0.2-0.1-0.4-0.1s-0.3,0-0.4,0.1C10.1,6.7,10,6.7,9.9,6.8s0,0.2,0,0.3C9.8,7.3,9.8,7.4,9.8,7.5h1.8
				C11.6,7.4,11.6,7.3,11.5,7.1z M11.5,7.1c0-0.1-0.1-0.2-0.2-0.3c-0.1-0.1-0.2-0.2-0.3-0.2c-0.1-0.1-0.2-0.1-0.4-0.1
				s-0.3,0-0.4,0.1C10.1,6.7,10,6.7,9.9,6.8s0,0.2,0,0.3C9.8,7.3,9.8,7.4,9.8,7.5h1.8C11.6,7.4,11.6,7.3,11.5,7.1z M11.5,7.1
				c0-0.1-0.1-0.2-0.2-0.3c-0.1-0.1-0.2-0.2-0.3-0.2c-0.1-0.1-0.2-0.1-0.4-0.1s-0.3,0-0.4,0.1C10.1,6.7,10,6.7,9.9,6.8s0,0.2,0,0.3
				C9.8,7.3,9.8,7.4,9.8,7.5h1.8C11.6,7.4,11.6,7.3,11.5,7.1z M11.5,7.1c0-0.1-0.1-0.2-0.2-0.3c-0.1-0.1-0.2-0.2-0.3-0.2
				c-0.1-0.1-0.2-0.1-0.4-0.1s-0.3,0-0.4,0.1C10.1,6.7,10,6.7,9.9,6.8s0,0.2,0,0.3C9.8,7.3,9.8,7.4,9.8,7.5h1.8
				C11.6,7.4,11.6,7.3,11.5,7.1z M11.5,7.1c0-0.1-0.1-0.2-0.2-0.3c-0.1-0.1-0.2-0.2-0.3-0.2c-0.1-0.1-0.2-0.1-0.4-0.1
				s-0.3,0-0.4,0.1C10.1,6.7,10,6.7,9.9,6.8s0,0.2,0,0.3C9.8,7.3,9.8,7.4,9.8,7.5h1.8C11.6,7.4,11.6,7.3,11.5,7.1z M11.5,7.1
				c0-0.1-0.1-0.2-0.2-0.3c-0.1-0.1-0.2-0.2-0.3-0.2c-0.1-0.1-0.2-0.1-0.4-0.1s-0.3,0-0.4,0.1C10.1,6.7,10,6.7,9.9,6.8s0,0.2,0,0.3
				C9.8,7.3,9.8,7.4,9.8,7.5h1.8C11.6,7.4,11.6,7.3,11.5,7.1z M11.5,7.1c0-0.1-0.1-0.2-0.2-0.3c-0.1-0.1-0.2-0.2-0.3-0.2
				c-0.1-0.1-0.2-0.1-0.4-0.1s-0.3,0-0.4,0.1C10.1,6.7,10,6.7,9.9,6.8s0,0.2,0,0.3C9.8,7.3,9.8,7.4,9.8,7.5h1.8
				C11.6,7.4,11.6,7.3,11.5,7.1z M11.5,7.1c0-0.1-0.1-0.2-0.2-0.3c-0.1-0.1-0.2-0.2-0.3-0.2c-0.1-0.1-0.2-0.1-0.4-0.1
				s-0.3,0-0.4,0.1C10.1,6.7,10,6.7,9.9,6.8s0,0.2,0,0.3C9.8,7.3,9.8,7.4,9.8,7.5h1.8C11.6,7.4,11.6,7.3,11.5,7.1z M11.5,7.1
				c0-0.1-0.1-0.2-0.2-0.3c-0.1-0.1-0.2-0.2-0.3-0.2c-0.1-0.1-0.2-0.1-0.4-0.1s-0.3,0-0.4,0.1C10.1,6.7,10,6.7,9.9,6.8s0,0.2,0,0.3
				C9.8,7.3,9.8,7.4,9.8,7.5h1.8C11.6,7.4,11.6,7.3,11.5,7.1z M11.5,7.1c0-0.1-0.1-0.2-0.2-0.3c-0.1-0.1-0.2-0.2-0.3-0.2
				c-0.1-0.1-0.2-0.1-0.4-0.1s-0.3,0-0.4,0.1C10.1,6.7,10,6.7,9.9,6.8s0,0.2,0,0.3C9.8,7.3,9.8,7.4,9.8,7.5h1.8
				C11.6,7.4,11.6,7.3,11.5,7.1z M11.5,7.1c0-0.1-0.1-0.2-0.2-0.3c-0.1-0.1-0.2-0.2-0.3-0.2c-0.1-0.1-0.2-0.1-0.4-0.1
				s-0.3,0-0.4,0.1C10.1,6.7,10,6.7,9.9,6.8s0,0.2,0,0.3C9.8,7.3,9.8,7.4,9.8,7.5h1.8C11.6,7.4,11.6,7.3,11.5,7.1z M11.5,7.1
				c0-0.1-0.1-0.2-0.2-0.3c-0.1-0.1-0.2-0.2-0.3-0.2c-0.1-0.1-0.2-0.1-0.4-0.1s-0.3,0-0.4,0.1C10.1,6.7,10,6.7,9.9,6.8s0,0.2,0,0.3
				C9.8,7.3,9.8,7.4,9.8,7.5h1.8C11.6,7.4,11.6,7.3,11.5,7.1z M11.5,7.1c0-0.1-0.1-0.2-0.2-0.3c-0.1-0.1-0.2-0.2-0.3-0.2
				c-0.1-0.1-0.2-0.1-0.4-0.1s-0.3,0-0.4,0.1C10.1,6.7,10,6.7,9.9,6.8s0,0.2,0,0.3C9.8,7.3,9.8,7.4,9.8,7.5h1.8
				C11.6,7.4,11.6,7.3,11.5,7.1z M11.5,7.1c0-0.1-0.1-0.2-0.2-0.3c-0.1-0.1-0.2-0.2-0.3-0.2c-0.1-0.1-0.2-0.1-0.4-0.1
				s-0.3,0-0.4,0.1C10.1,6.7,10,6.7,9.9,6.8s0,0.2,0,0.3C9.8,7.3,9.8,7.4,9.8,7.5h1.8C11.6,7.4,11.6,7.3,11.5,7.1z"/>
		</g>
	</g>
</g>
</svg>
