<?xml version="1.0" encoding="utf-8"?>
<!-- Generator: Adobe Illustrator 27.3.1, SVG Export Plug-In . SVG Version: 6.00 Build 0)  -->
<svg version="1.1" id="Layer_1" xmlns="http://www.w3.org/2000/svg" xmlns:xlink="http://www.w3.org/1999/xlink" x="0px" y="0px"
	 viewBox="0 0 15 15" style="enable-background:new 0 0 15 15;" xml:space="preserve">
<style type="text/css">
	.st0{fill:#3498DB;}
</style>
<g id="a">
</g>
<g id="b">
	<g id="c">
		<path class="st0" d="M9.3,6.7C9.1,6.6,9,6.6,8.8,6.6c-0.1,0-0.2,0-0.4,0.1c-0.1,0-0.2,0.1-0.4,0.2C7.9,7,7.9,7.1,7.8,7.3
			C7.7,7.5,7.7,7.8,7.7,8.1c0,0.5,0.1,0.8,0.3,1.1s0.4,0.4,0.8,0.4c0.1,0,0.2,0,0.3,0c0.1,0,0.2-0.1,0.3-0.1
			c0.1-0.1,0.2-0.1,0.2-0.2s0.1-0.1,0.2-0.2V6.9C9.6,6.8,9.4,6.7,9.3,6.7L9.3,6.7z M9.3,6.7C9.1,6.6,9,6.6,8.8,6.6
			c-0.1,0-0.2,0-0.4,0.1c-0.1,0-0.2,0.1-0.4,0.2C7.9,7,7.9,7.1,7.8,7.3C7.7,7.5,7.7,7.8,7.7,8.1c0,0.5,0.1,0.8,0.3,1.1
			s0.4,0.4,0.8,0.4c0.1,0,0.2,0,0.3,0c0.1,0,0.2-0.1,0.3-0.1c0.1-0.1,0.2-0.1,0.2-0.2s0.1-0.1,0.2-0.2V6.9C9.6,6.8,9.4,6.7,9.3,6.7
			L9.3,6.7z M9.3,6.7C9.1,6.6,9,6.6,8.8,6.6c-0.1,0-0.2,0-0.4,0.1c-0.1,0-0.2,0.1-0.4,0.2C7.9,7,7.9,7.1,7.8,7.3
			C7.7,7.5,7.7,7.8,7.7,8.1c0,0.5,0.1,0.8,0.3,1.1s0.4,0.4,0.8,0.4c0.1,0,0.2,0,0.3,0c0.1,0,0.2-0.1,0.3-0.1
			c0.1-0.1,0.2-0.1,0.2-0.2s0.1-0.1,0.2-0.2V6.9C9.6,6.8,9.4,6.7,9.3,6.7L9.3,6.7z M9.3,6.7C9.1,6.6,9,6.6,8.8,6.6
			c-0.1,0-0.2,0-0.4,0.1c-0.1,0-0.2,0.1-0.4,0.2C7.9,7,7.9,7.1,7.8,7.3C7.7,7.5,7.7,7.8,7.7,8.1c0,0.5,0.1,0.8,0.3,1.1
			s0.4,0.4,0.8,0.4c0.1,0,0.2,0,0.3,0c0.1,0,0.2-0.1,0.3-0.1c0.1-0.1,0.2-0.1,0.2-0.2s0.1-0.1,0.2-0.2V6.9C9.6,6.8,9.4,6.7,9.3,6.7
			L9.3,6.7z M9.3,6.7C9.1,6.6,9,6.6,8.8,6.6c-0.1,0-0.2,0-0.4,0.1c-0.1,0-0.2,0.1-0.4,0.2C7.9,7,7.9,7.1,7.8,7.3
			C7.7,7.5,7.7,7.8,7.7,8.1c0,0.5,0.1,0.8,0.3,1.1s0.4,0.4,0.8,0.4c0.1,0,0.2,0,0.3,0c0.1,0,0.2-0.1,0.3-0.1
			c0.1-0.1,0.2-0.1,0.2-0.2s0.1-0.1,0.2-0.2V6.9C9.6,6.8,9.4,6.7,9.3,6.7L9.3,6.7z M9.3,6.7C9.1,6.6,9,6.6,8.8,6.6
			c-0.1,0-0.2,0-0.4,0.1c-0.1,0-0.2,0.1-0.4,0.2C7.9,7,7.9,7.1,7.8,7.3C7.7,7.5,7.7,7.8,7.7,8.1c0,0.5,0.1,0.8,0.3,1.1
			s0.4,0.4,0.8,0.4c0.1,0,0.2,0,0.3,0c0.1,0,0.2-0.1,0.3-0.1c0.1-0.1,0.2-0.1,0.2-0.2s0.1-0.1,0.2-0.2V6.9C9.6,6.8,9.4,6.7,9.3,6.7
			L9.3,6.7z M9.3,6.7C9.1,6.6,9,6.6,8.8,6.6c-0.1,0-0.2,0-0.4,0.1c-0.1,0-0.2,0.1-0.4,0.2C7.9,7,7.9,7.1,7.8,7.3
			C7.7,7.5,7.7,7.8,7.7,8.1c0,0.5,0.1,0.8,0.3,1.1s0.4,0.4,0.8,0.4c0.1,0,0.2,0,0.3,0c0.1,0,0.2-0.1,0.3-0.1
			c0.1-0.1,0.2-0.1,0.2-0.2s0.1-0.1,0.2-0.2V6.9C9.6,6.8,9.4,6.7,9.3,6.7L9.3,6.7z M9.3,6.7C9.1,6.6,9,6.6,8.8,6.6
			c-0.1,0-0.2,0-0.4,0.1c-0.1,0-0.2,0.1-0.4,0.2C7.9,7,7.9,7.1,7.8,7.3C7.7,7.5,7.7,7.8,7.7,8.1c0,0.5,0.1,0.8,0.3,1.1
			s0.4,0.4,0.8,0.4c0.1,0,0.2,0,0.3,0c0.1,0,0.2-0.1,0.3-0.1c0.1-0.1,0.2-0.1,0.2-0.2s0.1-0.1,0.2-0.2V6.9C9.6,6.8,9.4,6.7,9.3,6.7
			L9.3,6.7z M9.3,6.7C9.1,6.6,9,6.6,8.8,6.6c-0.1,0-0.2,0-0.4,0.1c-0.1,0-0.2,0.1-0.4,0.2C7.9,7,7.9,7.1,7.8,7.3
			C7.7,7.5,7.7,7.8,7.7,8.1c0,0.5,0.1,0.8,0.3,1.1s0.4,0.4,0.8,0.4c0.1,0,0.2,0,0.3,0c0.1,0,0.2-0.1,0.3-0.1
			c0.1-0.1,0.2-0.1,0.2-0.2s0.1-0.1,0.2-0.2V6.9C9.6,6.8,9.4,6.7,9.3,6.7L9.3,6.7z M9.3,6.7C9.1,6.6,9,6.6,8.8,6.6
			c-0.1,0-0.2,0-0.4,0.1c-0.1,0-0.2,0.1-0.4,0.2C7.9,7,7.9,7.1,7.8,7.3C7.7,7.5,7.7,7.8,7.7,8.1c0,0.5,0.1,0.8,0.3,1.1
			s0.4,0.4,0.8,0.4c0.1,0,0.2,0,0.3,0c0.1,0,0.2-0.1,0.3-0.1c0.1-0.1,0.2-0.1,0.2-0.2s0.1-0.1,0.2-0.2V6.9C9.6,6.8,9.4,6.7,9.3,6.7
			L9.3,6.7z M9.3,6.7C9.1,6.6,9,6.6,8.8,6.6c-0.1,0-0.2,0-0.4,0.1c-0.1,0-0.2,0.1-0.4,0.2C7.9,7,7.9,7.1,7.8,7.3
			C7.7,7.5,7.7,7.8,7.7,8.1c0,0.5,0.1,0.8,0.3,1.1s0.4,0.4,0.8,0.4c0.1,0,0.2,0,0.3,0c0.1,0,0.2-0.1,0.3-0.1
			c0.1-0.1,0.2-0.1,0.2-0.2s0.1-0.1,0.2-0.2V6.9C9.6,6.8,9.4,6.7,9.3,6.7L9.3,6.7z M9.3,6.7C9.1,6.6,9,6.6,8.8,6.6
			c-0.1,0-0.2,0-0.4,0.1c-0.1,0-0.2,0.1-0.4,0.2C7.9,7,7.9,7.1,7.8,7.3C7.7,7.5,7.7,7.8,7.7,8.1c0,0.5,0.1,0.8,0.3,1.1
			s0.4,0.4,0.8,0.4c0.1,0,0.2,0,0.3,0c0.1,0,0.2-0.1,0.3-0.1c0.1-0.1,0.2-0.1,0.2-0.2s0.1-0.1,0.2-0.2V6.9C9.6,6.8,9.4,6.7,9.3,6.7
			L9.3,6.7z M9.3,6.7C9.1,6.6,9,6.6,8.8,6.6c-0.1,0-0.2,0-0.4,0.1c-0.1,0-0.2,0.1-0.4,0.2C7.9,7,7.9,7.1,7.8,7.3
			C7.7,7.5,7.7,7.8,7.7,8.1c0,0.5,0.1,0.8,0.3,1.1s0.4,0.4,0.8,0.4c0.1,0,0.2,0,0.3,0c0.1,0,0.2-0.1,0.3-0.1
			c0.1-0.1,0.2-0.1,0.2-0.2s0.1-0.1,0.2-0.2V6.9C9.6,6.8,9.4,6.7,9.3,6.7L9.3,6.7z M9.3,6.7C9.1,6.6,9,6.6,8.8,6.6
			c-0.1,0-0.2,0-0.4,0.1c-0.1,0-0.2,0.1-0.4,0.2C7.9,7,7.9,7.1,7.8,7.3C7.7,7.5,7.7,7.8,7.7,8.1c0,0.5,0.1,0.8,0.3,1.1
			s0.4,0.4,0.8,0.4c0.1,0,0.2,0,0.3,0c0.1,0,0.2-0.1,0.3-0.1c0.1-0.1,0.2-0.1,0.2-0.2s0.1-0.1,0.2-0.2V6.9C9.6,6.8,9.4,6.7,9.3,6.7
			L9.3,6.7z M9.3,6.7C9.1,6.6,9,6.6,8.8,6.6c-0.1,0-0.2,0-0.4,0.1c-0.1,0-0.2,0.1-0.4,0.2C7.9,7,7.9,7.1,7.8,7.3
			C7.7,7.5,7.7,7.8,7.7,8.1c0,0.5,0.1,0.8,0.3,1.1s0.4,0.4,0.8,0.4c0.1,0,0.2,0,0.3,0c0.1,0,0.2-0.1,0.3-0.1
			c0.1-0.1,0.2-0.1,0.2-0.2s0.1-0.1,0.2-0.2V6.9C9.6,6.8,9.4,6.7,9.3,6.7L9.3,6.7z M9.3,6.7C9.1,6.6,9,6.6,8.8,6.6
			c-0.1,0-0.2,0-0.4,0.1c-0.1,0-0.2,0.1-0.4,0.2C7.9,7,7.9,7.1,7.8,7.3C7.7,7.5,7.7,7.8,7.7,8.1c0,0.5,0.1,0.8,0.3,1.1
			s0.4,0.4,0.8,0.4c0.1,0,0.2,0,0.3,0c0.1,0,0.2-0.1,0.3-0.1c0.1-0.1,0.2-0.1,0.2-0.2s0.1-0.1,0.2-0.2V6.9C9.6,6.8,9.4,6.7,9.3,6.7
			L9.3,6.7z M9.3,6.7C9.1,6.6,9,6.6,8.8,6.6c-0.1,0-0.2,0-0.4,0.1c-0.1,0-0.2,0.1-0.4,0.2C7.9,7,7.9,7.1,7.8,7.3
			C7.7,7.5,7.7,7.8,7.7,8.1c0,0.5,0.1,0.8,0.3,1.1s0.4,0.4,0.8,0.4c0.1,0,0.2,0,0.3,0c0.1,0,0.2-0.1,0.3-0.1
			c0.1-0.1,0.2-0.1,0.2-0.2s0.1-0.1,0.2-0.2V6.9C9.6,6.8,9.4,6.7,9.3,6.7L9.3,6.7z M9.3,6.7C9.1,6.6,9,6.6,8.8,6.6
			c-0.1,0-0.2,0-0.4,0.1c-0.1,0-0.2,0.1-0.4,0.2C7.9,7,7.9,7.1,7.8,7.3C7.7,7.5,7.7,7.8,7.7,8.1c0,0.5,0.1,0.8,0.3,1.1
			s0.4,0.4,0.8,0.4c0.1,0,0.2,0,0.3,0c0.1,0,0.2-0.1,0.3-0.1c0.1-0.1,0.2-0.1,0.2-0.2s0.1-0.1,0.2-0.2V6.9C9.6,6.8,9.4,6.7,9.3,6.7
			L9.3,6.7z M9.3,6.7C9.1,6.6,9,6.6,8.8,6.6c-0.1,0-0.2,0-0.4,0.1c-0.1,0-0.2,0.1-0.4,0.2C7.9,7,7.9,7.1,7.8,7.3
			C7.7,7.5,7.7,7.8,7.7,8.1c0,0.5,0.1,0.8,0.3,1.1s0.4,0.4,0.8,0.4c0.1,0,0.2,0,0.3,0c0.1,0,0.2-0.1,0.3-0.1
			c0.1-0.1,0.2-0.1,0.2-0.2s0.1-0.1,0.2-0.2V6.9C9.6,6.8,9.4,6.7,9.3,6.7L9.3,6.7z M9.3,6.7C9.1,6.6,9,6.6,8.8,6.6
			c-0.1,0-0.2,0-0.4,0.1c-0.1,0-0.2,0.1-0.4,0.2C7.9,7,7.9,7.1,7.8,7.3C7.7,7.5,7.7,7.8,7.7,8.1c0,0.5,0.1,0.8,0.3,1.1
			s0.4,0.4,0.8,0.4c0.1,0,0.2,0,0.3,0c0.1,0,0.2-0.1,0.3-0.1c0.1-0.1,0.2-0.1,0.2-0.2s0.1-0.1,0.2-0.2V6.9C9.6,6.8,9.4,6.7,9.3,6.7
			L9.3,6.7z M9.3,6.7C9.1,6.6,9,6.6,8.8,6.6c-0.1,0-0.2,0-0.4,0.1c-0.1,0-0.2,0.1-0.4,0.2C7.9,7,7.9,7.1,7.8,7.3
			C7.7,7.5,7.7,7.8,7.7,8.1c0,0.5,0.1,0.8,0.3,1.1s0.4,0.4,0.8,0.4c0.1,0,0.2,0,0.3,0c0.1,0,0.2-0.1,0.3-0.1
			c0.1-0.1,0.2-0.1,0.2-0.2s0.1-0.1,0.2-0.2V6.9C9.6,6.8,9.4,6.7,9.3,6.7L9.3,6.7z M9.3,6.7C9.1,6.6,9,6.6,8.8,6.6
			c-0.1,0-0.2,0-0.4,0.1c-0.1,0-0.2,0.1-0.4,0.2C7.9,7,7.9,7.1,7.8,7.3C7.7,7.5,7.7,7.8,7.7,8.1c0,0.5,0.1,0.8,0.3,1.1
			s0.4,0.4,0.8,0.4c0.1,0,0.2,0,0.3,0c0.1,0,0.2-0.1,0.3-0.1c0.1-0.1,0.2-0.1,0.2-0.2s0.1-0.1,0.2-0.2V6.9C9.6,6.8,9.4,6.7,9.3,6.7
			L9.3,6.7z M9.3,6.7C9.1,6.6,9,6.6,8.8,6.6c-0.1,0-0.2,0-0.4,0.1c-0.1,0-0.2,0.1-0.4,0.2C7.9,7,7.9,7.1,7.8,7.3
			C7.7,7.5,7.7,7.8,7.7,8.1c0,0.5,0.1,0.8,0.3,1.1s0.4,0.4,0.8,0.4c0.1,0,0.2,0,0.3,0c0.1,0,0.2-0.1,0.3-0.1
			c0.1-0.1,0.2-0.1,0.2-0.2s0.1-0.1,0.2-0.2V6.9C9.6,6.8,9.4,6.7,9.3,6.7L9.3,6.7z M9.3,6.7C9.1,6.6,9,6.6,8.8,6.6
			c-0.1,0-0.2,0-0.4,0.1c-0.1,0-0.2,0.1-0.4,0.2C7.9,7,7.9,7.1,7.8,7.3C7.7,7.5,7.7,7.8,7.7,8.1c0,0.5,0.1,0.8,0.3,1.1
			s0.4,0.4,0.8,0.4c0.1,0,0.2,0,0.3,0c0.1,0,0.2-0.1,0.3-0.1c0.1-0.1,0.2-0.1,0.2-0.2s0.1-0.1,0.2-0.2V6.9C9.6,6.8,9.4,6.7,9.3,6.7
			L9.3,6.7z M10.7,0H4.3C1.9,0,0,1.9,0,4.3v6.4C0,13.1,1.9,15,4.3,15h6.4c2.4,0,4.3-1.9,4.3-4.3V4.3C15,1.9,13.1,0,10.7,0z
			 M5.4,10.4H4.2V4h1.2V10.4z M9.9,10.4L9.8,9.9h0C9.7,10,9.7,10,9.6,10.1c-0.1,0.1-0.2,0.1-0.3,0.2c-0.1,0.1-0.2,0.1-0.4,0.1
			s-0.3,0.1-0.4,0.1c-0.2,0-0.5,0-0.7-0.1c-0.2-0.1-0.4-0.2-0.6-0.4C6.9,9.8,6.8,9.5,6.7,9.2C6.6,8.9,6.5,8.6,6.5,8.2
			s0.1-0.8,0.2-1.1C6.8,6.8,7,6.5,7.1,6.3s0.4-0.4,0.7-0.5C8,5.7,8.3,5.7,8.6,5.7c0.1,0,0.2,0,0.4,0c0.1,0,0.2,0.1,0.3,0.1
			s0.2,0.1,0.3,0.1C9.6,6,9.7,6,9.7,6.1h0c0-0.1,0-0.2,0-0.3c0-0.1,0-0.2,0-0.4V3.5h1.1V9c0,0.3,0,0.6,0,0.8c0,0.2,0,0.4,0,0.6
			L9.9,10.4L9.9,10.4z M8.8,6.6c-0.1,0-0.2,0-0.4,0.1c-0.1,0-0.2,0.1-0.4,0.2C7.9,7,7.9,7.1,7.8,7.3C7.7,7.5,7.7,7.8,7.7,8.1
			c0,0.5,0.1,0.8,0.3,1.1s0.4,0.4,0.8,0.4c0.1,0,0.2,0,0.3,0c0.1,0,0.2-0.1,0.3-0.1c0.1-0.1,0.2-0.1,0.2-0.2s0.1-0.1,0.2-0.2V6.9
			C9.6,6.8,9.4,6.7,9.3,6.7C9.1,6.6,8.9,6.5,8.8,6.6L8.8,6.6z M9.3,6.7C9.1,6.6,9,6.6,8.8,6.6c-0.1,0-0.2,0-0.4,0.1
			c-0.1,0-0.2,0.1-0.4,0.2C7.9,7,7.9,7.1,7.8,7.3C7.7,7.5,7.7,7.8,7.7,8.1c0,0.5,0.1,0.8,0.3,1.1s0.4,0.4,0.8,0.4c0.1,0,0.2,0,0.3,0
			c0.1,0,0.2-0.1,0.3-0.1c0.1-0.1,0.2-0.1,0.2-0.2s0.1-0.1,0.2-0.2V6.9C9.6,6.8,9.4,6.7,9.3,6.7L9.3,6.7z M9.3,6.7
			C9.1,6.6,9,6.6,8.8,6.6c-0.1,0-0.2,0-0.4,0.1c-0.1,0-0.2,0.1-0.4,0.2C7.9,7,7.9,7.1,7.8,7.3C7.7,7.5,7.7,7.8,7.7,8.1
			c0,0.5,0.1,0.8,0.3,1.1s0.4,0.4,0.8,0.4c0.1,0,0.2,0,0.3,0c0.1,0,0.2-0.1,0.3-0.1c0.1-0.1,0.2-0.1,0.2-0.2s0.1-0.1,0.2-0.2V6.9
			C9.6,6.8,9.4,6.7,9.3,6.7L9.3,6.7z M9.3,6.7C9.1,6.6,9,6.6,8.8,6.6c-0.1,0-0.2,0-0.4,0.1c-0.1,0-0.2,0.1-0.4,0.2
			C7.9,7,7.9,7.1,7.8,7.3C7.7,7.5,7.7,7.8,7.7,8.1c0,0.5,0.1,0.8,0.3,1.1s0.4,0.4,0.8,0.4c0.1,0,0.2,0,0.3,0c0.1,0,0.2-0.1,0.3-0.1
			c0.1-0.1,0.2-0.1,0.2-0.2s0.1-0.1,0.2-0.2V6.9C9.6,6.8,9.4,6.7,9.3,6.7L9.3,6.7z M9.3,6.7C9.1,6.6,9,6.6,8.8,6.6
			c-0.1,0-0.2,0-0.4,0.1c-0.1,0-0.2,0.1-0.4,0.2C7.9,7,7.9,7.1,7.8,7.3C7.7,7.5,7.7,7.8,7.7,8.1c0,0.5,0.1,0.8,0.3,1.1
			s0.4,0.4,0.8,0.4c0.1,0,0.2,0,0.3,0c0.1,0,0.2-0.1,0.3-0.1c0.1-0.1,0.2-0.1,0.2-0.2s0.1-0.1,0.2-0.2V6.9C9.6,6.8,9.4,6.7,9.3,6.7
			L9.3,6.7z M9.3,6.7C9.1,6.6,9,6.6,8.8,6.6c-0.1,0-0.2,0-0.4,0.1c-0.1,0-0.2,0.1-0.4,0.2C7.9,7,7.9,7.1,7.8,7.3
			C7.7,7.5,7.7,7.8,7.7,8.1c0,0.5,0.1,0.8,0.3,1.1s0.4,0.4,0.8,0.4c0.1,0,0.2,0,0.3,0c0.1,0,0.2-0.1,0.3-0.1
			c0.1-0.1,0.2-0.1,0.2-0.2s0.1-0.1,0.2-0.2V6.9C9.6,6.8,9.4,6.7,9.3,6.7L9.3,6.7z M9.3,6.7C9.1,6.6,9,6.6,8.8,6.6
			c-0.1,0-0.2,0-0.4,0.1c-0.1,0-0.2,0.1-0.4,0.2C7.9,7,7.9,7.1,7.8,7.3C7.7,7.5,7.7,7.8,7.7,8.1c0,0.5,0.1,0.8,0.3,1.1
			s0.4,0.4,0.8,0.4c0.1,0,0.2,0,0.3,0c0.1,0,0.2-0.1,0.3-0.1c0.1-0.1,0.2-0.1,0.2-0.2s0.1-0.1,0.2-0.2V6.9C9.6,6.8,9.4,6.7,9.3,6.7
			L9.3,6.7z M9.3,6.7C9.1,6.6,9,6.6,8.8,6.6c-0.1,0-0.2,0-0.4,0.1c-0.1,0-0.2,0.1-0.4,0.2C7.9,7,7.9,7.1,7.8,7.3
			C7.7,7.5,7.7,7.8,7.7,8.1c0,0.5,0.1,0.8,0.3,1.1s0.4,0.4,0.8,0.4c0.1,0,0.2,0,0.3,0c0.1,0,0.2-0.1,0.3-0.1
			c0.1-0.1,0.2-0.1,0.2-0.2s0.1-0.1,0.2-0.2V6.9C9.6,6.8,9.4,6.7,9.3,6.7L9.3,6.7z M9.3,6.7C9.1,6.6,9,6.6,8.8,6.6
			c-0.1,0-0.2,0-0.4,0.1c-0.1,0-0.2,0.1-0.4,0.2C7.9,7,7.9,7.1,7.8,7.3C7.7,7.5,7.7,7.8,7.7,8.1c0,0.5,0.1,0.8,0.3,1.1
			s0.4,0.4,0.8,0.4c0.1,0,0.2,0,0.3,0c0.1,0,0.2-0.1,0.3-0.1c0.1-0.1,0.2-0.1,0.2-0.2s0.1-0.1,0.2-0.2V6.9C9.6,6.8,9.4,6.7,9.3,6.7
			L9.3,6.7z M9.3,6.7C9.1,6.6,9,6.6,8.8,6.6c-0.1,0-0.2,0-0.4,0.1c-0.1,0-0.2,0.1-0.4,0.2C7.9,7,7.9,7.1,7.8,7.3
			C7.7,7.5,7.7,7.8,7.7,8.1c0,0.5,0.1,0.8,0.3,1.1s0.4,0.4,0.8,0.4c0.1,0,0.2,0,0.3,0c0.1,0,0.2-0.1,0.3-0.1
			c0.1-0.1,0.2-0.1,0.2-0.2s0.1-0.1,0.2-0.2V6.9C9.6,6.8,9.4,6.7,9.3,6.7L9.3,6.7z M9.3,6.7C9.1,6.6,9,6.6,8.8,6.6
			c-0.1,0-0.2,0-0.4,0.1c-0.1,0-0.2,0.1-0.4,0.2C7.9,7,7.9,7.1,7.8,7.3C7.7,7.5,7.7,7.8,7.7,8.1c0,0.5,0.1,0.8,0.3,1.1
			s0.4,0.4,0.8,0.4c0.1,0,0.2,0,0.3,0c0.1,0,0.2-0.1,0.3-0.1c0.1-0.1,0.2-0.1,0.2-0.2s0.1-0.1,0.2-0.2V6.9C9.6,6.8,9.4,6.7,9.3,6.7
			L9.3,6.7z M9.3,6.7C9.1,6.6,9,6.6,8.8,6.6c-0.1,0-0.2,0-0.4,0.1c-0.1,0-0.2,0.1-0.4,0.2C7.9,7,7.9,7.1,7.8,7.3
			C7.7,7.5,7.7,7.8,7.7,8.1c0,0.5,0.1,0.8,0.3,1.1s0.4,0.4,0.8,0.4c0.1,0,0.2,0,0.3,0c0.1,0,0.2-0.1,0.3-0.1
			c0.1-0.1,0.2-0.1,0.2-0.2s0.1-0.1,0.2-0.2V6.9C9.6,6.8,9.4,6.7,9.3,6.7L9.3,6.7z M9.3,6.7C9.1,6.6,9,6.6,8.8,6.6
			c-0.1,0-0.2,0-0.4,0.1c-0.1,0-0.2,0.1-0.4,0.2C7.9,7,7.9,7.1,7.8,7.3C7.7,7.5,7.7,7.8,7.7,8.1c0,0.5,0.1,0.8,0.3,1.1
			s0.4,0.4,0.8,0.4c0.1,0,0.2,0,0.3,0c0.1,0,0.2-0.1,0.3-0.1c0.1-0.1,0.2-0.1,0.2-0.2s0.1-0.1,0.2-0.2V6.9C9.6,6.8,9.4,6.7,9.3,6.7
			L9.3,6.7z M9.3,6.7C9.1,6.6,9,6.6,8.8,6.6c-0.1,0-0.2,0-0.4,0.1c-0.1,0-0.2,0.1-0.4,0.2C7.9,7,7.9,7.1,7.8,7.3
			C7.7,7.5,7.7,7.8,7.7,8.1c0,0.5,0.1,0.8,0.3,1.1s0.4,0.4,0.8,0.4c0.1,0,0.2,0,0.3,0c0.1,0,0.2-0.1,0.3-0.1
			c0.1-0.1,0.2-0.1,0.2-0.2s0.1-0.1,0.2-0.2V6.9C9.6,6.8,9.4,6.7,9.3,6.7L9.3,6.7z M9.3,6.7C9.1,6.6,9,6.6,8.8,6.6
			c-0.1,0-0.2,0-0.4,0.1c-0.1,0-0.2,0.1-0.4,0.2C7.9,7,7.9,7.1,7.8,7.3C7.7,7.5,7.7,7.8,7.7,8.1c0,0.5,0.1,0.8,0.3,1.1
			s0.4,0.4,0.8,0.4c0.1,0,0.2,0,0.3,0c0.1,0,0.2-0.1,0.3-0.1c0.1-0.1,0.2-0.1,0.2-0.2s0.1-0.1,0.2-0.2V6.9C9.6,6.8,9.4,6.7,9.3,6.7
			L9.3,6.7z M9.3,6.7C9.1,6.6,9,6.6,8.8,6.6c-0.1,0-0.2,0-0.4,0.1c-0.1,0-0.2,0.1-0.4,0.2C7.9,7,7.9,7.1,7.8,7.3
			C7.7,7.5,7.7,7.8,7.7,8.1c0,0.5,0.1,0.8,0.3,1.1s0.4,0.4,0.8,0.4c0.1,0,0.2,0,0.3,0c0.1,0,0.2-0.1,0.3-0.1
			c0.1-0.1,0.2-0.1,0.2-0.2s0.1-0.1,0.2-0.2V6.9C9.6,6.8,9.4,6.7,9.3,6.7L9.3,6.7z M9.3,6.7C9.1,6.6,9,6.6,8.8,6.6
			c-0.1,0-0.2,0-0.4,0.1c-0.1,0-0.2,0.1-0.4,0.2C7.9,7,7.9,7.1,7.8,7.3C7.7,7.5,7.7,7.8,7.7,8.1c0,0.5,0.1,0.8,0.3,1.1
			s0.4,0.4,0.8,0.4c0.1,0,0.2,0,0.3,0c0.1,0,0.2-0.1,0.3-0.1c0.1-0.1,0.2-0.1,0.2-0.2s0.1-0.1,0.2-0.2V6.9C9.6,6.8,9.4,6.7,9.3,6.7
			L9.3,6.7z M9.3,6.7C9.1,6.6,9,6.6,8.8,6.6c-0.1,0-0.2,0-0.4,0.1c-0.1,0-0.2,0.1-0.4,0.2C7.9,7,7.9,7.1,7.8,7.3
			C7.7,7.5,7.7,7.8,7.7,8.1c0,0.5,0.1,0.8,0.3,1.1s0.4,0.4,0.8,0.4c0.1,0,0.2,0,0.3,0c0.1,0,0.2-0.1,0.3-0.1
			c0.1-0.1,0.2-0.1,0.2-0.2s0.1-0.1,0.2-0.2V6.9C9.6,6.8,9.4,6.7,9.3,6.7L9.3,6.7z M9.3,6.7C9.1,6.6,9,6.6,8.8,6.6
			c-0.1,0-0.2,0-0.4,0.1c-0.1,0-0.2,0.1-0.4,0.2C7.9,7,7.9,7.1,7.8,7.3C7.7,7.5,7.7,7.8,7.7,8.1c0,0.5,0.1,0.8,0.3,1.1
			s0.4,0.4,0.8,0.4c0.1,0,0.2,0,0.3,0c0.1,0,0.2-0.1,0.3-0.1c0.1-0.1,0.2-0.1,0.2-0.2s0.1-0.1,0.2-0.2V6.9C9.6,6.8,9.4,6.7,9.3,6.7
			L9.3,6.7z M9.3,6.7C9.1,6.6,9,6.6,8.8,6.6c-0.1,0-0.2,0-0.4,0.1c-0.1,0-0.2,0.1-0.4,0.2C7.9,7,7.9,7.1,7.8,7.3
			C7.7,7.5,7.7,7.8,7.7,8.1c0,0.5,0.1,0.8,0.3,1.1s0.4,0.4,0.8,0.4c0.1,0,0.2,0,0.3,0c0.1,0,0.2-0.1,0.3-0.1
			c0.1-0.1,0.2-0.1,0.2-0.2s0.1-0.1,0.2-0.2V6.9C9.6,6.8,9.4,6.7,9.3,6.7L9.3,6.7z M9.3,6.7C9.1,6.6,9,6.6,8.8,6.6
			c-0.1,0-0.2,0-0.4,0.1c-0.1,0-0.2,0.1-0.4,0.2C7.9,7,7.9,7.1,7.8,7.3C7.7,7.5,7.7,7.8,7.7,8.1c0,0.5,0.1,0.8,0.3,1.1
			s0.4,0.4,0.8,0.4c0.1,0,0.2,0,0.3,0c0.1,0,0.2-0.1,0.3-0.1c0.1-0.1,0.2-0.1,0.2-0.2s0.1-0.1,0.2-0.2V6.9C9.6,6.8,9.4,6.7,9.3,6.7
			L9.3,6.7z M9.3,6.7C9.1,6.6,9,6.6,8.8,6.6c-0.1,0-0.2,0-0.4,0.1c-0.1,0-0.2,0.1-0.4,0.2C7.9,7,7.9,7.1,7.8,7.3
			C7.7,7.5,7.7,7.8,7.7,8.1c0,0.5,0.1,0.8,0.3,1.1s0.4,0.4,0.8,0.4c0.1,0,0.2,0,0.3,0c0.1,0,0.2-0.1,0.3-0.1
			c0.1-0.1,0.2-0.1,0.2-0.2s0.1-0.1,0.2-0.2V6.9C9.6,6.8,9.4,6.7,9.3,6.7L9.3,6.7z M9.3,6.7C9.1,6.6,9,6.6,8.8,6.6
			c-0.1,0-0.2,0-0.4,0.1c-0.1,0-0.2,0.1-0.4,0.2C7.9,7,7.9,7.1,7.8,7.3C7.7,7.5,7.7,7.8,7.7,8.1c0,0.5,0.1,0.8,0.3,1.1
			s0.4,0.4,0.8,0.4c0.1,0,0.2,0,0.3,0c0.1,0,0.2-0.1,0.3-0.1c0.1-0.1,0.2-0.1,0.2-0.2s0.1-0.1,0.2-0.2V6.9C9.6,6.8,9.4,6.7,9.3,6.7
			L9.3,6.7z"/>
	</g>
</g>
</svg>
