<?xml version="1.0" encoding="UTF-8"?><svg xmlns="http://www.w3.org/2000/svg" xmlns:xlink="http://www.w3.org/1999/xlink" viewBox="0 0 15.03 15.03"><defs><style>.f{fill:url(#d);}.g{fill:url(#e);}</style><linearGradient id="d" x1="6.86" y1="8.2" x2="11.46" y2="8.2" gradientTransform="matrix(1, 0, 0, 1, 0, 0)" gradientUnits="userSpaceOnUse"><stop offset="0" stop-color="#2f1cef"/><stop offset="1" stop-color="#4933fd"/></linearGradient><linearGradient id="e" x1="0" y1="7.52" x2="15.03" y2="7.52" xlink:href="#d"/></defs><g id="a"/><g id="b"><g id="c"><g><path class="f" d="M10.79,6.72c-.93-.84-2.46-.8-3.34,.1-.72,.74-.78,1.84-.12,2.64,.47,.57,1.1,.82,1.68,.83,.64,0,1.08-.12,1.49-.39,1.16-.75,1.29-2.27,.29-3.18Zm-.96,2.63c-.2,.08-.4,.12-.62,.12-.42,0-.78-.14-1.08-.44-.54-.54-.5-1.36,.08-1.86,.57-.49,1.48-.48,2.04,.03,.72,.66,.5,1.77-.42,2.15Z"/><path class="g" d="M10.74,0H4.3C1.92,0,0,1.92,0,4.3v6.44c0,2.37,1.92,4.3,4.3,4.3h6.44c2.37,0,4.3-1.92,4.3-4.3V4.3c0-2.37-1.92-4.3-4.3-4.3Zm.72,11.21c-.78,.56-1.68,.78-2.64,.7-1.21-.11-2.19-.63-2.88-1.63-.32-.47-.52-.99-.52-1.57,0-.08,.01-.17,.02-.25-.04-.02-.05,.02-.08,.03-.66,.54-1.32,1.08-1.98,1.62-.23,.18-.47,.31-.77,.26-.4-.05-.61-.39-.49-.77,.06-.22,.2-.38,.38-.52,.69-.53,1.39-1.06,2.07-1.59,.56-.43,1.12-.86,1.68-1.29,.03-.02,.07-.04,.08-.08-.04-.03-.09-.02-.13-.02-.64,0-1.29,0-1.93,0-.11,0-.23,0-.34-.05-.27-.11-.37-.39-.22-.64,.17-.28,.43-.39,.75-.39,.46,0,.91,0,1.37,0h2.73s.09,.01,.13-.01c-.01-.05-.05-.06-.08-.09-.4-.33-.81-.66-1.21-.98,0,0,0,0,0,0-.4-.29-.2-.66,.13-.78,.25-.09,.49-.08,.7,.08,1.16,.89,2.33,1.77,3.47,2.68,.83,.67,1.27,1.55,1.24,2.63-.03,1.13-.56,2.01-1.48,2.66Z"/></g></g></g></svg>