<?xml version="1.0" encoding="utf-8"?>
<!-- Generator: Adobe Illustrator 27.3.1, SVG Export Plug-In . SVG Version: 6.00 Build 0)  -->
<svg version="1.1" id="Layer_1" xmlns="http://www.w3.org/2000/svg" xmlns:xlink="http://www.w3.org/1999/xlink" x="0px" y="0px"
	 viewBox="0 0 15 15" style="enable-background:new 0 0 15 15;" xml:space="preserve">
<style type="text/css">
	.st0{fill:#3B97D3;}
	.st1{fill:#3498DB;}
</style>
<g id="a">
</g>
<g id="b">
	<g id="c">
		<g>
			<path class="st0" d="M10.8,6.7C9.9,5.9,8.3,5.9,7.4,6.8C6.7,7.6,6.7,8.7,7.3,9.5C7.8,10,8.4,10.3,9,10.3c0.6,0,1.1-0.1,1.5-0.4
				C11.7,9.2,11.8,7.6,10.8,6.7z M9.8,9.4C9.6,9.4,9.4,9.5,9.2,9.5C8.8,9.5,8.4,9.3,8.1,9C7.6,8.5,7.6,7.7,8.2,7.2
				c0.6-0.5,1.5-0.5,2,0C11,7.9,10.8,9,9.8,9.4z"/>
			<path class="st1" d="M10.7,0H4.3C1.9,0,0,1.9,0,4.3v6.4C0,13.1,1.9,15,4.3,15h6.4c2.4,0,4.3-1.9,4.3-4.3V4.3
				C15,1.9,13.1,0,10.7,0z M11.5,11.2c-0.8,0.6-1.7,0.8-2.6,0.7c-1.2-0.1-2.2-0.6-2.9-1.6c-0.3-0.5-0.5-1-0.5-1.6c0-0.1,0-0.2,0-0.2
				c0,0-0.1,0-0.1,0C4.7,9,4,9.6,3.4,10.1c-0.2,0.2-0.5,0.3-0.8,0.3C2.2,10.3,2,10,2.1,9.6c0.1-0.2,0.2-0.4,0.4-0.5
				C3.2,8.6,3.9,8,4.6,7.5c0.6-0.4,1.1-0.9,1.7-1.3c0,0,0.1,0,0.1-0.1c0,0-0.1,0-0.1,0c-0.6,0-1.3,0-1.9,0c-0.1,0-0.2,0-0.3-0.1
				C3.7,5.9,3.6,5.7,3.7,5.4C3.9,5.1,4.1,5,4.5,5c0.5,0,0.9,0,1.4,0h2.7c0,0,0.1,0,0.1,0C8.7,5,8.6,5,8.6,4.9
				c-0.4-0.3-0.8-0.7-1.2-1l0,0C7,3.7,7.2,3.3,7.5,3.2C7.8,3.1,8,3.1,8.2,3.2c1.2,0.9,2.3,1.8,3.5,2.7c0.8,0.7,1.3,1.5,1.2,2.6
				C12.9,9.7,12.4,10.6,11.5,11.2z"/>
		</g>
	</g>
</g>
</svg>
