<?xml version="1.0" encoding="utf-8"?>
<!-- Generator: Adobe Illustrator 27.3.1, SVG Export Plug-In . SVG Version: 6.00 Build 0)  -->
<svg version="1.1" id="Layer_1" xmlns="http://www.w3.org/2000/svg" xmlns:xlink="http://www.w3.org/1999/xlink" x="0px" y="0px"
	 viewBox="0 0 15 15" style="enable-background:new 0 0 15 15;" xml:space="preserve">
<style type="text/css">
	.st0{fill:#3498DB;}
	.st1{fill:#3B97D3;}
</style>
<g id="a">
</g>
<g id="b">
	<g id="c">
		<g>
			<path class="st0" d="M10.5,6.1c-0.1,0.2-0.2,0.4-0.3,0.6l-0.1,0.2c-0.1,0.3-0.3,0.7-0.5,1C9.2,8.5,8.7,8.8,8.1,8.8
				c-0.1,0-0.2,0-0.2,0C7.2,8.7,6.7,8.3,6.4,7.7S6.2,6.5,6.7,5.9c0.2-0.3,0.5-0.5,0.9-0.7C7.7,5.2,7.9,5.1,8,5
				c0.1,0,0.2-0.1,0.2-0.1h0c0.2-0.1,0.3-0.2,0.5-0.3c0.1,0,0.1-0.1,0.1-0.1c0,0,0,0-0.1,0C8.5,4.7,8.2,4.7,8,4.8
				C7.4,4.9,6.8,5,6.3,5.2C6,5.3,5.8,5.4,5.6,5.6l0,0.1c0,0.1,0,0.1,0,0.1C5.3,6.6,5.3,7.3,5.7,8c0.8,1.5,2.5,2.1,4.1,1.4l0.1,0
				c0.3-0.7,0.6-1.5,0.6-2.6v0c0-0.2,0.1-0.5,0.1-0.8C10.5,6,10.5,6.1,10.5,6.1z M10.5,6.1c-0.1,0.2-0.2,0.4-0.3,0.6l-0.1,0.2
				c-0.1,0.3-0.3,0.7-0.5,1C9.2,8.5,8.7,8.8,8.1,8.8c-0.1,0-0.2,0-0.2,0C7.2,8.7,6.7,8.3,6.4,7.7S6.2,6.5,6.7,5.9
				c0.2-0.3,0.5-0.5,0.9-0.7C7.7,5.2,7.9,5.1,8,5c0.1,0,0.2-0.1,0.2-0.1h0c0.2-0.1,0.3-0.2,0.5-0.3c0.1,0,0.1-0.1,0.1-0.1
				c0,0,0,0-0.1,0C8.5,4.7,8.2,4.7,8,4.8C7.4,4.9,6.8,5,6.3,5.2C6,5.3,5.8,5.4,5.6,5.6l0,0.1c0,0.1,0,0.1,0,0.1
				C5.3,6.6,5.3,7.3,5.7,8c0.8,1.5,2.5,2.1,4.1,1.4l0.1,0c0.3-0.7,0.6-1.5,0.6-2.6v0c0-0.2,0.1-0.5,0.1-0.8
				C10.5,6,10.5,6.1,10.5,6.1z M10.5,6.1c-0.1,0.2-0.2,0.4-0.3,0.6l-0.1,0.2c-0.1,0.3-0.3,0.7-0.5,1C9.2,8.5,8.7,8.8,8.1,8.8
				c-0.1,0-0.2,0-0.2,0C7.2,8.7,6.7,8.3,6.4,7.7S6.2,6.5,6.7,5.9c0.2-0.3,0.5-0.5,0.9-0.7C7.7,5.2,7.9,5.1,8,5
				c0.1,0,0.2-0.1,0.2-0.1h0c0.2-0.1,0.3-0.2,0.5-0.3c0.1,0,0.1-0.1,0.1-0.1c0,0,0,0-0.1,0C8.5,4.7,8.2,4.7,8,4.8
				C7.4,4.9,6.8,5,6.3,5.2C6,5.3,5.8,5.4,5.6,5.6l0,0.1c0,0.1,0,0.1,0,0.1C5.3,6.6,5.3,7.3,5.7,8c0.8,1.5,2.5,2.1,4.1,1.4l0.1,0
				c0.3-0.7,0.6-1.5,0.6-2.6v0c0-0.2,0.1-0.5,0.1-0.8C10.5,6,10.5,6.1,10.5,6.1z M10.5,6.1c-0.1,0.2-0.2,0.4-0.3,0.6l-0.1,0.2
				c-0.1,0.3-0.3,0.7-0.5,1C9.2,8.5,8.7,8.8,8.1,8.8c-0.1,0-0.2,0-0.2,0C7.2,8.7,6.7,8.3,6.4,7.7S6.2,6.5,6.7,5.9
				c0.2-0.3,0.5-0.5,0.9-0.7C7.7,5.2,7.9,5.1,8,5c0.1,0,0.2-0.1,0.2-0.1h0c0.2-0.1,0.3-0.2,0.5-0.3c0.1,0,0.1-0.1,0.1-0.1
				c0,0,0,0-0.1,0C8.5,4.7,8.2,4.7,8,4.8C7.4,4.9,6.8,5,6.3,5.2C6,5.3,5.8,5.4,5.6,5.6l0,0.1c0,0.1,0,0.1,0,0.1
				C5.3,6.6,5.3,7.3,5.7,8c0.8,1.5,2.5,2.1,4.1,1.4l0.1,0c0.3-0.7,0.6-1.5,0.6-2.6v0c0-0.2,0.1-0.5,0.1-0.8
				C10.5,6,10.5,6.1,10.5,6.1z M10.5,6.1c-0.1,0.2-0.2,0.4-0.3,0.6l-0.1,0.2c-0.1,0.3-0.3,0.7-0.5,1C9.2,8.5,8.7,8.8,8.1,8.8
				c-0.1,0-0.2,0-0.2,0C7.2,8.7,6.7,8.3,6.4,7.7S6.2,6.5,6.7,5.9c0.2-0.3,0.5-0.5,0.9-0.7C7.7,5.2,7.9,5.1,8,5
				c0.1,0,0.2-0.1,0.2-0.1h0c0.2-0.1,0.3-0.2,0.5-0.3c0.1,0,0.1-0.1,0.1-0.1c0,0,0,0-0.1,0C8.5,4.7,8.2,4.7,8,4.8
				C7.4,4.9,6.8,5,6.3,5.2C6,5.3,5.8,5.4,5.6,5.6l0,0.1c0,0.1,0,0.1,0,0.1C5.3,6.6,5.3,7.3,5.7,8c0.8,1.5,2.5,2.1,4.1,1.4l0.1,0
				c0.3-0.7,0.6-1.5,0.6-2.6v0c0-0.2,0.1-0.5,0.1-0.8C10.5,6,10.5,6.1,10.5,6.1z M10.5,6.1c-0.1,0.2-0.2,0.4-0.3,0.6l-0.1,0.2
				c-0.1,0.3-0.3,0.7-0.5,1C9.2,8.5,8.7,8.8,8.1,8.8c-0.1,0-0.2,0-0.2,0C7.2,8.7,6.7,8.3,6.4,7.7S6.2,6.5,6.7,5.9
				c0.2-0.3,0.5-0.5,0.9-0.7C7.7,5.2,7.9,5.1,8,5c0.1,0,0.2-0.1,0.2-0.1h0c0.2-0.1,0.3-0.2,0.5-0.3c0.1,0,0.1-0.1,0.1-0.1
				c0,0,0,0-0.1,0C8.5,4.7,8.2,4.7,8,4.8C7.4,4.9,6.8,5,6.3,5.2C6,5.3,5.8,5.4,5.6,5.6l0,0.1c0,0.1,0,0.1,0,0.1
				C5.3,6.6,5.3,7.3,5.7,8c0.8,1.5,2.5,2.1,4.1,1.4l0.1,0c0.3-0.7,0.6-1.5,0.6-2.6v0c0-0.2,0.1-0.5,0.1-0.8
				C10.5,6,10.5,6.1,10.5,6.1z M10.5,6.1c-0.1,0.2-0.2,0.4-0.3,0.6l-0.1,0.2c-0.1,0.3-0.3,0.7-0.5,1C9.2,8.5,8.7,8.8,8.1,8.8
				c-0.1,0-0.2,0-0.2,0C7.2,8.7,6.7,8.3,6.4,7.7S6.2,6.5,6.7,5.9c0.2-0.3,0.5-0.5,0.9-0.7C7.7,5.2,7.9,5.1,8,5
				c0.1,0,0.2-0.1,0.2-0.1h0c0.2-0.1,0.3-0.2,0.5-0.3c0.1,0,0.1-0.1,0.1-0.1c0,0,0,0-0.1,0C8.5,4.7,8.2,4.7,8,4.8
				C7.4,4.9,6.8,5,6.3,5.2C6,5.3,5.8,5.4,5.6,5.6l0,0.1c0,0.1,0,0.1,0,0.1C5.3,6.6,5.3,7.3,5.7,8c0.8,1.5,2.5,2.1,4.1,1.4l0.1,0
				c0.3-0.7,0.6-1.5,0.6-2.6v0c0-0.2,0.1-0.5,0.1-0.8C10.5,6,10.5,6.1,10.5,6.1z M10.5,6.1c-0.1,0.2-0.2,0.4-0.3,0.6l-0.1,0.2
				c-0.1,0.3-0.3,0.7-0.5,1C9.2,8.5,8.7,8.8,8.1,8.8c-0.1,0-0.2,0-0.2,0C7.2,8.7,6.7,8.3,6.4,7.7S6.2,6.5,6.7,5.9
				c0.2-0.3,0.5-0.5,0.9-0.7C7.7,5.2,7.9,5.1,8,5c0.1,0,0.2-0.1,0.2-0.1h0c0.2-0.1,0.3-0.2,0.5-0.3c0.1,0,0.1-0.1,0.1-0.1
				c0,0,0,0-0.1,0C8.5,4.7,8.2,4.7,8,4.8C7.4,4.9,6.8,5,6.3,5.2C6,5.3,5.8,5.4,5.6,5.6l0,0.1c0,0.1,0,0.1,0,0.1
				C5.3,6.6,5.3,7.3,5.7,8c0.8,1.5,2.5,2.1,4.1,1.4l0.1,0c0.3-0.7,0.6-1.5,0.6-2.6v0c0-0.2,0.1-0.5,0.1-0.8
				C10.5,6,10.5,6.1,10.5,6.1z M10.5,6.1c-0.1,0.2-0.2,0.4-0.3,0.6l-0.1,0.2c-0.1,0.3-0.3,0.7-0.5,1C9.2,8.5,8.7,8.8,8.1,8.8
				c-0.1,0-0.2,0-0.2,0C7.2,8.7,6.7,8.3,6.4,7.7S6.2,6.5,6.7,5.9c0.2-0.3,0.5-0.5,0.9-0.7C7.7,5.2,7.9,5.1,8,5
				c0.1,0,0.2-0.1,0.2-0.1h0c0.2-0.1,0.3-0.2,0.5-0.3c0.1,0,0.1-0.1,0.1-0.1c0,0,0,0-0.1,0C8.5,4.7,8.2,4.7,8,4.8
				C7.4,4.9,6.8,5,6.3,5.2C6,5.3,5.8,5.4,5.6,5.6l0,0.1c0,0.1,0,0.1,0,0.1C5.3,6.6,5.3,7.3,5.7,8c0.8,1.5,2.5,2.1,4.1,1.4l0.1,0
				c0.3-0.7,0.6-1.5,0.6-2.6v0c0-0.2,0.1-0.5,0.1-0.8C10.5,6,10.5,6.1,10.5,6.1z M10.5,6.1c-0.1,0.2-0.2,0.4-0.3,0.6l-0.1,0.2
				c-0.1,0.3-0.3,0.7-0.5,1C9.2,8.5,8.7,8.8,8.1,8.8c-0.1,0-0.2,0-0.2,0C7.2,8.7,6.7,8.3,6.4,7.7S6.2,6.5,6.7,5.9
				c0.2-0.3,0.5-0.5,0.9-0.7C7.7,5.2,7.9,5.1,8,5c0.1,0,0.2-0.1,0.2-0.1h0c0.2-0.1,0.3-0.2,0.5-0.3c0.1,0,0.1-0.1,0.1-0.1
				c0,0,0,0-0.1,0C8.5,4.7,8.2,4.7,8,4.8C7.4,4.9,6.8,5,6.3,5.2C6,5.3,5.8,5.4,5.6,5.6l0,0.1c0,0.1,0,0.1,0,0.1
				C5.3,6.6,5.3,7.3,5.7,8c0.8,1.5,2.5,2.1,4.1,1.4l0.1,0c0.3-0.7,0.6-1.5,0.6-2.6v0c0-0.2,0.1-0.5,0.1-0.8
				C10.5,6,10.5,6.1,10.5,6.1z M10.5,6.1c-0.1,0.2-0.2,0.4-0.3,0.6l-0.1,0.2c-0.1,0.3-0.3,0.7-0.5,1C9.2,8.5,8.7,8.8,8.1,8.8
				c-0.1,0-0.2,0-0.2,0C7.2,8.7,6.7,8.3,6.4,7.7S6.2,6.5,6.7,5.9c0.2-0.3,0.5-0.5,0.9-0.7C7.7,5.2,7.9,5.1,8,5
				c0.1,0,0.2-0.1,0.2-0.1h0c0.2-0.1,0.3-0.2,0.5-0.3c0.1,0,0.1-0.1,0.1-0.1c0,0,0,0-0.1,0C8.5,4.7,8.2,4.7,8,4.8
				C7.4,4.9,6.8,5,6.3,5.2C6,5.3,5.8,5.4,5.6,5.6l0,0.1c0,0.1,0,0.1,0,0.1C5.3,6.6,5.3,7.3,5.7,8c0.8,1.5,2.5,2.1,4.1,1.4l0.1,0
				c0.3-0.7,0.6-1.5,0.6-2.6v0c0-0.2,0.1-0.5,0.1-0.8C10.5,6,10.5,6.1,10.5,6.1z M10.5,6.1c-0.1,0.2-0.2,0.4-0.3,0.6l-0.1,0.2
				c-0.1,0.3-0.3,0.7-0.5,1C9.2,8.5,8.7,8.8,8.1,8.8c-0.1,0-0.2,0-0.2,0C7.2,8.7,6.7,8.3,6.4,7.7S6.2,6.5,6.7,5.9
				c0.2-0.3,0.5-0.5,0.9-0.7C7.7,5.2,7.9,5.1,8,5c0.1,0,0.2-0.1,0.2-0.1h0c0.2-0.1,0.3-0.2,0.5-0.3c0.1,0,0.1-0.1,0.1-0.1
				c0,0,0,0-0.1,0C8.5,4.7,8.2,4.7,8,4.8C7.4,4.9,6.8,5,6.3,5.2C6,5.3,5.8,5.4,5.6,5.6l0,0.1c0,0.1,0,0.1,0,0.1
				C5.3,6.6,5.3,7.3,5.7,8c0.8,1.5,2.5,2.1,4.1,1.4l0.1,0c0.3-0.7,0.6-1.5,0.6-2.6v0c0-0.2,0.1-0.5,0.1-0.8
				C10.5,6,10.5,6.1,10.5,6.1z M10.5,6.1c-0.1,0.2-0.2,0.4-0.3,0.6l-0.1,0.2c-0.1,0.3-0.3,0.7-0.5,1C9.2,8.5,8.7,8.8,8.1,8.8
				c-0.1,0-0.2,0-0.2,0C7.2,8.7,6.7,8.3,6.4,7.7S6.2,6.5,6.7,5.9c0.2-0.3,0.5-0.5,0.9-0.7C7.7,5.2,7.9,5.1,8,5
				c0.1,0,0.2-0.1,0.2-0.1h0c0.2-0.1,0.3-0.2,0.5-0.3c0.1,0,0.1-0.1,0.1-0.1c0,0,0,0-0.1,0C8.5,4.7,8.2,4.7,8,4.8
				C7.4,4.9,6.8,5,6.3,5.2C6,5.3,5.8,5.4,5.6,5.6l0,0.1c0,0.1,0,0.1,0,0.1C5.3,6.6,5.3,7.3,5.7,8c0.8,1.5,2.5,2.1,4.1,1.4l0.1,0
				c0.3-0.7,0.6-1.5,0.6-2.6v0c0-0.2,0.1-0.5,0.1-0.8C10.5,6,10.5,6.1,10.5,6.1z M10.5,6.1c-0.1,0.2-0.2,0.4-0.3,0.6l-0.1,0.2
				c-0.1,0.3-0.3,0.7-0.5,1C9.2,8.5,8.7,8.8,8.1,8.8c-0.1,0-0.2,0-0.2,0C7.2,8.7,6.7,8.3,6.4,7.7S6.2,6.5,6.7,5.9
				c0.2-0.3,0.5-0.5,0.9-0.7C7.7,5.2,7.9,5.1,8,5c0.1,0,0.2-0.1,0.2-0.1h0c0.2-0.1,0.3-0.2,0.5-0.3c0.1,0,0.1-0.1,0.1-0.1
				c0,0,0,0-0.1,0C8.5,4.7,8.2,4.7,8,4.8C7.4,4.9,6.8,5,6.3,5.2C6,5.3,5.8,5.4,5.6,5.6l0,0.1c0,0.1,0,0.1,0,0.1
				C5.3,6.6,5.3,7.3,5.7,8c0.8,1.5,2.5,2.1,4.1,1.4l0.1,0c0.3-0.7,0.6-1.5,0.6-2.6v0c0-0.2,0.1-0.5,0.1-0.8
				C10.5,6,10.5,6.1,10.5,6.1z M10.5,6.1c-0.1,0.2-0.2,0.4-0.3,0.6l-0.1,0.2c-0.1,0.3-0.3,0.7-0.5,1C9.2,8.5,8.7,8.8,8.1,8.8
				c-0.1,0-0.2,0-0.2,0C7.2,8.7,6.7,8.3,6.4,7.7S6.2,6.5,6.7,5.9c0.2-0.3,0.5-0.5,0.9-0.7C7.7,5.2,7.9,5.1,8,5
				c0.1,0,0.2-0.1,0.2-0.1h0c0.2-0.1,0.3-0.2,0.5-0.3c0.1,0,0.1-0.1,0.1-0.1c0,0,0,0-0.1,0C8.5,4.7,8.2,4.7,8,4.8
				C7.4,4.9,6.8,5,6.3,5.2C6,5.3,5.8,5.4,5.6,5.6l0,0.1c0,0.1,0,0.1,0,0.1C5.3,6.6,5.3,7.3,5.7,8c0.8,1.5,2.5,2.1,4.1,1.4l0.1,0
				c0.3-0.7,0.6-1.5,0.6-2.6v0c0-0.2,0.1-0.5,0.1-0.8C10.5,6,10.5,6.1,10.5,6.1z M10.5,6.1c-0.1,0.2-0.2,0.4-0.3,0.6l-0.1,0.2
				c-0.1,0.3-0.3,0.7-0.5,1C9.2,8.5,8.7,8.8,8.1,8.8c-0.1,0-0.2,0-0.2,0C7.2,8.7,6.7,8.3,6.4,7.7S6.2,6.5,6.7,5.9
				c0.2-0.3,0.5-0.5,0.9-0.7C7.7,5.2,7.9,5.1,8,5c0.1,0,0.2-0.1,0.2-0.1h0c0.2-0.1,0.3-0.2,0.5-0.3c0.1,0,0.1-0.1,0.1-0.1
				c0,0,0,0-0.1,0C8.5,4.7,8.2,4.7,8,4.8C7.4,4.9,6.8,5,6.3,5.2C6,5.3,5.8,5.4,5.6,5.6l0,0.1c0,0.1,0,0.1,0,0.1
				C5.3,6.6,5.3,7.3,5.7,8c0.8,1.5,2.5,2.1,4.1,1.4l0.1,0c0.3-0.7,0.6-1.5,0.6-2.6v0c0-0.2,0.1-0.5,0.1-0.8
				C10.5,6,10.5,6.1,10.5,6.1z M10.5,6.1c-0.1,0.2-0.2,0.4-0.3,0.6l-0.1,0.2c-0.1,0.3-0.3,0.7-0.5,1C9.2,8.5,8.7,8.8,8.1,8.8
				c-0.1,0-0.2,0-0.2,0C7.2,8.7,6.7,8.3,6.4,7.7S6.2,6.5,6.7,5.9c0.2-0.3,0.5-0.5,0.9-0.7C7.7,5.2,7.9,5.1,8,5
				c0.1,0,0.2-0.1,0.2-0.1h0c0.2-0.1,0.3-0.2,0.5-0.3c0.1,0,0.1-0.1,0.1-0.1c0,0,0,0-0.1,0C8.5,4.7,8.2,4.7,8,4.8
				C7.4,4.9,6.8,5,6.3,5.2C6,5.3,5.8,5.4,5.6,5.6l0,0.1c0,0.1,0,0.1,0,0.1C5.3,6.6,5.3,7.3,5.7,8c0.8,1.5,2.5,2.1,4.1,1.4l0.1,0
				c0.3-0.7,0.6-1.5,0.6-2.6v0c0-0.2,0.1-0.5,0.1-0.8C10.5,6,10.5,6.1,10.5,6.1z M10.5,6.1c-0.1,0.2-0.2,0.4-0.3,0.6l-0.1,0.2
				c-0.1,0.3-0.3,0.7-0.5,1C9.2,8.5,8.7,8.8,8.1,8.8c-0.1,0-0.2,0-0.2,0C7.2,8.7,6.7,8.3,6.4,7.7S6.2,6.5,6.7,5.9
				c0.2-0.3,0.5-0.5,0.9-0.7C7.7,5.2,7.9,5.1,8,5c0.1,0,0.2-0.1,0.2-0.1h0c0.2-0.1,0.3-0.2,0.5-0.3c0.1,0,0.1-0.1,0.1-0.1
				c0,0,0,0-0.1,0C8.5,4.7,8.2,4.7,8,4.8C7.4,4.9,6.8,5,6.3,5.2C6,5.3,5.8,5.4,5.6,5.6l0,0.1c0,0.1,0,0.1,0,0.1
				C5.3,6.6,5.3,7.3,5.7,8c0.8,1.5,2.5,2.1,4.1,1.4l0.1,0c0.3-0.7,0.6-1.5,0.6-2.6v0c0-0.2,0.1-0.5,0.1-0.8
				C10.5,6,10.5,6.1,10.5,6.1z M9.7,4c-0.1,0-0.2-0.1-0.3-0.1c0,0.1,0,0.2,0,0.2h0c0.7,0.2,1.2,0.7,1.6,1.4c0,0,0,0,0,0c0,0,0,0,0,0
				h0.1c0,0,0.1,0,0.2,0c0,0,0,0,0.1,0C11,4.8,10.5,4.3,9.7,4z M9.7,4c-0.1,0-0.2-0.1-0.3-0.1c0,0.1,0,0.2,0,0.2h0
				c0.7,0.2,1.2,0.7,1.6,1.4c0,0,0,0,0,0c0,0,0,0,0,0h0.1c0,0,0.1,0,0.2,0c0,0,0,0,0.1,0C11,4.8,10.5,4.3,9.7,4z M10.5,6.1
				c-0.1,0.2-0.2,0.4-0.3,0.6l-0.1,0.2c-0.1,0.3-0.3,0.7-0.5,1C9.2,8.5,8.7,8.8,8.1,8.8c-0.1,0-0.2,0-0.2,0C7.2,8.7,6.7,8.3,6.4,7.7
				S6.2,6.5,6.7,5.9c0.2-0.3,0.5-0.5,0.9-0.7C7.7,5.2,7.9,5.1,8,5c0.1,0,0.2-0.1,0.2-0.1h0c0.2-0.1,0.3-0.2,0.5-0.3
				c0.1,0,0.1-0.1,0.1-0.1c0,0,0,0-0.1,0C8.5,4.7,8.2,4.7,8,4.8C7.4,4.9,6.8,5,6.3,5.2C6,5.3,5.8,5.4,5.6,5.6l0,0.1
				c0,0.1,0,0.1,0,0.1C5.3,6.6,5.3,7.3,5.7,8c0.8,1.5,2.5,2.1,4.1,1.4l0.1,0c0.3-0.7,0.6-1.5,0.6-2.6v0c0-0.2,0.1-0.5,0.1-0.8
				C10.5,6,10.5,6.1,10.5,6.1z M10.5,6.1c-0.1,0.2-0.2,0.4-0.3,0.6l-0.1,0.2c-0.1,0.3-0.3,0.7-0.5,1C9.2,8.5,8.7,8.8,8.1,8.8
				c-0.1,0-0.2,0-0.2,0C7.2,8.7,6.7,8.3,6.4,7.7S6.2,6.5,6.7,5.9c0.2-0.3,0.5-0.5,0.9-0.7C7.7,5.2,7.9,5.1,8,5
				c0.1,0,0.2-0.1,0.2-0.1h0c0.2-0.1,0.3-0.2,0.5-0.3c0.1,0,0.1-0.1,0.1-0.1c0,0,0,0-0.1,0C8.5,4.7,8.2,4.7,8,4.8
				C7.4,4.9,6.8,5,6.3,5.2C6,5.3,5.8,5.4,5.6,5.6l0,0.1c0,0.1,0,0.1,0,0.1C5.3,6.6,5.3,7.3,5.7,8c0.8,1.5,2.5,2.1,4.1,1.4l0.1,0
				c0.3-0.7,0.6-1.5,0.6-2.6v0c0-0.2,0.1-0.5,0.1-0.8C10.5,6,10.5,6.1,10.5,6.1z M9.7,4c-0.1,0-0.2-0.1-0.3-0.1c0,0.1,0,0.2,0,0.2h0
				c0.7,0.2,1.2,0.7,1.6,1.4c0,0,0,0,0,0c0,0,0,0,0,0h0.1c0,0,0.1,0,0.2,0c0,0,0,0,0.1,0C11,4.8,10.5,4.3,9.7,4z M9.7,4
				c-0.1,0-0.2-0.1-0.3-0.1c0,0.1,0,0.2,0,0.2h0c0.7,0.2,1.2,0.7,1.6,1.4c0,0,0,0,0,0c0,0,0,0,0,0h0.1c0,0,0.1,0,0.2,0
				c0,0,0,0,0.1,0C11,4.8,10.5,4.3,9.7,4z M10.5,6.1c-0.1,0.2-0.2,0.4-0.3,0.6l-0.1,0.2c-0.1,0.3-0.3,0.7-0.5,1
				C9.2,8.5,8.7,8.8,8.1,8.8c-0.1,0-0.2,0-0.2,0C7.2,8.7,6.7,8.3,6.4,7.7S6.2,6.5,6.7,5.9c0.2-0.3,0.5-0.5,0.9-0.7
				C7.7,5.2,7.9,5.1,8,5c0.1,0,0.2-0.1,0.2-0.1h0c0.2-0.1,0.3-0.2,0.5-0.3c0.1,0,0.1-0.1,0.1-0.1c0,0,0,0-0.1,0
				C8.5,4.7,8.2,4.7,8,4.8C7.4,4.9,6.8,5,6.3,5.2C6,5.3,5.8,5.4,5.6,5.6l0,0.1c0,0.1,0,0.1,0,0.1C5.3,6.6,5.3,7.3,5.7,8
				c0.8,1.5,2.5,2.1,4.1,1.4l0.1,0c0.3-0.7,0.6-1.5,0.6-2.6v0c0-0.2,0.1-0.5,0.1-0.8C10.5,6,10.5,6.1,10.5,6.1z M10.5,6.1
				c-0.1,0.2-0.2,0.4-0.3,0.6l-0.1,0.2c-0.1,0.3-0.3,0.7-0.5,1C9.2,8.5,8.7,8.8,8.1,8.8c-0.1,0-0.2,0-0.2,0C7.2,8.7,6.7,8.3,6.4,7.7
				S6.2,6.5,6.7,5.9c0.2-0.3,0.5-0.5,0.9-0.7C7.7,5.2,7.9,5.1,8,5c0.1,0,0.2-0.1,0.2-0.1h0c0.2-0.1,0.3-0.2,0.5-0.3
				c0.1,0,0.1-0.1,0.1-0.1c0,0,0,0-0.1,0C8.5,4.7,8.2,4.7,8,4.8C7.4,4.9,6.8,5,6.3,5.2C6,5.3,5.8,5.4,5.6,5.6l0,0.1
				c0,0.1,0,0.1,0,0.1C5.3,6.6,5.3,7.3,5.7,8c0.8,1.5,2.5,2.1,4.1,1.4l0.1,0c0.3-0.7,0.6-1.5,0.6-2.6v0c0-0.2,0.1-0.5,0.1-0.8
				C10.5,6,10.5,6.1,10.5,6.1z M9.7,4c-0.1,0-0.2-0.1-0.3-0.1c0,0.1,0,0.2,0,0.2h0c0.7,0.2,1.2,0.7,1.6,1.4c0,0,0,0,0,0c0,0,0,0,0,0
				h0.1c0,0,0.1,0,0.2,0c0,0,0,0,0.1,0C11,4.8,10.5,4.3,9.7,4z M9.7,4c-0.1,0-0.2-0.1-0.3-0.1c0,0.1,0,0.2,0,0.2h0
				c0.7,0.2,1.2,0.7,1.6,1.4c0,0,0,0,0,0c0,0,0,0,0,0h0.1c0,0,0.1,0,0.2,0c0,0,0,0,0.1,0C11,4.8,10.5,4.3,9.7,4z M10.5,6.1
				c-0.1,0.2-0.2,0.4-0.3,0.6l-0.1,0.2c-0.1,0.3-0.3,0.7-0.5,1C9.2,8.5,8.7,8.8,8.1,8.8c-0.1,0-0.2,0-0.2,0C7.2,8.7,6.7,8.3,6.4,7.7
				S6.2,6.5,6.7,5.9c0.2-0.3,0.5-0.5,0.9-0.7C7.7,5.2,7.9,5.1,8,5c0.1,0,0.2-0.1,0.2-0.1h0c0.2-0.1,0.3-0.2,0.5-0.3
				c0.1,0,0.1-0.1,0.1-0.1c0,0,0,0-0.1,0C8.5,4.7,8.2,4.7,8,4.8C7.4,4.9,6.8,5,6.3,5.2C6,5.3,5.8,5.4,5.6,5.6l0,0.1
				c0,0.1,0,0.1,0,0.1C5.3,6.6,5.3,7.3,5.7,8c0.8,1.5,2.5,2.1,4.1,1.4l0.1,0c0.3-0.7,0.6-1.5,0.6-2.6v0c0-0.2,0.1-0.5,0.1-0.8
				C10.5,6,10.5,6.1,10.5,6.1z M10.5,6.1c-0.1,0.2-0.2,0.4-0.3,0.6l-0.1,0.2c-0.1,0.3-0.3,0.7-0.5,1C9.2,8.5,8.7,8.8,8.1,8.8
				c-0.1,0-0.2,0-0.2,0C7.2,8.7,6.7,8.3,6.4,7.7S6.2,6.5,6.7,5.9c0.2-0.3,0.5-0.5,0.9-0.7C7.7,5.2,7.9,5.1,8,5
				c0.1,0,0.2-0.1,0.2-0.1h0c0.2-0.1,0.3-0.2,0.5-0.3c0.1,0,0.1-0.1,0.1-0.1c0,0,0,0-0.1,0C8.5,4.7,8.2,4.7,8,4.8
				C7.4,4.9,6.8,5,6.3,5.2C6,5.3,5.8,5.4,5.6,5.6l0,0.1c0,0.1,0,0.1,0,0.1C5.3,6.6,5.3,7.3,5.7,8c0.8,1.5,2.5,2.1,4.1,1.4l0.1,0
				c0.3-0.7,0.6-1.5,0.6-2.6v0c0-0.2,0.1-0.5,0.1-0.8C10.5,6,10.5,6.1,10.5,6.1z M9.7,4c-0.1,0-0.2-0.1-0.3-0.1c0,0.1,0,0.2,0,0.2h0
				c0.7,0.2,1.2,0.7,1.6,1.4c0,0,0,0,0,0c0,0,0,0,0,0h0.1c0,0,0.1,0,0.2,0c0,0,0,0,0.1,0C11,4.8,10.5,4.3,9.7,4z M9.7,4
				c-0.1,0-0.2-0.1-0.3-0.1c0,0.1,0,0.2,0,0.2h0c0.7,0.2,1.2,0.7,1.6,1.4c0,0,0,0,0,0c0,0,0,0,0,0h0.1c0,0,0.1,0,0.2,0
				c0,0,0,0,0.1,0C11,4.8,10.5,4.3,9.7,4z M10.5,6.1c-0.1,0.2-0.2,0.4-0.3,0.6l-0.1,0.2c-0.1,0.3-0.3,0.7-0.5,1
				C9.2,8.5,8.7,8.8,8.1,8.8c-0.1,0-0.2,0-0.2,0C7.2,8.7,6.7,8.3,6.4,7.7S6.2,6.5,6.7,5.9c0.2-0.3,0.5-0.5,0.9-0.7
				C7.7,5.2,7.9,5.1,8,5c0.1,0,0.2-0.1,0.2-0.1h0c0.2-0.1,0.3-0.2,0.5-0.3c0.1,0,0.1-0.1,0.1-0.1c0,0,0,0-0.1,0
				C8.5,4.7,8.2,4.7,8,4.8C7.4,4.9,6.8,5,6.3,5.2C6,5.3,5.8,5.4,5.6,5.6l0,0.1c0,0.1,0,0.1,0,0.1C5.3,6.6,5.3,7.3,5.7,8
				c0.8,1.5,2.5,2.1,4.1,1.4l0.1,0c0.3-0.7,0.6-1.5,0.6-2.6v0c0-0.2,0.1-0.5,0.1-0.8C10.5,6,10.5,6.1,10.5,6.1z M10.5,6.1
				c-0.1,0.2-0.2,0.4-0.3,0.6l-0.1,0.2c-0.1,0.3-0.3,0.7-0.5,1C9.2,8.5,8.7,8.8,8.1,8.8c-0.1,0-0.2,0-0.2,0C7.2,8.7,6.7,8.3,6.4,7.7
				S6.2,6.5,6.7,5.9c0.2-0.3,0.5-0.5,0.9-0.7C7.7,5.2,7.9,5.1,8,5c0.1,0,0.2-0.1,0.2-0.1h0c0.2-0.1,0.3-0.2,0.5-0.3
				c0.1,0,0.1-0.1,0.1-0.1c0,0,0,0-0.1,0C8.5,4.7,8.2,4.7,8,4.8C7.4,4.9,6.8,5,6.3,5.2C6,5.3,5.8,5.4,5.6,5.6l0,0.1
				c0,0.1,0,0.1,0,0.1C5.3,6.6,5.3,7.3,5.7,8c0.8,1.5,2.5,2.1,4.1,1.4l0.1,0c0.3-0.7,0.6-1.5,0.6-2.6v0c0-0.2,0.1-0.5,0.1-0.8
				C10.5,6,10.5,6.1,10.5,6.1z M9.7,4c-0.1,0-0.2-0.1-0.3-0.1c0,0.1,0,0.2,0,0.2h0c0.7,0.2,1.2,0.7,1.6,1.4c0,0,0,0,0,0c0,0,0,0,0,0
				h0.1c0,0,0.1,0,0.2,0c0,0,0,0,0.1,0C11,4.8,10.5,4.3,9.7,4z M9.7,4c-0.1,0-0.2-0.1-0.3-0.1c0,0.1,0,0.2,0,0.2h0
				c0.7,0.2,1.2,0.7,1.6,1.4c0,0,0,0,0,0c0,0,0,0,0,0h0.1c0,0,0.1,0,0.2,0c0,0,0,0,0.1,0C11,4.8,10.5,4.3,9.7,4z M10.5,6.1
				c-0.1,0.2-0.2,0.4-0.3,0.6l-0.1,0.2c-0.1,0.3-0.3,0.7-0.5,1C9.2,8.5,8.7,8.8,8.1,8.8c-0.1,0-0.2,0-0.2,0C7.2,8.7,6.7,8.3,6.4,7.7
				S6.2,6.5,6.7,5.9c0.2-0.3,0.5-0.5,0.9-0.7C7.7,5.2,7.9,5.1,8,5c0.1,0,0.2-0.1,0.2-0.1h0c0.2-0.1,0.3-0.2,0.5-0.3
				c0.1,0,0.1-0.1,0.1-0.1c0,0,0,0-0.1,0C8.5,4.7,8.2,4.7,8,4.8C7.4,4.9,6.8,5,6.3,5.2C6,5.3,5.8,5.4,5.6,5.6l0,0.1
				c0,0.1,0,0.1,0,0.1C5.3,6.6,5.3,7.3,5.7,8c0.8,1.5,2.5,2.1,4.1,1.4l0.1,0c0.3-0.7,0.6-1.5,0.6-2.6v0c0-0.2,0.1-0.5,0.1-0.8
				C10.5,6,10.5,6.1,10.5,6.1z M10.7,0H4.3C1.9,0,0,1.9,0,4.3v6.4C0,13.1,1.9,15,4.3,15h6.4c2.4,0,4.3-1.9,4.3-4.3V4.3
				C15,1.9,13.1,0,10.7,0z M11.4,9.9C11,10.5,10.6,11,10,11.4c-0.5,0.4-1.2,0.6-1.8,0.7c-0.2,0-0.5,0.1-0.7,0.1
				c-1.2,0-2.3-0.5-3.2-1.4C3.6,10.1,3.2,9.3,3,8.3C2.8,6.9,3.2,5.6,4.2,4.5C4.9,3.6,5.9,3.1,7,3c0.2,0,0.3,0,0.5,0
				c0.5,0,1.1,0.1,1.6,0.3c0.1,0,0.3,0.2,0.3,0.3c0.1,0,0.3,0.1,0.4,0.1c0.9,0.4,1.5,1,1.8,2c0,0.1,0.1,0.2,0.1,0.2
				c0.1,0.3,0.2,0.7,0.3,1.1C12.2,8,12,9,11.4,9.9z M9.7,4c-0.1,0-0.2-0.1-0.3-0.1c0,0.1,0,0.2,0,0.2h0c0.7,0.2,1.2,0.7,1.6,1.4
				c0,0,0,0,0,0c0,0,0,0,0,0h0.1c0,0,0.1,0,0.2,0c0,0,0,0,0.1,0C11,4.8,10.5,4.3,9.7,4z M10.5,6.1c-0.1,0.2-0.2,0.4-0.3,0.6
				l-0.1,0.2c-0.1,0.3-0.3,0.7-0.5,1C9.2,8.5,8.7,8.8,8.1,8.8c-0.1,0-0.2,0-0.2,0C7.2,8.7,6.7,8.3,6.4,7.7S6.2,6.5,6.7,5.9
				c0.2-0.3,0.5-0.5,0.9-0.7C7.7,5.2,7.9,5.1,8,5c0.1,0,0.2-0.1,0.2-0.1h0c0.2-0.1,0.3-0.2,0.5-0.3c0.1,0,0.1-0.1,0.1-0.1
				c0,0,0,0-0.1,0C8.5,4.7,8.2,4.7,8,4.8C7.4,4.9,6.8,5,6.3,5.2C6,5.3,5.8,5.4,5.6,5.6l0,0.1c0,0.1,0,0.1,0,0.1
				C5.3,6.6,5.3,7.3,5.7,8c0.8,1.5,2.5,2.1,4.1,1.4l0.1,0c0.3-0.7,0.6-1.5,0.6-2.6v0c0-0.2,0.1-0.5,0.1-0.8
				C10.5,6,10.5,6.1,10.5,6.1z M10.5,6.1c-0.1,0.2-0.2,0.4-0.3,0.6l-0.1,0.2c-0.1,0.3-0.3,0.7-0.5,1C9.2,8.5,8.7,8.8,8.1,8.8
				c-0.1,0-0.2,0-0.2,0C7.2,8.7,6.7,8.3,6.4,7.7S6.2,6.5,6.7,5.9c0.2-0.3,0.5-0.5,0.9-0.7C7.7,5.2,7.9,5.1,8,5
				c0.1,0,0.2-0.1,0.2-0.1h0c0.2-0.1,0.3-0.2,0.5-0.3c0.1,0,0.1-0.1,0.1-0.1c0,0,0,0-0.1,0C8.5,4.7,8.2,4.7,8,4.8
				C7.4,4.9,6.8,5,6.3,5.2C6,5.3,5.8,5.4,5.6,5.6l0,0.1c0,0.1,0,0.1,0,0.1C5.3,6.6,5.3,7.3,5.7,8c0.8,1.5,2.5,2.1,4.1,1.4l0.1,0
				c0.3-0.7,0.6-1.5,0.6-2.6v0c0-0.2,0.1-0.5,0.1-0.8C10.5,6,10.5,6.1,10.5,6.1z M9.7,4c-0.1,0-0.2-0.1-0.3-0.1c0,0.1,0,0.2,0,0.2h0
				c0.7,0.2,1.2,0.7,1.6,1.4c0,0,0,0,0,0c0,0,0,0,0,0h0.1c0,0,0.1,0,0.2,0c0,0,0,0,0.1,0C11,4.8,10.5,4.3,9.7,4z M9.7,4
				c-0.1,0-0.2-0.1-0.3-0.1c0,0.1,0,0.2,0,0.2h0c0.7,0.2,1.2,0.7,1.6,1.4c0,0,0,0,0,0c0,0,0,0,0,0h0.1c0,0,0.1,0,0.2,0
				c0,0,0,0,0.1,0C11,4.8,10.5,4.3,9.7,4z M10.5,6.1c-0.1,0.2-0.2,0.4-0.3,0.6l-0.1,0.2c-0.1,0.3-0.3,0.7-0.5,1
				C9.2,8.5,8.7,8.8,8.1,8.8c-0.1,0-0.2,0-0.2,0C7.2,8.7,6.7,8.3,6.4,7.7S6.2,6.5,6.7,5.9c0.2-0.3,0.5-0.5,0.9-0.7
				C7.7,5.2,7.9,5.1,8,5c0.1,0,0.2-0.1,0.2-0.1h0c0.2-0.1,0.3-0.2,0.5-0.3c0.1,0,0.1-0.1,0.1-0.1c0,0,0,0-0.1,0
				C8.5,4.7,8.2,4.7,8,4.8C7.4,4.9,6.8,5,6.3,5.2C6,5.3,5.8,5.4,5.6,5.6l0,0.1c0,0.1,0,0.1,0,0.1C5.3,6.6,5.3,7.3,5.7,8
				c0.8,1.5,2.5,2.1,4.1,1.4l0.1,0c0.3-0.7,0.6-1.5,0.6-2.6v0c0-0.2,0.1-0.5,0.1-0.8C10.5,6,10.5,6.1,10.5,6.1z M10.5,6.1
				c-0.1,0.2-0.2,0.4-0.3,0.6l-0.1,0.2c-0.1,0.3-0.3,0.7-0.5,1C9.2,8.5,8.7,8.8,8.1,8.8c-0.1,0-0.2,0-0.2,0C7.2,8.7,6.7,8.3,6.4,7.7
				S6.2,6.5,6.7,5.9c0.2-0.3,0.5-0.5,0.9-0.7C7.7,5.2,7.9,5.1,8,5c0.1,0,0.2-0.1,0.2-0.1h0c0.2-0.1,0.3-0.2,0.5-0.3
				c0.1,0,0.1-0.1,0.1-0.1c0,0,0,0-0.1,0C8.5,4.7,8.2,4.7,8,4.8C7.4,4.9,6.8,5,6.3,5.2C6,5.3,5.8,5.4,5.6,5.6l0,0.1
				c0,0.1,0,0.1,0,0.1C5.3,6.6,5.3,7.3,5.7,8c0.8,1.5,2.5,2.1,4.1,1.4l0.1,0c0.3-0.7,0.6-1.5,0.6-2.6v0c0-0.2,0.1-0.5,0.1-0.8
				C10.5,6,10.5,6.1,10.5,6.1z M9.7,4c-0.1,0-0.2-0.1-0.3-0.1c0,0.1,0,0.2,0,0.2h0c0.7,0.2,1.2,0.7,1.6,1.4c0,0,0,0,0,0c0,0,0,0,0,0
				h0.1c0,0,0.1,0,0.2,0c0,0,0,0,0.1,0C11,4.8,10.5,4.3,9.7,4z M9.7,4c-0.1,0-0.2-0.1-0.3-0.1c0,0.1,0,0.2,0,0.2h0
				c0.7,0.2,1.2,0.7,1.6,1.4c0,0,0,0,0,0c0,0,0,0,0,0h0.1c0,0,0.1,0,0.2,0c0,0,0,0,0.1,0C11,4.8,10.5,4.3,9.7,4z M10.5,6.1
				c-0.1,0.2-0.2,0.4-0.3,0.6l-0.1,0.2c-0.1,0.3-0.3,0.7-0.5,1C9.2,8.5,8.7,8.8,8.1,8.8c-0.1,0-0.2,0-0.2,0C7.2,8.7,6.7,8.3,6.4,7.7
				S6.2,6.5,6.7,5.9c0.2-0.3,0.5-0.5,0.9-0.7C7.7,5.2,7.9,5.1,8,5c0.1,0,0.2-0.1,0.2-0.1h0c0.2-0.1,0.3-0.2,0.5-0.3
				c0.1,0,0.1-0.1,0.1-0.1c0,0,0,0-0.1,0C8.5,4.7,8.2,4.7,8,4.8C7.4,4.9,6.8,5,6.3,5.2C6,5.3,5.8,5.4,5.6,5.6l0,0.1
				c0,0.1,0,0.1,0,0.1C5.3,6.6,5.3,7.3,5.7,8c0.8,1.5,2.5,2.1,4.1,1.4l0.1,0c0.3-0.7,0.6-1.5,0.6-2.6v0c0-0.2,0.1-0.5,0.1-0.8
				C10.5,6,10.5,6.1,10.5,6.1z M10.5,6.1c-0.1,0.2-0.2,0.4-0.3,0.6l-0.1,0.2c-0.1,0.3-0.3,0.7-0.5,1C9.2,8.5,8.7,8.8,8.1,8.8
				c-0.1,0-0.2,0-0.2,0C7.2,8.7,6.7,8.3,6.4,7.7S6.2,6.5,6.7,5.9c0.2-0.3,0.5-0.5,0.9-0.7C7.7,5.2,7.9,5.1,8,5
				c0.1,0,0.2-0.1,0.2-0.1h0c0.2-0.1,0.3-0.2,0.5-0.3c0.1,0,0.1-0.1,0.1-0.1c0,0,0,0-0.1,0C8.5,4.7,8.2,4.7,8,4.8
				C7.4,4.9,6.8,5,6.3,5.2C6,5.3,5.8,5.4,5.6,5.6l0,0.1c0,0.1,0,0.1,0,0.1C5.3,6.6,5.3,7.3,5.7,8c0.8,1.5,2.5,2.1,4.1,1.4l0.1,0
				c0.3-0.7,0.6-1.5,0.6-2.6v0c0-0.2,0.1-0.5,0.1-0.8C10.5,6,10.5,6.1,10.5,6.1z M9.7,4c-0.1,0-0.2-0.1-0.3-0.1c0,0.1,0,0.2,0,0.2h0
				c0.7,0.2,1.2,0.7,1.6,1.4c0,0,0,0,0,0c0,0,0,0,0,0h0.1c0,0,0.1,0,0.2,0c0,0,0,0,0.1,0C11,4.8,10.5,4.3,9.7,4z M9.7,4
				c-0.1,0-0.2-0.1-0.3-0.1c0,0.1,0,0.2,0,0.2h0c0.7,0.2,1.2,0.7,1.6,1.4c0,0,0,0,0,0c0,0,0,0,0,0h0.1c0,0,0.1,0,0.2,0
				c0,0,0,0,0.1,0C11,4.8,10.5,4.3,9.7,4z M10.5,6.1c-0.1,0.2-0.2,0.4-0.3,0.6l-0.1,0.2c-0.1,0.3-0.3,0.7-0.5,1
				C9.2,8.5,8.7,8.8,8.1,8.8c-0.1,0-0.2,0-0.2,0C7.2,8.7,6.7,8.3,6.4,7.7S6.2,6.5,6.7,5.9c0.2-0.3,0.5-0.5,0.9-0.7
				C7.7,5.2,7.9,5.1,8,5c0.1,0,0.2-0.1,0.2-0.1h0c0.2-0.1,0.3-0.2,0.5-0.3c0.1,0,0.1-0.1,0.1-0.1c0,0,0,0-0.1,0
				C8.5,4.7,8.2,4.7,8,4.8C7.4,4.9,6.8,5,6.3,5.2C6,5.3,5.8,5.4,5.6,5.6l0,0.1c0,0.1,0,0.1,0,0.1C5.3,6.6,5.3,7.3,5.7,8
				c0.8,1.5,2.5,2.1,4.1,1.4l0.1,0c0.3-0.7,0.6-1.5,0.6-2.6v0c0-0.2,0.1-0.5,0.1-0.8C10.5,6,10.5,6.1,10.5,6.1z M10.5,6.1
				c-0.1,0.2-0.2,0.4-0.3,0.6l-0.1,0.2c-0.1,0.3-0.3,0.7-0.5,1C9.2,8.5,8.7,8.8,8.1,8.8c-0.1,0-0.2,0-0.2,0C7.2,8.7,6.7,8.3,6.4,7.7
				S6.2,6.5,6.7,5.9c0.2-0.3,0.5-0.5,0.9-0.7C7.7,5.2,7.9,5.1,8,5c0.1,0,0.2-0.1,0.2-0.1h0c0.2-0.1,0.3-0.2,0.5-0.3
				c0.1,0,0.1-0.1,0.1-0.1c0,0,0,0-0.1,0C8.5,4.7,8.2,4.7,8,4.8C7.4,4.9,6.8,5,6.3,5.2C6,5.3,5.8,5.4,5.6,5.6l0,0.1
				c0,0.1,0,0.1,0,0.1C5.3,6.6,5.3,7.3,5.7,8c0.8,1.5,2.5,2.1,4.1,1.4l0.1,0c0.3-0.7,0.6-1.5,0.6-2.6v0c0-0.2,0.1-0.5,0.1-0.8
				C10.5,6,10.5,6.1,10.5,6.1z M9.7,4c-0.1,0-0.2-0.1-0.3-0.1c0,0.1,0,0.2,0,0.2h0c0.7,0.2,1.2,0.7,1.6,1.4c0,0,0,0,0,0c0,0,0,0,0,0
				h0.1c0,0,0.1,0,0.2,0c0,0,0,0,0.1,0C11,4.8,10.5,4.3,9.7,4z M9.7,4c-0.1,0-0.2-0.1-0.3-0.1c0,0.1,0,0.2,0,0.2h0
				c0.7,0.2,1.2,0.7,1.6,1.4c0,0,0,0,0,0c0,0,0,0,0,0h0.1c0,0,0.1,0,0.2,0c0,0,0,0,0.1,0C11,4.8,10.5,4.3,9.7,4z M10.5,6.1
				c-0.1,0.2-0.2,0.4-0.3,0.6l-0.1,0.2c-0.1,0.3-0.3,0.7-0.5,1C9.2,8.5,8.7,8.8,8.1,8.8c-0.1,0-0.2,0-0.2,0C7.2,8.7,6.7,8.3,6.4,7.7
				S6.2,6.5,6.7,5.9c0.2-0.3,0.5-0.5,0.9-0.7C7.7,5.2,7.9,5.1,8,5c0.1,0,0.2-0.1,0.2-0.1h0c0.2-0.1,0.3-0.2,0.5-0.3
				c0.1,0,0.1-0.1,0.1-0.1c0,0,0,0-0.1,0C8.5,4.7,8.2,4.7,8,4.8C7.4,4.9,6.8,5,6.3,5.2C6,5.3,5.8,5.4,5.6,5.6l0,0.1
				c0,0.1,0,0.1,0,0.1C5.3,6.6,5.3,7.3,5.7,8c0.8,1.5,2.5,2.1,4.1,1.4l0.1,0c0.3-0.7,0.6-1.5,0.6-2.6v0c0-0.2,0.1-0.5,0.1-0.8
				C10.5,6,10.5,6.1,10.5,6.1z M10.5,6.1c-0.1,0.2-0.2,0.4-0.3,0.6l-0.1,0.2c-0.1,0.3-0.3,0.7-0.5,1C9.2,8.5,8.7,8.8,8.1,8.8
				c-0.1,0-0.2,0-0.2,0C7.2,8.7,6.7,8.3,6.4,7.7S6.2,6.5,6.7,5.9c0.2-0.3,0.5-0.5,0.9-0.7C7.7,5.2,7.9,5.1,8,5
				c0.1,0,0.2-0.1,0.2-0.1h0c0.2-0.1,0.3-0.2,0.5-0.3c0.1,0,0.1-0.1,0.1-0.1c0,0,0,0-0.1,0C8.5,4.7,8.2,4.7,8,4.8
				C7.4,4.9,6.8,5,6.3,5.2C6,5.3,5.8,5.4,5.6,5.6l0,0.1c0,0.1,0,0.1,0,0.1C5.3,6.6,5.3,7.3,5.7,8c0.8,1.5,2.5,2.1,4.1,1.4l0.1,0
				c0.3-0.7,0.6-1.5,0.6-2.6v0c0-0.2,0.1-0.5,0.1-0.8C10.5,6,10.5,6.1,10.5,6.1z M10.5,6.1c-0.1,0.2-0.2,0.4-0.3,0.6l-0.1,0.2
				c-0.1,0.3-0.3,0.7-0.5,1C9.2,8.5,8.7,8.8,8.1,8.8c-0.1,0-0.2,0-0.2,0C7.2,8.7,6.7,8.3,6.4,7.7S6.2,6.5,6.7,5.9
				c0.2-0.3,0.5-0.5,0.9-0.7C7.7,5.2,7.9,5.1,8,5c0.1,0,0.2-0.1,0.2-0.1h0c0.2-0.1,0.3-0.2,0.5-0.3c0.1,0,0.1-0.1,0.1-0.1
				c0,0,0,0-0.1,0C8.5,4.7,8.2,4.7,8,4.8C7.4,4.9,6.8,5,6.3,5.2C6,5.3,5.8,5.4,5.6,5.6l0,0.1c0,0.1,0,0.1,0,0.1
				C5.3,6.6,5.3,7.3,5.7,8c0.8,1.5,2.5,2.1,4.1,1.4l0.1,0c0.3-0.7,0.6-1.5,0.6-2.6v0c0-0.2,0.1-0.5,0.1-0.8
				C10.5,6,10.5,6.1,10.5,6.1z M10.5,6.1c-0.1,0.2-0.2,0.4-0.3,0.6l-0.1,0.2c-0.1,0.3-0.3,0.7-0.5,1C9.2,8.5,8.7,8.8,8.1,8.8
				c-0.1,0-0.2,0-0.2,0C7.2,8.7,6.7,8.3,6.4,7.7S6.2,6.5,6.7,5.9c0.2-0.3,0.5-0.5,0.9-0.7C7.7,5.2,7.9,5.1,8,5
				c0.1,0,0.2-0.1,0.2-0.1h0c0.2-0.1,0.3-0.2,0.5-0.3c0.1,0,0.1-0.1,0.1-0.1c0,0,0,0-0.1,0C8.5,4.7,8.2,4.7,8,4.8
				C7.4,4.9,6.8,5,6.3,5.2C6,5.3,5.8,5.4,5.6,5.6l0,0.1c0,0.1,0,0.1,0,0.1C5.3,6.6,5.3,7.3,5.7,8c0.8,1.5,2.5,2.1,4.1,1.4l0.1,0
				c0.3-0.7,0.6-1.5,0.6-2.6v0c0-0.2,0.1-0.5,0.1-0.8C10.5,6,10.5,6.1,10.5,6.1z M10.5,6.1c-0.1,0.2-0.2,0.4-0.3,0.6l-0.1,0.2
				c-0.1,0.3-0.3,0.7-0.5,1C9.2,8.5,8.7,8.8,8.1,8.8c-0.1,0-0.2,0-0.2,0C7.2,8.7,6.7,8.3,6.4,7.7S6.2,6.5,6.7,5.9
				c0.2-0.3,0.5-0.5,0.9-0.7C7.7,5.2,7.9,5.1,8,5c0.1,0,0.2-0.1,0.2-0.1h0c0.2-0.1,0.3-0.2,0.5-0.3c0.1,0,0.1-0.1,0.1-0.1
				c0,0,0,0-0.1,0C8.5,4.7,8.2,4.7,8,4.8C7.4,4.9,6.8,5,6.3,5.2C6,5.3,5.8,5.4,5.6,5.6l0,0.1c0,0.1,0,0.1,0,0.1
				C5.3,6.6,5.3,7.3,5.7,8c0.8,1.5,2.5,2.1,4.1,1.4l0.1,0c0.3-0.7,0.6-1.5,0.6-2.6v0c0-0.2,0.1-0.5,0.1-0.8
				C10.5,6,10.5,6.1,10.5,6.1z M10.5,6.1c-0.1,0.2-0.2,0.4-0.3,0.6l-0.1,0.2c-0.1,0.3-0.3,0.7-0.5,1C9.2,8.5,8.7,8.8,8.1,8.8
				c-0.1,0-0.2,0-0.2,0C7.2,8.7,6.7,8.3,6.4,7.7S6.2,6.5,6.7,5.9c0.2-0.3,0.5-0.5,0.9-0.7C7.7,5.2,7.9,5.1,8,5
				c0.1,0,0.2-0.1,0.2-0.1h0c0.2-0.1,0.3-0.2,0.5-0.3c0.1,0,0.1-0.1,0.1-0.1c0,0,0,0-0.1,0C8.5,4.7,8.2,4.7,8,4.8
				C7.4,4.9,6.8,5,6.3,5.2C6,5.3,5.8,5.4,5.6,5.6l0,0.1c0,0.1,0,0.1,0,0.1C5.3,6.6,5.3,7.3,5.7,8c0.8,1.5,2.5,2.1,4.1,1.4l0.1,0
				c0.3-0.7,0.6-1.5,0.6-2.6v0c0-0.2,0.1-0.5,0.1-0.8C10.5,6,10.5,6.1,10.5,6.1z M10.5,6.1c-0.1,0.2-0.2,0.4-0.3,0.6l-0.1,0.2
				c-0.1,0.3-0.3,0.7-0.5,1C9.2,8.5,8.7,8.8,8.1,8.8c-0.1,0-0.2,0-0.2,0C7.2,8.7,6.7,8.3,6.4,7.7S6.2,6.5,6.7,5.9
				c0.2-0.3,0.5-0.5,0.9-0.7C7.7,5.2,7.9,5.1,8,5c0.1,0,0.2-0.1,0.2-0.1h0c0.2-0.1,0.3-0.2,0.5-0.3c0.1,0,0.1-0.1,0.1-0.1
				c0,0,0,0-0.1,0C8.5,4.7,8.2,4.7,8,4.8C7.4,4.9,6.8,5,6.3,5.2C6,5.3,5.8,5.4,5.6,5.6l0,0.1c0,0.1,0,0.1,0,0.1
				C5.3,6.6,5.3,7.3,5.7,8c0.8,1.5,2.5,2.1,4.1,1.4l0.1,0c0.3-0.7,0.6-1.5,0.6-2.6v0c0-0.2,0.1-0.5,0.1-0.8
				C10.5,6,10.5,6.1,10.5,6.1z M10.5,6.1c-0.1,0.2-0.2,0.4-0.3,0.6l-0.1,0.2c-0.1,0.3-0.3,0.7-0.5,1C9.2,8.5,8.7,8.8,8.1,8.8
				c-0.1,0-0.2,0-0.2,0C7.2,8.7,6.7,8.3,6.4,7.7S6.2,6.5,6.7,5.9c0.2-0.3,0.5-0.5,0.9-0.7C7.7,5.2,7.9,5.1,8,5
				c0.1,0,0.2-0.1,0.2-0.1h0c0.2-0.1,0.3-0.2,0.5-0.3c0.1,0,0.1-0.1,0.1-0.1c0,0,0,0-0.1,0C8.5,4.7,8.2,4.7,8,4.8
				C7.4,4.9,6.8,5,6.3,5.2C6,5.3,5.8,5.4,5.6,5.6l0,0.1c0,0.1,0,0.1,0,0.1C5.3,6.6,5.3,7.3,5.7,8c0.8,1.5,2.5,2.1,4.1,1.4l0.1,0
				c0.3-0.7,0.6-1.5,0.6-2.6v0c0-0.2,0.1-0.5,0.1-0.8C10.5,6,10.5,6.1,10.5,6.1z M10.5,6.1c-0.1,0.2-0.2,0.4-0.3,0.6l-0.1,0.2
				c-0.1,0.3-0.3,0.7-0.5,1C9.2,8.5,8.7,8.8,8.1,8.8c-0.1,0-0.2,0-0.2,0C7.2,8.7,6.7,8.3,6.4,7.7S6.2,6.5,6.7,5.9
				c0.2-0.3,0.5-0.5,0.9-0.7C7.7,5.2,7.9,5.1,8,5c0.1,0,0.2-0.1,0.2-0.1h0c0.2-0.1,0.3-0.2,0.5-0.3c0.1,0,0.1-0.1,0.1-0.1
				c0,0,0,0-0.1,0C8.5,4.7,8.2,4.7,8,4.8C7.4,4.9,6.8,5,6.3,5.2C6,5.3,5.8,5.4,5.6,5.6l0,0.1c0,0.1,0,0.1,0,0.1
				C5.3,6.6,5.3,7.3,5.7,8c0.8,1.5,2.5,2.1,4.1,1.4l0.1,0c0.3-0.7,0.6-1.5,0.6-2.6v0c0-0.2,0.1-0.5,0.1-0.8
				C10.5,6,10.5,6.1,10.5,6.1z M10.5,6.1c-0.1,0.2-0.2,0.4-0.3,0.6l-0.1,0.2c-0.1,0.3-0.3,0.7-0.5,1C9.2,8.5,8.7,8.8,8.1,8.8
				c-0.1,0-0.2,0-0.2,0C7.2,8.7,6.7,8.3,6.4,7.7S6.2,6.5,6.7,5.9c0.2-0.3,0.5-0.5,0.9-0.7C7.7,5.2,7.9,5.1,8,5
				c0.1,0,0.2-0.1,0.2-0.1h0c0.2-0.1,0.3-0.2,0.5-0.3c0.1,0,0.1-0.1,0.1-0.1c0,0,0,0-0.1,0C8.5,4.7,8.2,4.7,8,4.8
				C7.4,4.9,6.8,5,6.3,5.2C6,5.3,5.8,5.4,5.6,5.6l0,0.1c0,0.1,0,0.1,0,0.1C5.3,6.6,5.3,7.3,5.7,8c0.8,1.5,2.5,2.1,4.1,1.4l0.1,0
				c0.3-0.7,0.6-1.5,0.6-2.6v0c0-0.2,0.1-0.5,0.1-0.8C10.5,6,10.5,6.1,10.5,6.1z M10.5,6.1c-0.1,0.2-0.2,0.4-0.3,0.6l-0.1,0.2
				c-0.1,0.3-0.3,0.7-0.5,1C9.2,8.5,8.7,8.8,8.1,8.8c-0.1,0-0.2,0-0.2,0C7.2,8.7,6.7,8.3,6.4,7.7S6.2,6.5,6.7,5.9
				c0.2-0.3,0.5-0.5,0.9-0.7C7.7,5.2,7.9,5.1,8,5c0.1,0,0.2-0.1,0.2-0.1h0c0.2-0.1,0.3-0.2,0.5-0.3c0.1,0,0.1-0.1,0.1-0.1
				c0,0,0,0-0.1,0C8.5,4.7,8.2,4.7,8,4.8C7.4,4.9,6.8,5,6.3,5.2C6,5.3,5.8,5.4,5.6,5.6l0,0.1c0,0.1,0,0.1,0,0.1
				C5.3,6.6,5.3,7.3,5.7,8c0.8,1.5,2.5,2.1,4.1,1.4l0.1,0c0.3-0.7,0.6-1.5,0.6-2.6v0c0-0.2,0.1-0.5,0.1-0.8
				C10.5,6,10.5,6.1,10.5,6.1z M10.5,6.1c-0.1,0.2-0.2,0.4-0.3,0.6l-0.1,0.2c-0.1,0.3-0.3,0.7-0.5,1C9.2,8.5,8.7,8.8,8.1,8.8
				c-0.1,0-0.2,0-0.2,0C7.2,8.7,6.7,8.3,6.4,7.7S6.2,6.5,6.7,5.9c0.2-0.3,0.5-0.5,0.9-0.7C7.7,5.2,7.9,5.1,8,5
				c0.1,0,0.2-0.1,0.2-0.1h0c0.2-0.1,0.3-0.2,0.5-0.3c0.1,0,0.1-0.1,0.1-0.1c0,0,0,0-0.1,0C8.5,4.7,8.2,4.7,8,4.8
				C7.4,4.9,6.8,5,6.3,5.2C6,5.3,5.8,5.4,5.6,5.6l0,0.1c0,0.1,0,0.1,0,0.1C5.3,6.6,5.3,7.3,5.7,8c0.8,1.5,2.5,2.1,4.1,1.4l0.1,0
				c0.3-0.7,0.6-1.5,0.6-2.6v0c0-0.2,0.1-0.5,0.1-0.8C10.5,6,10.5,6.1,10.5,6.1z M10.5,6.1c-0.1,0.2-0.2,0.4-0.3,0.6l-0.1,0.2
				c-0.1,0.3-0.3,0.7-0.5,1C9.2,8.5,8.7,8.8,8.1,8.8c-0.1,0-0.2,0-0.2,0C7.2,8.7,6.7,8.3,6.4,7.7S6.2,6.5,6.7,5.9
				c0.2-0.3,0.5-0.5,0.9-0.7C7.7,5.2,7.9,5.1,8,5c0.1,0,0.2-0.1,0.2-0.1h0c0.2-0.1,0.3-0.2,0.5-0.3c0.1,0,0.1-0.1,0.1-0.1
				c0,0,0,0-0.1,0C8.5,4.7,8.2,4.7,8,4.8C7.4,4.9,6.8,5,6.3,5.2C6,5.3,5.8,5.4,5.6,5.6l0,0.1c0,0.1,0,0.1,0,0.1
				C5.3,6.6,5.3,7.3,5.7,8c0.8,1.5,2.5,2.1,4.1,1.4l0.1,0c0.3-0.7,0.6-1.5,0.6-2.6v0c0-0.2,0.1-0.5,0.1-0.8
				C10.5,6,10.5,6.1,10.5,6.1z M10.5,6.1c-0.1,0.2-0.2,0.4-0.3,0.6l-0.1,0.2c-0.1,0.3-0.3,0.7-0.5,1C9.2,8.5,8.7,8.8,8.1,8.8
				c-0.1,0-0.2,0-0.2,0C7.2,8.7,6.7,8.3,6.4,7.7S6.2,6.5,6.7,5.9c0.2-0.3,0.5-0.5,0.9-0.7C7.7,5.2,7.9,5.1,8,5
				c0.1,0,0.2-0.1,0.2-0.1h0c0.2-0.1,0.3-0.2,0.5-0.3c0.1,0,0.1-0.1,0.1-0.1c0,0,0,0-0.1,0C8.5,4.7,8.2,4.7,8,4.8
				C7.4,4.9,6.8,5,6.3,5.2C6,5.3,5.8,5.4,5.6,5.6l0,0.1c0,0.1,0,0.1,0,0.1C5.3,6.6,5.3,7.3,5.7,8c0.8,1.5,2.5,2.1,4.1,1.4l0.1,0
				c0.3-0.7,0.6-1.5,0.6-2.6v0c0-0.2,0.1-0.5,0.1-0.8C10.5,6,10.5,6.1,10.5,6.1z M10.5,6.1c-0.1,0.2-0.2,0.4-0.3,0.6l-0.1,0.2
				c-0.1,0.3-0.3,0.7-0.5,1C9.2,8.5,8.7,8.8,8.1,8.8c-0.1,0-0.2,0-0.2,0C7.2,8.7,6.7,8.3,6.4,7.7S6.2,6.5,6.7,5.9
				c0.2-0.3,0.5-0.5,0.9-0.7C7.7,5.2,7.9,5.1,8,5c0.1,0,0.2-0.1,0.2-0.1h0c0.2-0.1,0.3-0.2,0.5-0.3c0.1,0,0.1-0.1,0.1-0.1
				c0,0,0,0-0.1,0C8.5,4.7,8.2,4.7,8,4.8C7.4,4.9,6.8,5,6.3,5.2C6,5.3,5.8,5.4,5.6,5.6l0,0.1c0,0.1,0,0.1,0,0.1
				C5.3,6.6,5.3,7.3,5.7,8c0.8,1.5,2.5,2.1,4.1,1.4l0.1,0c0.3-0.7,0.6-1.5,0.6-2.6v0c0-0.2,0.1-0.5,0.1-0.8
				C10.5,6,10.5,6.1,10.5,6.1z M10.5,6.1c-0.1,0.2-0.2,0.4-0.3,0.6l-0.1,0.2c-0.1,0.3-0.3,0.7-0.5,1C9.2,8.5,8.7,8.8,8.1,8.8
				c-0.1,0-0.2,0-0.2,0C7.2,8.7,6.7,8.3,6.4,7.7S6.2,6.5,6.7,5.9c0.2-0.3,0.5-0.5,0.9-0.7C7.7,5.2,7.9,5.1,8,5
				c0.1,0,0.2-0.1,0.2-0.1h0c0.2-0.1,0.3-0.2,0.5-0.3c0.1,0,0.1-0.1,0.1-0.1c0,0,0,0-0.1,0C8.5,4.7,8.2,4.7,8,4.8
				C7.4,4.9,6.8,5,6.3,5.2C6,5.3,5.8,5.4,5.6,5.6l0,0.1c0,0.1,0,0.1,0,0.1C5.3,6.6,5.3,7.3,5.7,8c0.8,1.5,2.5,2.1,4.1,1.4l0.1,0
				c0.3-0.7,0.6-1.5,0.6-2.6v0c0-0.2,0.1-0.5,0.1-0.8C10.5,6,10.5,6.1,10.5,6.1z M10.5,6.1c-0.1,0.2-0.2,0.4-0.3,0.6l-0.1,0.2
				c-0.1,0.3-0.3,0.7-0.5,1C9.2,8.5,8.7,8.8,8.1,8.8c-0.1,0-0.2,0-0.2,0C7.2,8.7,6.7,8.3,6.4,7.7S6.2,6.5,6.7,5.9
				c0.2-0.3,0.5-0.5,0.9-0.7C7.7,5.2,7.9,5.1,8,5c0.1,0,0.2-0.1,0.2-0.1h0c0.2-0.1,0.3-0.2,0.5-0.3c0.1,0,0.1-0.1,0.1-0.1
				c0,0,0,0-0.1,0C8.5,4.7,8.2,4.7,8,4.8C7.4,4.9,6.8,5,6.3,5.2C6,5.3,5.8,5.4,5.6,5.6l0,0.1c0,0.1,0,0.1,0,0.1
				C5.3,6.6,5.3,7.3,5.7,8c0.8,1.5,2.5,2.1,4.1,1.4l0.1,0c0.3-0.7,0.6-1.5,0.6-2.6v0c0-0.2,0.1-0.5,0.1-0.8
				C10.5,6,10.5,6.1,10.5,6.1z M10.5,6.1c-0.1,0.2-0.2,0.4-0.3,0.6l-0.1,0.2c-0.1,0.3-0.3,0.7-0.5,1C9.2,8.5,8.7,8.8,8.1,8.8
				c-0.1,0-0.2,0-0.2,0C7.2,8.7,6.7,8.3,6.4,7.7S6.2,6.5,6.7,5.9c0.2-0.3,0.5-0.5,0.9-0.7C7.7,5.2,7.9,5.1,8,5
				c0.1,0,0.2-0.1,0.2-0.1h0c0.2-0.1,0.3-0.2,0.5-0.3c0.1,0,0.1-0.1,0.1-0.1c0,0,0,0-0.1,0C8.5,4.7,8.2,4.7,8,4.8
				C7.4,4.9,6.8,5,6.3,5.2C6,5.3,5.8,5.4,5.6,5.6l0,0.1c0,0.1,0,0.1,0,0.1C5.3,6.6,5.3,7.3,5.7,8c0.8,1.5,2.5,2.1,4.1,1.4l0.1,0
				c0.3-0.7,0.6-1.5,0.6-2.6v0c0-0.2,0.1-0.5,0.1-0.8C10.5,6,10.5,6.1,10.5,6.1z M10.5,6.1c-0.1,0.2-0.2,0.4-0.3,0.6l-0.1,0.2
				c-0.1,0.3-0.3,0.7-0.5,1C9.2,8.5,8.7,8.8,8.1,8.8c-0.1,0-0.2,0-0.2,0C7.2,8.7,6.7,8.3,6.4,7.7S6.2,6.5,6.7,5.9
				c0.2-0.3,0.5-0.5,0.9-0.7C7.7,5.2,7.9,5.1,8,5c0.1,0,0.2-0.1,0.2-0.1h0c0.2-0.1,0.3-0.2,0.5-0.3c0.1,0,0.1-0.1,0.1-0.1
				c0,0,0,0-0.1,0C8.5,4.7,8.2,4.7,8,4.8C7.4,4.9,6.8,5,6.3,5.2C6,5.3,5.8,5.4,5.6,5.6l0,0.1c0,0.1,0,0.1,0,0.1
				C5.3,6.6,5.3,7.3,5.7,8c0.8,1.5,2.5,2.1,4.1,1.4l0.1,0c0.3-0.7,0.6-1.5,0.6-2.6v0c0-0.2,0.1-0.5,0.1-0.8
				C10.5,6,10.5,6.1,10.5,6.1z M10.5,6.1c-0.1,0.2-0.2,0.4-0.3,0.6l-0.1,0.2c-0.1,0.3-0.3,0.7-0.5,1C9.2,8.5,8.7,8.8,8.1,8.8
				c-0.1,0-0.2,0-0.2,0C7.2,8.7,6.7,8.3,6.4,7.7S6.2,6.5,6.7,5.9c0.2-0.3,0.5-0.5,0.9-0.7C7.7,5.2,7.9,5.1,8,5
				c0.1,0,0.2-0.1,0.2-0.1h0c0.2-0.1,0.3-0.2,0.5-0.3c0.1,0,0.1-0.1,0.1-0.1c0,0,0,0-0.1,0C8.5,4.7,8.2,4.7,8,4.8
				C7.4,4.9,6.8,5,6.3,5.2C6,5.3,5.8,5.4,5.6,5.6l0,0.1c0,0.1,0,0.1,0,0.1C5.3,6.6,5.3,7.3,5.7,8c0.8,1.5,2.5,2.1,4.1,1.4l0.1,0
				c0.3-0.7,0.6-1.5,0.6-2.6v0c0-0.2,0.1-0.5,0.1-0.8C10.5,6,10.5,6.1,10.5,6.1z M10.5,6.1c-0.1,0.2-0.2,0.4-0.3,0.6l-0.1,0.2
				c-0.1,0.3-0.3,0.7-0.5,1C9.2,8.5,8.7,8.8,8.1,8.8c-0.1,0-0.2,0-0.2,0C7.2,8.7,6.7,8.3,6.4,7.7S6.2,6.5,6.7,5.9
				c0.2-0.3,0.5-0.5,0.9-0.7C7.7,5.2,7.9,5.1,8,5c0.1,0,0.2-0.1,0.2-0.1h0c0.2-0.1,0.3-0.2,0.5-0.3c0.1,0,0.1-0.1,0.1-0.1
				c0,0,0,0-0.1,0C8.5,4.7,8.2,4.7,8,4.8C7.4,4.9,6.8,5,6.3,5.2C6,5.3,5.8,5.4,5.6,5.6l0,0.1c0,0.1,0,0.1,0,0.1
				C5.3,6.6,5.3,7.3,5.7,8c0.8,1.5,2.5,2.1,4.1,1.4l0.1,0c0.3-0.7,0.6-1.5,0.6-2.6v0c0-0.2,0.1-0.5,0.1-0.8
				C10.5,6,10.5,6.1,10.5,6.1z"/>
			<path class="st1" d="M11.1,9.7c-0.7,1.1-1.7,1.8-3,2c-1.4,0.2-2.6-0.2-3.6-1.2c-0.6-0.6-1-1.4-1.2-2.2C3.1,6.9,3.5,5.7,4.4,4.7
				C5.1,3.9,6,3.5,7,3.3c0.2,0,0.3,0,0.5,0c0.5,0,1,0.1,1.5,0.3c0.1,0,0.1,0.1,0.2,0.1c0,0,0.1,0.1,0.1,0.1c0,0,0,0,0,0
				c0,0.1,0,0.2,0,0.3C9.1,4.2,9,4.2,8.9,4.3c-0.1,0-0.1,0-0.1,0.1l-0.1,0C8.5,4.5,8.2,4.6,7.9,4.7C7.3,4.8,6.7,4.9,6.2,5.1
				C6,5.2,5.7,5.3,5.5,5.5C4.5,6.1,3.8,7.3,4,8.6c0.1,1,0.7,1.8,1.5,2.3c0.8,0.5,1.8,0.6,2.7,0.2c0.8-0.3,1.3-0.9,1.7-1.6
				c0,0,0,0,0,0c0.4-0.7,0.6-1.6,0.7-2.6v0c0-0.3,0.1-0.6,0.2-0.8c0.1-0.1,0.1-0.2,0.3-0.2c0.2,0,0.3,0,0.4,0.2l0,0.1l0.1,0.3
				c0.1,0.2,0.1,0.5,0.2,0.7C11.8,8,11.6,8.9,11.1,9.7L11.1,9.7z"/>
		</g>
	</g>
</g>
</svg>
