<svg width="120" height="120" viewBox="0 0 120 120" fill="none" xmlns="http://www.w3.org/2000/svg">
<g clip-path="url(#clip0_150_192)">
<path d="M87.5 22.5C77.75 22.5 67.25 24.5 60 30C52.75 24.5 42.25 22.5 32.5 22.5C25.25 22.5 17.55 23.6 11.1 26.45C7.45 28.1 5 31.65 5 35.7V92.1C5 98.6 11.1 103.4 17.4 101.8C22.3 100.55 27.5 100 32.5 100C40.3 100 48.6 101.3 55.3 104.6C58.3 106.1 61.7 106.1 64.65 104.6C71.35 101.25 79.65 100 87.45 100C92.45 100 97.65 100.55 102.55 101.8C108.85 103.45 114.95 98.65 114.95 92.1V35.7C114.95 31.65 112.5 28.1 108.85 26.45C102.45 23.6 94.75 22.5 87.5 22.5ZM105 86.15C105 89.3 102.1 91.6 99 91.05C95.25 90.35 91.35 90.05 87.5 90.05C79 90.05 66.75 93.3 60 97.55V40C66.75 35.75 79 32.5 87.5 32.5C92.1 32.5 96.65 32.95 101 33.9C103.3 34.4 105 36.45 105 38.8V86.15Z" fill="#F0F0F0"/>
<path d="M69.9 55.05C68.3 55.05 66.85 54.05 66.35 52.45C65.7 50.5 66.8 48.35 68.75 47.75C76.45 45.25 86.4 44.45 95.55 45.5C97.6 45.75 99.1 47.6 98.85 49.65C98.6 51.7 96.75 53.2 94.7 52.95C86.6 52 77.75 52.75 71.05 54.9C70.65 54.95 70.25 55.05 69.9 55.05Z" fill="#F0F0F0"/>
<path d="M69.9 68.3501C68.3 68.3501 66.85 67.3501 66.35 65.7501C65.7 63.8001 66.8 61.6501 68.75 61.0501C76.4 58.5501 86.4 57.7501 95.55 58.8001C97.6 59.0501 99.1 60.9001 98.85 62.9501C98.6 65.0001 96.75 66.5001 94.7 66.2501C86.6 65.3001 77.75 66.0501 71.05 68.2001C70.65 68.3001 70.25 68.3501 69.9 68.3501Z" fill="#F0F0F0"/>
<path d="M69.9 81.65C68.3 81.65 66.85 80.65 66.35 79.05C65.7 77.1 66.8 74.95 68.75 74.35C76.4 71.85 86.4 71.05 95.55 72.1C97.6 72.35 99.1 74.2 98.85 76.25C98.6 78.3 96.75 79.75 94.7 79.55C86.6 78.6 77.75 79.35 71.05 81.5C70.65 81.6 70.25 81.65 69.9 81.65Z" fill="#F0F0F0"/>
</g>
<defs>
<clipPath id="clip0_150_192">
<rect width="120" height="120" fill="white"/>
</clipPath>
</defs>
</svg>
