<?xml version="1.0" encoding="utf-8"?>
<!-- Generator: Adobe Illustrator 26.2.1, SVG Export Plug-In . SVG Version: 6.00 Build 0)  -->
<svg version="1.1" id="Layer_1" xmlns="http://www.w3.org/2000/svg" xmlns:xlink="http://www.w3.org/1999/xlink" x="0px" y="0px"
	 viewBox="0 0 250 250" style="enable-background:new 0 0 250 250;" xml:space="preserve">
<style type="text/css">
	.st0{clip-path:url(#SVGID_00000152982785057342507470000010621668611341460372_);}
	.st1{fill:#145E8F;}
	.st2{fill:url(#SVGID_00000129197249412384498870000001241213457349727678_);}
	.st3{fill:url(#SVGID_00000022519830613344366000000017461722786497839279_);}
	.st4{fill:url(#SVGID_00000067931192963254619000000003646650335473972355_);}
	.st5{fill:#D9912B;}
	.st6{fill:url(#SVGID_00000021091344071519192170000004303201285738587011_);}
	.st7{fill:url(#SVGID_00000007397250893054412310000014593989858381497502_);}
	.st8{fill:#FFC573;}
	.st9{fill:#3498DB;}
	.st10{fill:url(#SVGID_00000018209657423118318620000013079800642528109497_);}
	.st11{fill:url(#SVGID_00000027581985976159378760000013097208731994183045_);}
	.st12{fill:url(#SVGID_00000029741613507345177790000008991869766257051559_);}
	.st13{fill:url(#SVGID_00000078743651786814367100000016379731902247576452_);}
	.st14{fill:url(#SVGID_00000074430042266971616370000013919527248420568236_);}
</style>
<g id="a">
</g>
<g id="b">
	<g id="c">
		<g>
			<g>
				<defs>
					<rect id="SVGID_1_" x="5" y="5" width="240" height="240"/>
				</defs>
				<clipPath id="SVGID_00000131353946709899000250000010445055619928302741_">
					<use xlink:href="#SVGID_1_"  style="overflow:visible;"/>
				</clipPath>
				<g style="clip-path:url(#SVGID_00000131353946709899000250000010445055619928302741_);">
					<path class="st1" d="M56.6,188.8c-0.1,0-0.3,0-0.4-0.1c-9-3.9-9.8-13-9.9-13.4c0-0.6,0.4-1.1,0.9-1.1c0.6,0,1.1,0.4,1.1,0.9
						c0,0.3,0.8,8.3,8.7,11.7c0.5,0.2,0.8,0.8,0.5,1.3C57.4,188.5,57,188.8,56.6,188.8L56.6,188.8L56.6,188.8z"/>
					
						<linearGradient id="SVGID_00000091720757169906524370000011690336033454024338_" gradientUnits="userSpaceOnUse" x1="33.4481" y1="171.9" x2="198.1414" y2="171.9">
						<stop  offset="0" style="stop-color:#145E8F"/>
						<stop  offset="0.72" style="stop-color:#3498DB"/>
						<stop  offset="1" style="stop-color:#4FABE8"/>
					</linearGradient>
					<path style="fill:url(#SVGID_00000091720757169906524370000011690336033454024338_);" d="M164.2,113.9c8.6,5.9,29.8,7,29.8,7
						c1.7,10.5,2.7,20.2,3.1,29.1c0.2,3.9,0.2,7.5,0.1,11.1c-1,48.9-24,68.9-62.1,68.9C87.9,230,67,200.5,67,200.5
						c-2,0.6-4,0.9-5.9,0.9c-16.5,0-29.4-21.3-26.1-32c0.6-2,1.8-3.7,3.7-4.7c3.9-2.2,6.8-3.1,9.2-3.1c8.9,0,8.5,12.9,16.3,12.9
						c9.9,0,10.3-55.8,10.3-55.8s5.5,3.9,25.2,7.1c3.8,0.6,7,0.9,9.5,0.9c15.8,0,10.2-10,10.2-10c7.9,5.8,22.5,7.9,32.4,7.9
						c3.7,0,6.7-0.3,8.6-0.8C167.2,121.8,164.2,113.9,164.2,113.9 M164.2,112.9c-0.2,0-0.4,0.1-0.6,0.2c-0.3,0.3-0.5,0.7-0.3,1.2
						c0,0.1,1.3,3.6,0,6.2c-0.6,1.1-1.6,1.9-3.1,2.3c-1.8,0.5-4.8,0.7-8.3,0.7c-9.9,0-24.1-2-31.8-7.7c-0.2-0.1-0.4-0.2-0.6-0.2
						s-0.5,0.1-0.7,0.3c-0.4,0.3-0.4,0.8-0.2,1.3c0,0,1.6,3.1,0.3,5.4c-1.2,2-4.5,3.1-9.6,3.1c-2.6,0-5.8-0.3-9.4-0.9
						c-19.1-3.1-24.7-6.9-24.8-6.9c-0.2-0.1-0.4-0.2-0.6-0.2s-0.3,0-0.5,0.1c-0.3,0.2-0.6,0.5-0.6,0.9c0,0.1-0.1,14.1-1.5,27.8
						c-2.3,24.3-6.3,27-7.8,27c-3.2,0-4.8-2.6-6.7-5.7c-2.1-3.4-4.4-7.3-9.6-7.3c-2.7,0-5.8,1.1-9.7,3.2c-2,1.1-3.4,2.9-4.1,5.3
						c-1.7,5.6,0.6,13.9,5.9,21.1c5.8,7.8,13.5,12.3,21.2,12.3c1.8,0,3.7-0.3,5.5-0.8c1.5,1.9,6.7,8.1,16.1,14.4
						c10.3,6.8,27.7,14.9,52.3,14.9c19.9,0,35.3-5.5,45.7-16.4c11.1-11.6,17-29.6,17.4-53.5c0.1-3.9,0-7.5-0.1-11.1
						c-0.4-8.9-1.4-18.8-3.1-29.2c-0.1-0.5-0.5-0.8-1-0.9c-0.2,0-21-1.1-29.3-6.8C164.7,112.9,164.5,112.9,164.2,112.9L164.2,112.9
						L164.2,112.9z"/>
					
						<linearGradient id="SVGID_00000049943360770157181300000012712206090241731981_" gradientUnits="userSpaceOnUse" x1="-192.5708" y1="-507.0218" x2="-189.8746" y2="-526.9572" gradientTransform="matrix(1 0 0 -1 299.1 -350.01)">
						<stop  offset="0" style="stop-color:#145E8F"/>
						<stop  offset="0.72" style="stop-color:#3498DB"/>
						<stop  offset="1" style="stop-color:#4FABE8"/>
					</linearGradient>
					<path style="fill:url(#SVGID_00000049943360770157181300000012712206090241731981_);" d="M107.5,169c2.7,0,4.8-2.2,4.8-4.8
						c0-2.7-2.2-4.8-4.8-4.8s-4.8,2.2-4.8,4.8S104.9,169,107.5,169z"/>
					
						<linearGradient id="SVGID_00000005971608534969267650000005402429722916906930_" gradientUnits="userSpaceOnUse" x1="-158.0104" y1="-541.961" x2="-153.9661" y2="-567.8197" gradientTransform="matrix(1 0 0 -1 299.1 -350.01)">
						<stop  offset="0" style="stop-color:#145E8F"/>
						<stop  offset="0.72" style="stop-color:#3498DB"/>
						<stop  offset="1" style="stop-color:#4FABE8"/>
					</linearGradient>
					<path style="fill:url(#SVGID_00000005971608534969267650000005402429722916906930_);" d="M161.1,200.4c0,0.1-0.1,0.3-0.1,0.4
						c-1.2,2.9-3.2,6.8-6.7,9.5c-2.3,1.9-5.2,3.2-8.9,3.3c-6.1,0.2-11.1-1.2-14.9-3.6c-3.2-2-5.4-4.7-6.5-7.6
						c-0.1-0.2-0.1-0.3-0.2-0.5c-0.6-1.7,0.6-3.5,2.5-3.6l32.2-1.1C160.2,197,161.5,198.7,161.1,200.4L161.1,200.4z"/>
					<path class="st1" d="M161.6,164.4l-0.9-0.4c0.1-0.1,5-10.8,15.7-10.8s13,5.3,13.1,5.6l-0.9,0.4c0,0-2.1-4.9-12.1-4.9
						S161.6,164.3,161.6,164.4L161.6,164.4z"/>
					<path class="st5" d="M107.1,187.5c-13.5,0-24.5-11-24.5-24.5s11-24.5,24.5-24.5s24.5,11,24.5,24.5
						C131.5,176.6,120.6,187.5,107.1,187.5z M107.1,140.7c-12.4,0-22.4,10.1-22.4,22.4s10.1,22.4,22.4,22.4s22.4-10.1,22.4-22.4
						S119.4,140.7,107.1,140.7z"/>
					<path class="st5" d="M177.6,181.2c-13.5,0-24.5-11-24.5-24.5s11-24.5,24.5-24.5s24.5,11,24.5,24.5S191.1,181.2,177.6,181.2z
						 M177.6,134.4c-12.4,0-22.4,10.1-22.4,22.4s10.1,22.4,22.4,22.4s22.4-10.1,22.4-22.4S190,134.4,177.6,134.4z"/>
					<path class="st5" d="M130.5,159.5l-0.9-1.8c0.5-0.3,12.6-6.1,24.9-1.8l-0.7,1.9C142.4,153.7,130.7,159.4,130.5,159.5
						L130.5,159.5L130.5,159.5z"/>
					
						<linearGradient id="SVGID_00000023971225507487351010000012564265117203904667_" gradientUnits="userSpaceOnUse" x1="-222.2004" y1="-378.9347" x2="-188.2634" y2="-458.9312" gradientTransform="matrix(1 0 0 -1 299.1 -350.01)">
						<stop  offset="0" style="stop-color:#145E8F"/>
						<stop  offset="0.72" style="stop-color:#3498DB"/>
						<stop  offset="1" style="stop-color:#4FABE8"/>
					</linearGradient>
					<path style="fill:url(#SVGID_00000023971225507487351010000012564265117203904667_);" d="M204.3,119.9c-2.2,3.7-10.3,1-10.3,1
						s-21.2-1.1-29.8-7c0,0,3,8-3.8,9.8s-30.2,0.8-41-7.1c0,0,7.5,13.6-19.8,9.1c-19.7-3.2-25.2-7.1-25.2-7.1s-0.4,55.8-10.3,55.8
						s-6.6-20.6-25.4-9.9c-1.9,1-3,2.7-3.7,4.7c-2.7-4.1-14.3-25-9.8-70C30.3,48.6,96.3,16.7,155.4,39S206.6,116.2,204.3,119.9
						L204.3,119.9L204.3,119.9z"/>
					
						<linearGradient id="SVGID_00000003795160365539186010000012773816029852631950_" gradientUnits="userSpaceOnUse" x1="-92.5257" y1="-435.5206" x2="-61.0091" y2="-424.2048" gradientTransform="matrix(1 0 0 -1 299.1 -350.01)">
						<stop  offset="0" style="stop-color:#145E8F"/>
						<stop  offset="0.72" style="stop-color:#3498DB"/>
						<stop  offset="1" style="stop-color:#4FABE8"/>
					</linearGradient>
					<path style="fill:url(#SVGID_00000003795160365539186010000012773816029852631950_);" d="M240.4,67.2l-30.5,2.9
						c-1.1,0.1-1.9,1.1-1.8,2.2l1.5,15.7c0.1,1.1,1.1,1.9,2.2,1.8l30.5-2.9c1.1-0.1,1.9-1.1,1.8-2.2L242.5,69
						C242.4,67.9,241.5,67.1,240.4,67.2L240.4,67.2z"/>
					<path class="st8" d="M221.8,83.7l-0.9-9.4l9.9,3.8L221.8,83.7z"/>
					<path class="st9" d="M223.4,138.8l-1.6-0.4c-0.4-0.1-0.7,0.1-0.8,0.5l-12.5,55.3c-0.1,0.4,0.1,0.7,0.5,0.8l1.6,0.4
						c0.4,0.1,0.7-0.1,0.8-0.5l12.5-55.3C223.9,139.2,223.7,138.9,223.4,138.8z"/>
					<path class="st8" d="M211.2,195.5l-2.9-0.7c-0.5-0.1-0.9,0.2-1,0.7l-1.3,5.9c-0.1,0.5,0.2,0.9,0.7,1l2.9,0.7
						c0.5,0.1,0.9-0.2,1-0.7l1.3-5.9C212,196,211.7,195.6,211.2,195.5z"/>
					
						<linearGradient id="SVGID_00000001645372059296506620000013388230630848838833_" gradientUnits="userSpaceOnUse" x1="-277.18" y1="-538.8857" x2="-270.317" y2="-558.8109" gradientTransform="matrix(1 0 0 -1 299.1 -350.01)">
						<stop  offset="0" style="stop-color:#145E8F"/>
						<stop  offset="0.72" style="stop-color:#3498DB"/>
						<stop  offset="1" style="stop-color:#4FABE8"/>
					</linearGradient>
					<path style="fill:url(#SVGID_00000001645372059296506620000013388230630848838833_);" d="M28.3,187.5l-6,1.9l-6,1.9l3.7,11.9
						l8.2,5.1l3.8-8.8C32.1,199.5,28.3,187.5,28.3,187.5z"/>
					
						<linearGradient id="SVGID_00000015320326126237160590000000457491629433360259_" gradientUnits="userSpaceOnUse" x1="-114.3489" y1="-396.082" x2="-107.8842" y2="-378.7101" gradientTransform="matrix(1 0 0 -1 299.1 -350.01)">
						<stop  offset="0" style="stop-color:#145E8F"/>
						<stop  offset="0.72" style="stop-color:#3498DB"/>
						<stop  offset="1" style="stop-color:#4FABE8"/>
					</linearGradient>
					<path style="fill:url(#SVGID_00000015320326126237160590000000457491629433360259_);" d="M199.2,40.9l-8-6.3
						c-0.2-0.1-0.3-0.3-0.4-0.5c-0.1-0.2-0.1-0.4,0-0.6l1.8-10c0.1-0.7-0.6-1.2-1.2-1l-6.2,2.3l-6.2,2.3c-0.7,0.2-0.8,1.1-0.2,1.5
						l8,6.3c0.2,0.1,0.3,0.3,0.4,0.5c0.1,0.2,0.1,0.4,0,0.6l-1.8,10c-0.1,0.7,0.6,1.2,1.2,1l6.2-2.3l6.2-2.3
						C199.6,42.2,199.7,41.3,199.2,40.9z"/>
					<path class="st9" d="M86.1,28.7c-18.4-2.9-34.2-0.9-47.2,6.1s-23.4,19.1-31,36.1L7,70.5C14.7,53.3,25.3,41,38.4,33.9
						c13.2-7.1,29.2-9.2,47.8-6.2L86.1,28.7z"/>
					<path class="st1" d="M7.4,72.1c0.8,0,1.5-0.7,1.5-1.5s-0.7-1.5-1.5-1.5s-1.5,0.7-1.5,1.5S6.6,72.1,7.4,72.1z"/>
					<path class="st1" d="M86.2,29.6c0.8,0,1.5-0.7,1.5-1.5s-0.7-1.5-1.5-1.5s-1.5,0.7-1.5,1.5S85.4,29.6,86.2,29.6z"/>
					<path class="st9" d="M64.1,20.1L12.8,47.8l0.5,0.9L64.6,21L64.1,20.1z"/>
					<path class="st1" d="M64.3,22c0.8,0,1.5-0.7,1.5-1.5S65.1,19,64.3,19c-0.8,0-1.5,0.7-1.5,1.5C62.9,21.3,63.5,22,64.3,22z"/>
					<path class="st1" d="M13,49.6c0.8,0,1.5-0.7,1.5-1.5s-0.7-1.5-1.5-1.5s-1.5,0.7-1.5,1.5C11.5,49,12.2,49.6,13,49.6z"/>
					<path class="st1" d="M39.6,31.3l-4,2.1l2.1,4l4-2.1C41.7,35.3,39.6,31.3,39.6,31.3z"/>
					
						<linearGradient id="SVGID_00000127728045590482038470000014410001909972636062_" gradientUnits="userSpaceOnUse" x1="-260.7601" y1="-384.4058" x2="-265.458" y2="-394.9047" gradientTransform="matrix(1 0 0 -1 299.1 -350.01)">
						<stop  offset="0.18" style="stop-color:#FFC573"/>
						<stop  offset="1" style="stop-color:#D9912B"/>
					</linearGradient>
					<path style="fill:url(#SVGID_00000127728045590482038470000014410001909972636062_);" d="M39,41.7l-3,1.4
						c-0.2,0.1-0.3,0.2-0.3,0.3L35,44.9c-0.2,0.4-0.6,0.5-0.9,0.3l-1-0.4c-0.4-0.2-0.5-0.6-0.3-0.9l0.6-1.4c0.1-0.2,0.1-0.3,0-0.5
						l-0.9-3.3c-0.1-0.3,0-0.6,0.3-0.8l5.4-3.6l-1.8,4c-0.1,0.2-0.3,0.4-0.5,0.4c-0.3,0-0.6,0.2-0.7,0.5c-0.2,0.5,0,1,0.5,1.2
						s1,0,1.2-0.5c0.1-0.3,0.1-0.6-0.1-0.9c-0.1-0.2-0.1-0.4,0-0.6l1.8-4l0.8,6.4C39.5,41.2,39.3,41.5,39,41.7z"/>
					
						<linearGradient id="SVGID_00000160174875045393976690000011112829265731313331_" gradientUnits="userSpaceOnUse" x1="-239.6814" y1="-555.3124" x2="-239.2831" y2="-546.2228" gradientTransform="matrix(1 0 0 -1 299.1 -350.01)">
						<stop  offset="0" style="stop-color:#145E8F"/>
						<stop  offset="0.72" style="stop-color:#3498DB"/>
						<stop  offset="1" style="stop-color:#4FABE8"/>
					</linearGradient>
					<path style="fill:url(#SVGID_00000160174875045393976690000011112829265731313331_);" d="M60.3,204.4c-0.7,0-1.5-0.4-2.2-1
						c-0.8-0.8-1.3-1.9-1.6-3.2c-0.6-2.7,0.3-5.2,2.1-5.6l0.2,1c-1.2,0.3-1.8,2.3-1.3,4.4c0.3,1.1,0.7,2,1.4,2.7
						c0.6,0.6,1.2,0.8,1.7,0.7c0.7-0.2,1.3-1,1.4-2.2l1,0.1c-0.2,1.6-1,2.8-2.2,3C60.7,204.4,60.5,204.4,60.3,204.4L60.3,204.4z"/>
					
						<linearGradient id="SVGID_00000137107525934175236880000015091114186022945189_" gradientUnits="userSpaceOnUse" x1="-245.009" y1="-555.0757" x2="-244.6005" y2="-545.9864" gradientTransform="matrix(1 0 0 -1 299.1 -350.01)">
						<stop  offset="0" style="stop-color:#145E8F"/>
						<stop  offset="0.72" style="stop-color:#3498DB"/>
						<stop  offset="1" style="stop-color:#4FABE8"/>
					</linearGradient>
					<path style="fill:url(#SVGID_00000137107525934175236880000015091114186022945189_);" d="M55,204.1c-0.7,0-1.5-0.4-2.2-1
						c-0.8-0.8-1.3-1.9-1.6-3.2s-0.3-2.5,0.1-3.6c0.4-1.1,1.1-1.9,2-2.1l0.2,1c-0.5,0.1-1,0.6-1.2,1.4c-0.3,0.9-0.3,1.9-0.1,3
						s0.7,2,1.4,2.7c0.6,0.6,1.2,0.8,1.7,0.7c0.7-0.2,1.3-1,1.4-2.2l1,0.1c-0.2,1.6-1,2.8-2.2,3C55.4,204.1,55.2,204.1,55,204.1
						L55,204.1L55,204.1z"/>
				</g>
			</g>
		</g>
	</g>
</g>
</svg>
