<svg width="51" height="51" viewBox="0 0 51 51" fill="none" xmlns="http://www.w3.org/2000/svg">
<g clip-path="url(#clip0_58_733)">
<g clip-path="url(#clip1_58_733)">
<path d="M35.5219 1.21875H14.5406C6.78657 1.21875 0.53125 7.47823 0.53125 15.2374V36.2327C0.53125 43.9593 6.78657 50.2187 14.5406 50.2187H35.5219C43.2433 50.2187 49.5312 43.9593 49.5312 36.2327V15.2374C49.5312 7.47823 43.2433 1.21875 35.5219 1.21875ZM35.7826 25.7025C35.7826 28.7018 33.3717 31.0817 30.4069 31.0817C27.4422 31.0817 25.0312 28.7018 25.0312 25.7025V36.4935C25.0312 39.4603 22.6203 41.8728 19.623 41.8728C16.6257 41.8728 14.2473 39.4603 14.2473 36.4935C14.2473 33.5268 16.6582 31.0817 19.623 31.0817C16.6582 31.0817 14.2473 28.7018 14.2473 25.7025C14.2473 22.7031 16.6582 20.3232 19.623 20.3232C16.6582 20.3232 14.2473 17.9107 14.2473 14.944C14.2473 11.9772 16.6582 9.56472 19.623 9.56472H30.4069C33.3717 9.56472 35.7826 11.9772 35.7826 14.944C35.7826 17.9107 33.3717 20.3232 30.4069 20.3232C33.3717 20.3232 35.7826 22.7357 35.7826 25.7025ZM25.0312 25.7025C25.0312 22.7357 27.4422 20.3232 30.4069 20.3232H25.0312V25.7025Z" fill="#3498DB"/>
</g>
</g>
<defs>
<clipPath id="clip0_58_733">
<rect width="50" height="50" fill="white" transform="translate(0.34375 0.78125)"/>
</clipPath>
<clipPath id="clip1_58_733">
<rect width="49" height="49" fill="white" transform="translate(0.53125 1.21875)"/>
</clipPath>
</defs>
</svg>
