<?xml version="1.0" encoding="utf-8"?>
<!-- Generator: Adobe Illustrator 26.2.1, SVG Export Plug-In . SVG Version: 6.00 Build 0)  -->
<svg version="1.1" id="Layer_1" xmlns="http://www.w3.org/2000/svg" xmlns:xlink="http://www.w3.org/1999/xlink" x="0px" y="0px"
	 viewBox="0 0 20.6 16" style="enable-background:new 0 0 20.6 16;" xml:space="preserve">
<style type="text/css">
	.st0{fill:#F0F0F0;}
</style>
<g id="a">
</g>
<g id="b">
	<g id="c">
		<g>
			<path class="st0" d="M10.3,11.4c-0.1,0-0.2,0-0.2-0.1L4.2,8.2c0,0-0.1,0-0.1-0.1l-3.8-2C0.1,6.1,0,5.9,0,5.7s0.1-0.3,0.3-0.4
				l9.8-5.2c0.1-0.1,0.3-0.1,0.5,0l9.8,5.2c0.2,0.1,0.3,0.3,0.3,0.4s-0.1,0.3-0.3,0.4l-9.8,5.2C10.4,11.4,10.4,11.4,10.3,11.4
				L10.3,11.4z M4.7,7.4l5.6,3L19,5.7l-8.7-4.6L1.6,5.7L4.7,7.4C4.6,7.3,4.7,7.4,4.7,7.4L4.7,7.4z"/>
			<path class="st0" d="M10.3,16c-3.6,0-6.4-2-6.4-3.8V7.8c0-0.3,0.2-0.5,0.5-0.5s0.5,0.2,0.5,0.5v4.4c0,1.1,2.3,2.8,5.4,2.8
				s5.4-1.7,5.4-2.8V7.8c0-0.3,0.2-0.5,0.5-0.5c0.3,0,0.5,0.2,0.5,0.5v4.4C16.7,14,13.9,16,10.3,16z"/>
			<path class="st0" d="M20.1,14.7c-0.3,0-0.5-0.2-0.5-0.5V5.7c0-0.3,0.2-0.5,0.5-0.5s0.5,0.2,0.5,0.5v8.5
				C20.6,14.5,20.4,14.7,20.1,14.7z"/>
		</g>
	</g>
</g>
</svg>
