<?xml version="1.0" encoding="UTF-8"?><svg xmlns="http://www.w3.org/2000/svg" viewBox="0 0 20.57 16"><defs><style>.d{fill:#3498db;}</style></defs><g id="a"/><g id="b"><g id="c"><g><path class="d" d="M10.29,11.43c-.08,0-.16-.02-.23-.06l-5.87-3.13s-.06-.03-.08-.06L.27,6.15c-.16-.09-.27-.26-.27-.44s.1-.35,.27-.44L10.05,.06c.15-.08,.32-.08,.47,0l9.78,5.21c.16,.09,.26,.26,.26,.44s-.1,.35-.26,.44l-9.78,5.22c-.07,.04-.15,.06-.24,.06ZM4.74,7.41l5.55,2.96,8.71-4.66L10.29,1.07,1.56,5.71l3.09,1.64s.06,.03,.08,.06Z"/><path class="d" d="M10.29,16c-3.59,0-6.37-2.02-6.37-3.76V7.81c0-.28,.22-.5,.5-.5s.5,.22,.5,.5v4.43c0,1.09,2.31,2.76,5.37,2.76s5.37-1.67,5.37-2.76V7.8c0-.28,.22-.5,.5-.5s.5,.22,.5,.5v4.44c0,1.74-2.78,3.76-6.37,3.76Z"/><path class="d" d="M20.07,14.69c-.28,0-.5-.22-.5-.5V5.71c0-.28,.22-.5,.5-.5s.5,.22,.5,.5V14.19c0,.28-.22,.5-.5,.5Z"/></g></g></g></svg>