<?xml version="1.0" encoding="UTF-8"?><svg xmlns="http://www.w3.org/2000/svg" xmlns:xlink="http://www.w3.org/1999/xlink" viewBox="0 0 24 24"><defs><style>.f{fill:url(#d);}.g{fill:url(#e);}</style><linearGradient id="d" x1="8.4" y1="13.55" x2="15.59" y2="13.55" gradientTransform="matrix(1, 0, 0, 1, 0, 0)" gradientUnits="userSpaceOnUse"><stop offset="0" stop-color="#2f1cef"/><stop offset="1" stop-color="#4933fd"/></linearGradient><linearGradient id="e" x1="0" y1="12" x2="24" y2="12" xlink:href="#d"/></defs><g id="a"/><g id="b"><g id="c"><g><polygon class="f" points="8.44 9.87 8.4 9.48 15.59 9.48 15.56 9.87 15.49 10.59 15.46 10.92 9.97 10.92 10.1 12.39 15.33 12.39 15.3 12.77 14.96 16.55 14.94 16.79 12 17.61 12 17.61 11.99 17.61 9.05 16.79 8.85 14.54 10.29 14.54 10.4 15.68 11.99 16.12 12 16.12 12 16.11 13.6 15.68 13.76 13.82 8.79 13.82 8.44 9.87"/><path class="g" d="M17.14,0H6.86C3.07,0,0,3.07,0,6.86v10.29c0,3.79,3.07,6.86,6.86,6.86h10.29c3.78,0,6.86-3.07,6.86-6.86V6.86c0-3.79-3.08-6.86-6.86-6.86Zm-2.22,3.91h.73v1.46h1.03v.72h-1.75V3.91Zm-2.82,0h.76l.47,.77,.47-.77h.76v2.18h-.73v-1.08l-.5,.78h-.01l-.5-.78v1.08h-.71V3.91Zm-2.33,0h2.01v.72h-.64v1.46h-.73v-1.46h-.64v-.72Zm-2.44,0h.73v.72h.67v-.72h.73v2.18h-.73v-.73h-.67v.73h-.73V3.91Zm9.36,14.88l-4.7,1.3-4.68-1.3-1.04-11.7h11.47l-1.04,11.7Z"/></g></g></g></svg>