<?xml version="1.0" encoding="utf-8"?>
<!-- Generator: Adobe Illustrator 27.3.1, SVG Export Plug-In . SVG Version: 6.00 Build 0)  -->
<svg version="1.1" id="Layer_1" xmlns="http://www.w3.org/2000/svg" xmlns:xlink="http://www.w3.org/1999/xlink" x="0px" y="0px"
	 viewBox="0 0 24 24" style="enable-background:new 0 0 24 24;" xml:space="preserve">
<style type="text/css">
	.st0{fill:#3498DB;}
</style>
<g id="a">
</g>
<g id="b">
	<g id="c">
		<g>
			<polygon class="st0" points="8.4,9.9 8.4,9.5 15.6,9.5 15.6,9.9 15.5,10.6 15.5,10.9 10,10.9 10.1,12.4 15.3,12.4 15.3,12.8 
				15,16.5 14.9,16.8 12,17.6 12,17.6 12,17.6 9.1,16.8 8.9,14.5 10.3,14.5 10.4,15.7 12,16.1 12,16.1 12,16.1 13.6,15.7 13.8,13.8 
				8.8,13.8 			"/>
			<path class="st0" d="M17.1,0H6.9C3.1,0,0,3.1,0,6.9v10.3C0,20.9,3.1,24,6.9,24h10.3c3.8,0,6.9-3.1,6.9-6.9V6.9
				C24,3.1,20.9,0,17.1,0L17.1,0z M14.9,3.9h0.7v1.5h1v0.7h-1.8L14.9,3.9L14.9,3.9z M12.1,3.9h0.8l0.5,0.8l0.5-0.8h0.8v2.2h-0.7V5
				l-0.5,0.8h0L12.8,5v1.1h-0.7L12.1,3.9L12.1,3.9z M9.8,3.9h2v0.7h-0.6v1.5h-0.7V4.6H9.8V3.9z M7.3,3.9h0.7v0.7h0.7V3.9h0.7v2.2
				H8.7V5.4H8.1v0.7H7.3V3.9z M16.7,18.8L12,20.1l-4.7-1.3l-1-11.7h11.5L16.7,18.8L16.7,18.8z"/>
		</g>
	</g>
</g>
</svg>
