<svg width="121" height="120" viewBox="0 0 121 120" fill="none" xmlns="http://www.w3.org/2000/svg">
<g clip-path="url(#clip0_150_227)">
<path d="M63.75 78.35C64.45 76.55 64 74.5 62.6 73.1L52.15 62.8L52.3 62.65C61 52.95 67.2 41.8 70.85 30H80.55C83.25 30 85.5 27.75 85.5 25.05V24.95C85.5 22.25 83.25 20 80.55 20H50.5V15C50.5 12.25 48.25 10 45.5 10C42.75 10 40.5 12.25 40.5 15V20H10.45C7.75 20 5.5 22.25 5.5 24.95C5.5 27.7 7.75 29.9 10.45 29.9H61.35C58 39.6 52.7 48.75 45.5 56.75C41.45 52.3 38.05 47.45 35.2 42.35C34.4 40.9 32.95 40 31.3 40C27.85 40 25.65 43.75 27.35 46.75C30.5 52.4 34.35 57.8 38.85 62.8L17 84.35C15 86.3 15 89.5 17 91.45C18.95 93.4 22.1 93.4 24.1 91.45L45.5 70L55.6 80.1C58.15 82.65 62.5 81.7 63.75 78.35ZM88 50C85 50 82.3 51.85 81.25 54.7L62.9 103.7C61.7 106.75 64 110 67.25 110C69.2 110 70.95 108.8 71.65 106.95L76.1 95H99.85L104.35 106.95C105.05 108.75 106.8 110 108.75 110C112 110 114.3 106.75 113.15 103.7L94.8 54.7C93.7 51.85 91 50 88 50ZM79.9 85L88 63.35L96.1 85H79.9Z" fill="#F0F0F0"/>
</g>
<defs>
<clipPath id="clip0_150_227">
<rect width="120" height="120" fill="white" transform="translate(0.5)"/>
</clipPath>
</defs>
</svg>
