<?xml version="1.0" encoding="UTF-8"?><svg xmlns="http://www.w3.org/2000/svg" xmlns:xlink="http://www.w3.org/1999/xlink" viewBox="0 0 15.03 15.03"><defs><style>.f{fill:url(#d);}.g{fill:url(#e);}</style><linearGradient id="d" x1="4.07" y1="6.67" x2="5.7" y2="6.67" gradientTransform="matrix(1, 0, 0, 1, 0, 0)" gradientUnits="userSpaceOnUse"><stop offset="0" stop-color="#2f1cef"/><stop offset="1" stop-color="#4933fd"/></linearGradient><linearGradient id="e" x1="0" y1="7.52" x2="15.03" y2="7.52" xlink:href="#d"/></defs><g id="a"/><g id="b"><g id="c"><g><path class="f" d="M4.9,5.56c.22,.66,.42,1.21,.59,1.65l.21,.56h-1.63l.21-.56c.17-.44,.37-.99,.59-1.65h.02Z"/><path class="g" d="M10.74,0H4.3C1.92,0,0,1.92,0,4.3v6.44c0,2.37,1.92,4.3,4.3,4.3h6.44c2.37,0,4.3-1.92,4.3-4.3V4.3c0-2.37-1.93-4.3-4.3-4.3ZM6.7,10.35l-.62-1.61H3.7l-.62,1.61H1.85l2.51-6.31h1.06l2.5,6.31h-1.22Zm6.06-1.78c0,.37-.06,.68-.19,.94-.07,.14-.17,.27-.28,.39-.12,.12-.25,.22-.41,.3-.16,.09-.33,.15-.53,.19-.2,.05-.42,.07-.66,.07-.46,0-.84-.08-1.14-.23-.3-.16-.53-.37-.68-.63-.08-.14-.14-.3-.18-.47s-.06-.36-.06-.56v-2.8h1.12v2.68c0,.15,.01,.28,.04,.4,.02,.11,.05,.21,.1,.29,.08,.14,.18,.24,.32,.31,.14,.06,.3,.1,.49,.1,.2,0,.38-.04,.52-.11,.14-.08,.25-.19,.33-.34,.07-.14,.11-.35,.11-.62v-2.7h1.12v2.8Z"/></g></g></g></svg>