<?xml version="1.0" encoding="UTF-8"?><svg xmlns="http://www.w3.org/2000/svg" xmlns:xlink="http://www.w3.org/1999/xlink" viewBox="0 0 15.03 15.03"><defs><style>.f{fill:url(#d);}.g{fill:url(#e);}</style><linearGradient id="d" x1="5.5" y1="6.67" x2="7.14" y2="6.67" gradientTransform="matrix(1, 0, 0, 1, 0, 0)" gradientUnits="userSpaceOnUse"><stop offset="0" stop-color="#2f1cef"/><stop offset="1" stop-color="#4933fd"/></linearGradient><linearGradient id="e" x1="0" y1="7.52" x2="15.03" y2="7.52" xlink:href="#d"/></defs><g id="a"/><g id="b"><g id="c"><g><path class="f" d="M6.33,5.56c.23,.66,.42,1.21,.59,1.66l.21,.56h-1.63l.22-.56c.17-.45,.37-1,.59-1.66h.02Z"/><path class="g" d="M10.74,0H4.3C1.92,0,0,1.93,0,4.3v6.44c0,2.37,1.92,4.3,4.3,4.3h6.44c2.37,0,4.3-1.92,4.3-4.3V4.3c0-2.37-1.92-4.3-4.3-4.3Zm-2.61,10.35l-.62-1.61h-2.38l-.62,1.61h-1.23l2.51-6.31h1.06l2.51,6.31h-1.22Zm3.12,0h-1.12V5.78h1.12v4.57Zm.03-5.62h-1.18v-1.21h1.18v1.21Z"/></g></g></g></svg>