<?xml version="1.0" encoding="UTF-8"?><svg xmlns="http://www.w3.org/2000/svg" xmlns:xlink="http://www.w3.org/1999/xlink" viewBox="0 0 15.03 15.03"><defs><style>.f{fill:url(#d);}.g{fill:url(#e);}</style><linearGradient id="d" x1="4.48" y1="5.97" x2="6.7" y2="5.97" gradientTransform="matrix(1, 0, 0, 1, 0, 0)" gradientUnits="userSpaceOnUse"><stop offset="0" stop-color="#2f1cef"/><stop offset="1" stop-color="#4933fd"/></linearGradient><linearGradient id="e" x1="0" y1="7.52" x2="15.03" y2="7.52" xlink:href="#d"/></defs><g id="a"/><g id="b"><g id="c"><g><path class="f" d="M6.58,5.43c.08,.14,.12,.3,.12,.48,0,.15-.03,.29-.08,.42-.06,.13-.15,.24-.28,.32-.13,.09-.3,.16-.51,.21-.21,.05-.47,.08-.78,.08-.11,0-.21,0-.32-.01s-.19-.01-.25-.02v-1.91h.65c.24,0,.43,.01,.6,.03,.16,.02,.3,.05,.41,.09,.21,.08,.36,.18,.45,.31Z"/><path class="g" d="M10.74,0H4.3C1.92,0,0,1.93,0,4.3v6.44c0,2.37,1.92,4.3,4.3,4.3h6.44c2.37,0,4.3-1.92,4.3-4.3V4.3c0-2.37-1.93-4.3-4.3-4.3Zm-3.03,6.76c-.13,.24-.31,.45-.55,.62-.24,.17-.54,.3-.89,.39-.35,.09-.75,.14-1.21,.14-.1,0-.2,0-.31,0-.1,0-.19-.01-.28-.02v2.47h-1.16V4.04h1.82c.31,0,.57,.02,.8,.04,.23,.03,.43,.06,.61,.12,.43,.13,.76,.34,1,.63,.23,.29,.35,.66,.35,1.1,0,.31-.06,.58-.19,.83Zm4.25,2.86c-.1,.19-.23,.35-.41,.48-.17,.13-.38,.22-.63,.28-.24,.06-.51,.09-.8,.09s-.55-.02-.78-.07c-.23-.04-.42-.1-.57-.17v-.9c.25,.09,.47,.16,.68,.19,.21,.03,.4,.05,.58,.05,.14,0,.27-.01,.39-.03,.12-.02,.23-.05,.31-.1,.09-.05,.16-.1,.2-.17,.05-.06,.08-.14,.08-.24s-.03-.18-.08-.24c-.06-.06-.13-.11-.22-.16-.09-.04-.2-.08-.32-.11-.12-.03-.24-.06-.37-.09-.16-.05-.32-.1-.47-.16-.15-.06-.28-.13-.4-.23-.11-.09-.2-.21-.27-.35-.06-.14-.1-.32-.1-.53,0-.25,.05-.47,.14-.66,.09-.19,.21-.34,.37-.47,.16-.12,.33-.21,.54-.27,.2-.06,.42-.09,.66-.09,.28,0,.54,.03,.78,.07,.25,.05,.47,.11,.67,.18v.91c-.1-.04-.21-.07-.33-.1-.11-.03-.23-.06-.35-.08-.12-.02-.24-.04-.35-.05-.12-.02-.23-.02-.33-.02-.13,0-.24,.01-.33,.04-.09,.03-.17,.06-.23,.1-.05,.04-.1,.09-.12,.14-.03,.06-.04,.11-.04,.17,0,.11,.03,.19,.09,.26,.05,.06,.13,.12,.23,.16,.1,.04,.2,.08,.31,.1,.11,.03,.21,.05,.31,.08,.16,.04,.31,.09,.47,.14,.16,.05,.3,.13,.42,.22,.12,.1,.23,.22,.31,.38,.08,.15,.12,.34,.12,.58,0,.26-.05,.48-.15,.68Z"/></g></g></g></svg>