<?xml version="1.0" encoding="UTF-8"?><svg xmlns="http://www.w3.org/2000/svg" xmlns:xlink="http://www.w3.org/1999/xlink" viewBox="0 0 15.03 15.03"><defs><style>.f{fill:url(#d);}.g{fill:url(#e);}</style><linearGradient id="d" x1="4.23" y1="6.67" x2="5.86" y2="6.67" gradientTransform="matrix(1, 0, 0, 1, 0, 0)" gradientUnits="userSpaceOnUse"><stop offset="0" stop-color="#2f1cef"/><stop offset="1" stop-color="#4933fd"/></linearGradient><linearGradient id="e" x1="0" y1="7.52" x2="15.03" y2="7.52" xlink:href="#d"/></defs><g id="a"/><g id="b"><g id="c"><g><path class="f" d="M5.05,5.56c.23,.66,.42,1.21,.59,1.66l.21,.56h-1.63l.22-.56c.17-.45,.37-1,.59-1.66h.02Z"/><path class="g" d="M11.53,7.14c-.03-.12-.09-.22-.16-.31-.08-.09-.16-.16-.27-.21-.1-.05-.23-.08-.37-.08s-.26,.03-.38,.08c-.11,.05-.2,.12-.28,.21-.08,.09-.14,.19-.19,.31-.05,.12-.08,.25-.09,.39h1.8c0-.14-.02-.26-.06-.39Zm0,0c-.03-.12-.09-.22-.16-.31-.08-.09-.16-.16-.27-.21-.1-.05-.23-.08-.37-.08s-.26,.03-.38,.08c-.11,.05-.2,.12-.28,.21-.08,.09-.14,.19-.19,.31-.05,.12-.08,.25-.09,.39h1.8c0-.14-.02-.26-.06-.39Zm0,0c-.03-.12-.09-.22-.16-.31-.08-.09-.16-.16-.27-.21-.1-.05-.23-.08-.37-.08s-.26,.03-.38,.08c-.11,.05-.2,.12-.28,.21-.08,.09-.14,.19-.19,.31-.05,.12-.08,.25-.09,.39h1.8c0-.14-.02-.26-.06-.39Zm0,0c-.03-.12-.09-.22-.16-.31-.08-.09-.16-.16-.27-.21-.1-.05-.23-.08-.37-.08s-.26,.03-.38,.08c-.11,.05-.2,.12-.28,.21-.08,.09-.14,.19-.19,.31-.05,.12-.08,.25-.09,.39h1.8c0-.14-.02-.26-.06-.39Zm0,0c-.03-.12-.09-.22-.16-.31-.08-.09-.16-.16-.27-.21-.1-.05-.23-.08-.37-.08s-.26,.03-.38,.08c-.11,.05-.2,.12-.28,.21-.08,.09-.14,.19-.19,.31-.05,.12-.08,.25-.09,.39h1.8c0-.14-.02-.26-.06-.39Zm0,0c-.03-.12-.09-.22-.16-.31-.08-.09-.16-.16-.27-.21-.1-.05-.23-.08-.37-.08s-.26,.03-.38,.08c-.11,.05-.2,.12-.28,.21-.08,.09-.14,.19-.19,.31-.05,.12-.08,.25-.09,.39h1.8c0-.14-.02-.26-.06-.39Zm0,0c-.03-.12-.09-.22-.16-.31-.08-.09-.16-.16-.27-.21-.1-.05-.23-.08-.37-.08s-.26,.03-.38,.08c-.11,.05-.2,.12-.28,.21-.08,.09-.14,.19-.19,.31-.05,.12-.08,.25-.09,.39h1.8c0-.14-.02-.26-.06-.39Zm0,0c-.03-.12-.09-.22-.16-.31-.08-.09-.16-.16-.27-.21-.1-.05-.23-.08-.37-.08s-.26,.03-.38,.08c-.11,.05-.2,.12-.28,.21-.08,.09-.14,.19-.19,.31-.05,.12-.08,.25-.09,.39h1.8c0-.14-.02-.26-.06-.39Zm0,0c-.03-.12-.09-.22-.16-.31-.08-.09-.16-.16-.27-.21-.1-.05-.23-.08-.37-.08s-.26,.03-.38,.08c-.11,.05-.2,.12-.28,.21-.08,.09-.14,.19-.19,.31-.05,.12-.08,.25-.09,.39h1.8c0-.14-.02-.26-.06-.39Zm0,0c-.03-.12-.09-.22-.16-.31-.08-.09-.16-.16-.27-.21-.1-.05-.23-.08-.37-.08s-.26,.03-.38,.08c-.11,.05-.2,.12-.28,.21-.08,.09-.14,.19-.19,.31-.05,.12-.08,.25-.09,.39h1.8c0-.14-.02-.26-.06-.39Zm0,0c-.03-.12-.09-.22-.16-.31-.08-.09-.16-.16-.27-.21-.1-.05-.23-.08-.37-.08s-.26,.03-.38,.08c-.11,.05-.2,.12-.28,.21-.08,.09-.14,.19-.19,.31-.05,.12-.08,.25-.09,.39h1.8c0-.14-.02-.26-.06-.39Zm0,0c-.03-.12-.09-.22-.16-.31-.08-.09-.16-.16-.27-.21-.1-.05-.23-.08-.37-.08s-.26,.03-.38,.08c-.11,.05-.2,.12-.28,.21-.08,.09-.14,.19-.19,.31-.05,.12-.08,.25-.09,.39h1.8c0-.14-.02-.26-.06-.39Zm0,0c-.03-.12-.09-.22-.16-.31-.08-.09-.16-.16-.27-.21-.1-.05-.23-.08-.37-.08s-.26,.03-.38,.08c-.11,.05-.2,.12-.28,.21-.08,.09-.14,.19-.19,.31-.05,.12-.08,.25-.09,.39h1.8c0-.14-.02-.26-.06-.39Zm0,0c-.03-.12-.09-.22-.16-.31-.08-.09-.16-.16-.27-.21-.1-.05-.23-.08-.37-.08s-.26,.03-.38,.08c-.11,.05-.2,.12-.28,.21-.08,.09-.14,.19-.19,.31-.05,.12-.08,.25-.09,.39h1.8c0-.14-.02-.26-.06-.39Zm0,0c-.03-.12-.09-.22-.16-.31-.08-.09-.16-.16-.27-.21-.1-.05-.23-.08-.37-.08s-.26,.03-.38,.08c-.11,.05-.2,.12-.28,.21-.08,.09-.14,.19-.19,.31-.05,.12-.08,.25-.09,.39h1.8c0-.14-.02-.26-.06-.39Zm0,0c-.03-.12-.09-.22-.16-.31-.08-.09-.16-.16-.27-.21-.1-.05-.23-.08-.37-.08s-.26,.03-.38,.08c-.11,.05-.2,.12-.28,.21-.08,.09-.14,.19-.19,.31-.05,.12-.08,.25-.09,.39h1.8c0-.14-.02-.26-.06-.39Zm0,0c-.03-.12-.09-.22-.16-.31-.08-.09-.16-.16-.27-.21-.1-.05-.23-.08-.37-.08s-.26,.03-.38,.08c-.11,.05-.2,.12-.28,.21-.08,.09-.14,.19-.19,.31-.05,.12-.08,.25-.09,.39h1.8c0-.14-.02-.26-.06-.39Zm0,0c-.03-.12-.09-.22-.16-.31-.08-.09-.16-.16-.27-.21-.1-.05-.23-.08-.37-.08s-.26,.03-.38,.08c-.11,.05-.2,.12-.28,.21-.08,.09-.14,.19-.19,.31-.05,.12-.08,.25-.09,.39h1.8c0-.14-.02-.26-.06-.39Zm0,0c-.03-.12-.09-.22-.16-.31-.08-.09-.16-.16-.27-.21-.1-.05-.23-.08-.37-.08s-.26,.03-.38,.08c-.11,.05-.2,.12-.28,.21-.08,.09-.14,.19-.19,.31-.05,.12-.08,.25-.09,.39h1.8c0-.14-.02-.26-.06-.39Zm0,0c-.03-.12-.09-.22-.16-.31-.08-.09-.16-.16-.27-.21-.1-.05-.23-.08-.37-.08s-.26,.03-.38,.08c-.11,.05-.2,.12-.28,.21-.08,.09-.14,.19-.19,.31-.05,.12-.08,.25-.09,.39h1.8c0-.14-.02-.26-.06-.39Zm0,0c-.03-.12-.09-.22-.16-.31-.08-.09-.16-.16-.27-.21-.1-.05-.23-.08-.37-.08s-.26,.03-.38,.08c-.11,.05-.2,.12-.28,.21-.08,.09-.14,.19-.19,.31-.05,.12-.08,.25-.09,.39h1.8c0-.14-.02-.26-.06-.39Zm0,0c-.03-.12-.09-.22-.16-.31-.08-.09-.16-.16-.27-.21-.1-.05-.23-.08-.37-.08s-.26,.03-.38,.08c-.11,.05-.2,.12-.28,.21-.08,.09-.14,.19-.19,.31-.05,.12-.08,.25-.09,.39h1.8c0-.14-.02-.26-.06-.39Zm0,0c-.03-.12-.09-.22-.16-.31-.08-.09-.16-.16-.27-.21-.1-.05-.23-.08-.37-.08s-.26,.03-.38,.08c-.11,.05-.2,.12-.28,.21-.08,.09-.14,.19-.19,.31-.05,.12-.08,.25-.09,.39h1.8c0-.14-.02-.26-.06-.39Zm0,0c-.03-.12-.09-.22-.16-.31-.08-.09-.16-.16-.27-.21-.1-.05-.23-.08-.37-.08s-.26,.03-.38,.08c-.11,.05-.2,.12-.28,.21-.08,.09-.14,.19-.19,.31-.05,.12-.08,.25-.09,.39h1.8c0-.14-.02-.26-.06-.39Zm0,0c-.03-.12-.09-.22-.16-.31-.08-.09-.16-.16-.27-.21-.1-.05-.23-.08-.37-.08s-.26,.03-.38,.08c-.11,.05-.2,.12-.28,.21-.08,.09-.14,.19-.19,.31-.05,.12-.08,.25-.09,.39h1.8c0-.14-.02-.26-.06-.39Zm0,0c-.03-.12-.09-.22-.16-.31-.08-.09-.16-.16-.27-.21-.1-.05-.23-.08-.37-.08s-.26,.03-.38,.08c-.11,.05-.2,.12-.28,.21-.08,.09-.14,.19-.19,.31-.05,.12-.08,.25-.09,.39h1.8c0-.14-.02-.26-.06-.39Zm-.79-7.14H4.3C1.92,0,0,1.93,0,4.3v6.44c0,2.37,1.92,4.3,4.3,4.3h6.44c2.37,0,4.3-1.92,4.3-4.3V4.3c0-2.37-1.92-4.3-4.3-4.3Zm-3.89,10.35l-.62-1.61H3.85l-.62,1.61h-1.23l2.51-6.31h1.06l2.51,6.31h-1.22Zm5.88-1.95h-3c.02,.21,.06,.39,.14,.54,.08,.15,.18,.27,.31,.37,.13,.09,.27,.16,.45,.2,.17,.04,.35,.06,.55,.06,.21,0,.44-.02,.68-.06,.24-.04,.48-.11,.72-.19v.89c-.14,.06-.37,.12-.67,.18-.3,.06-.61,.09-.93,.09s-.63-.04-.92-.12c-.29-.09-.54-.22-.76-.4-.21-.19-.39-.43-.52-.72s-.19-.66-.19-1.07,.06-.78,.18-1.09c.12-.31,.28-.57,.48-.77,.2-.2,.43-.36,.69-.46,.26-.1,.53-.16,.81-.16s.56,.05,.8,.13c.24,.09,.46,.23,.63,.41,.18,.19,.32,.43,.41,.73,.1,.3,.15,.65,.15,1.06,0,.16-.01,.29-.02,.4Zm-1.36-1.57c-.08-.09-.16-.16-.27-.21-.1-.05-.23-.08-.37-.08s-.26,.03-.38,.08c-.11,.05-.2,.12-.28,.21-.08,.09-.14,.19-.19,.31-.05,.12-.08,.25-.09,.39h1.8c0-.14-.02-.26-.06-.39-.03-.12-.09-.22-.16-.31Zm.16,.31c-.03-.12-.09-.22-.16-.31-.08-.09-.16-.16-.27-.21-.1-.05-.23-.08-.37-.08s-.26,.03-.38,.08c-.11,.05-.2,.12-.28,.21-.08,.09-.14,.19-.19,.31-.05,.12-.08,.25-.09,.39h1.8c0-.14-.02-.26-.06-.39Zm0,0c-.03-.12-.09-.22-.16-.31-.08-.09-.16-.16-.27-.21-.1-.05-.23-.08-.37-.08s-.26,.03-.38,.08c-.11,.05-.2,.12-.28,.21-.08,.09-.14,.19-.19,.31-.05,.12-.08,.25-.09,.39h1.8c0-.14-.02-.26-.06-.39Zm0,0c-.03-.12-.09-.22-.16-.31-.08-.09-.16-.16-.27-.21-.1-.05-.23-.08-.37-.08s-.26,.03-.38,.08c-.11,.05-.2,.12-.28,.21-.08,.09-.14,.19-.19,.31-.05,.12-.08,.25-.09,.39h1.8c0-.14-.02-.26-.06-.39Zm0,0c-.03-.12-.09-.22-.16-.31-.08-.09-.16-.16-.27-.21-.1-.05-.23-.08-.37-.08s-.26,.03-.38,.08c-.11,.05-.2,.12-.28,.21-.08,.09-.14,.19-.19,.31-.05,.12-.08,.25-.09,.39h1.8c0-.14-.02-.26-.06-.39Zm0,0c-.03-.12-.09-.22-.16-.31-.08-.09-.16-.16-.27-.21-.1-.05-.23-.08-.37-.08s-.26,.03-.38,.08c-.11,.05-.2,.12-.28,.21-.08,.09-.14,.19-.19,.31-.05,.12-.08,.25-.09,.39h1.8c0-.14-.02-.26-.06-.39Zm0,0c-.03-.12-.09-.22-.16-.31-.08-.09-.16-.16-.27-.21-.1-.05-.23-.08-.37-.08s-.26,.03-.38,.08c-.11,.05-.2,.12-.28,.21-.08,.09-.14,.19-.19,.31-.05,.12-.08,.25-.09,.39h1.8c0-.14-.02-.26-.06-.39Zm0,0c-.03-.12-.09-.22-.16-.31-.08-.09-.16-.16-.27-.21-.1-.05-.23-.08-.37-.08s-.26,.03-.38,.08c-.11,.05-.2,.12-.28,.21-.08,.09-.14,.19-.19,.31-.05,.12-.08,.25-.09,.39h1.8c0-.14-.02-.26-.06-.39Zm0,0c-.03-.12-.09-.22-.16-.31-.08-.09-.16-.16-.27-.21-.1-.05-.23-.08-.37-.08s-.26,.03-.38,.08c-.11,.05-.2,.12-.28,.21-.08,.09-.14,.19-.19,.31-.05,.12-.08,.25-.09,.39h1.8c0-.14-.02-.26-.06-.39Zm0,0c-.03-.12-.09-.22-.16-.31-.08-.09-.16-.16-.27-.21-.1-.05-.23-.08-.37-.08s-.26,.03-.38,.08c-.11,.05-.2,.12-.28,.21-.08,.09-.14,.19-.19,.31-.05,.12-.08,.25-.09,.39h1.8c0-.14-.02-.26-.06-.39Zm0,0c-.03-.12-.09-.22-.16-.31-.08-.09-.16-.16-.27-.21-.1-.05-.23-.08-.37-.08s-.26,.03-.38,.08c-.11,.05-.2,.12-.28,.21-.08,.09-.14,.19-.19,.31-.05,.12-.08,.25-.09,.39h1.8c0-.14-.02-.26-.06-.39Zm0,0c-.03-.12-.09-.22-.16-.31-.08-.09-.16-.16-.27-.21-.1-.05-.23-.08-.37-.08s-.26,.03-.38,.08c-.11,.05-.2,.12-.28,.21-.08,.09-.14,.19-.19,.31-.05,.12-.08,.25-.09,.39h1.8c0-.14-.02-.26-.06-.39Zm0,0c-.03-.12-.09-.22-.16-.31-.08-.09-.16-.16-.27-.21-.1-.05-.23-.08-.37-.08s-.26,.03-.38,.08c-.11,.05-.2,.12-.28,.21-.08,.09-.14,.19-.19,.31-.05,.12-.08,.25-.09,.39h1.8c0-.14-.02-.26-.06-.39Zm0,0c-.03-.12-.09-.22-.16-.31-.08-.09-.16-.16-.27-.21-.1-.05-.23-.08-.37-.08s-.26,.03-.38,.08c-.11,.05-.2,.12-.28,.21-.08,.09-.14,.19-.19,.31-.05,.12-.08,.25-.09,.39h1.8c0-.14-.02-.26-.06-.39Zm0,0c-.03-.12-.09-.22-.16-.31-.08-.09-.16-.16-.27-.21-.1-.05-.23-.08-.37-.08s-.26,.03-.38,.08c-.11,.05-.2,.12-.28,.21-.08,.09-.14,.19-.19,.31-.05,.12-.08,.25-.09,.39h1.8c0-.14-.02-.26-.06-.39Zm0,0c-.03-.12-.09-.22-.16-.31-.08-.09-.16-.16-.27-.21-.1-.05-.23-.08-.37-.08s-.26,.03-.38,.08c-.11,.05-.2,.12-.28,.21-.08,.09-.14,.19-.19,.31-.05,.12-.08,.25-.09,.39h1.8c0-.14-.02-.26-.06-.39Zm0,0c-.03-.12-.09-.22-.16-.31-.08-.09-.16-.16-.27-.21-.1-.05-.23-.08-.37-.08s-.26,.03-.38,.08c-.11,.05-.2,.12-.28,.21-.08,.09-.14,.19-.19,.31-.05,.12-.08,.25-.09,.39h1.8c0-.14-.02-.26-.06-.39Zm0,0c-.03-.12-.09-.22-.16-.31-.08-.09-.16-.16-.27-.21-.1-.05-.23-.08-.37-.08s-.26,.03-.38,.08c-.11,.05-.2,.12-.28,.21-.08,.09-.14,.19-.19,.31-.05,.12-.08,.25-.09,.39h1.8c0-.14-.02-.26-.06-.39Zm0,0c-.03-.12-.09-.22-.16-.31-.08-.09-.16-.16-.27-.21-.1-.05-.23-.08-.37-.08s-.26,.03-.38,.08c-.11,.05-.2,.12-.28,.21-.08,.09-.14,.19-.19,.31-.05,.12-.08,.25-.09,.39h1.8c0-.14-.02-.26-.06-.39Zm0,0c-.03-.12-.09-.22-.16-.31-.08-.09-.16-.16-.27-.21-.1-.05-.23-.08-.37-.08s-.26,.03-.38,.08c-.11,.05-.2,.12-.28,.21-.08,.09-.14,.19-.19,.31-.05,.12-.08,.25-.09,.39h1.8c0-.14-.02-.26-.06-.39Zm0,0c-.03-.12-.09-.22-.16-.31-.08-.09-.16-.16-.27-.21-.1-.05-.23-.08-.37-.08s-.26,.03-.38,.08c-.11,.05-.2,.12-.28,.21-.08,.09-.14,.19-.19,.31-.05,.12-.08,.25-.09,.39h1.8c0-.14-.02-.26-.06-.39Zm0,0c-.03-.12-.09-.22-.16-.31-.08-.09-.16-.16-.27-.21-.1-.05-.23-.08-.37-.08s-.26,.03-.38,.08c-.11,.05-.2,.12-.28,.21-.08,.09-.14,.19-.19,.31-.05,.12-.08,.25-.09,.39h1.8c0-.14-.02-.26-.06-.39Zm0,0c-.03-.12-.09-.22-.16-.31-.08-.09-.16-.16-.27-.21-.1-.05-.23-.08-.37-.08s-.26,.03-.38,.08c-.11,.05-.2,.12-.28,.21-.08,.09-.14,.19-.19,.31-.05,.12-.08,.25-.09,.39h1.8c0-.14-.02-.26-.06-.39Zm0,0c-.03-.12-.09-.22-.16-.31-.08-.09-.16-.16-.27-.21-.1-.05-.23-.08-.37-.08s-.26,.03-.38,.08c-.11,.05-.2,.12-.28,.21-.08,.09-.14,.19-.19,.31-.05,.12-.08,.25-.09,.39h1.8c0-.14-.02-.26-.06-.39Zm0,0c-.03-.12-.09-.22-.16-.31-.08-.09-.16-.16-.27-.21-.1-.05-.23-.08-.37-.08s-.26,.03-.38,.08c-.11,.05-.2,.12-.28,.21-.08,.09-.14,.19-.19,.31-.05,.12-.08,.25-.09,.39h1.8c0-.14-.02-.26-.06-.39Z"/></g></g></g></svg>