<?xml version="1.0" encoding="UTF-8"?><svg xmlns="http://www.w3.org/2000/svg" xmlns:xlink="http://www.w3.org/1999/xlink" viewBox="0 0 15.04 15.04"><defs><style>.f{fill:url(#d);}.g{fill:url(#e);}</style><linearGradient id="d" x1="0" y1="7.52" x2="15.04" y2="7.52" gradientTransform="matrix(1, 0, 0, 1, 0, 0)" gradientUnits="userSpaceOnUse"><stop offset="0" stop-color="#2f1cef"/><stop offset="1" stop-color="#4933fd"/></linearGradient><linearGradient id="e" x1="3.29" y1="7.52" x2="11.75" y2="7.52" xlink:href="#d"/></defs><g id="a"/><g id="b"><g id="c"><g><path class="f" d="M10.46,6.12c-.15,.18-.24,.39-.32,.59l-.07,.19c-.12,.34-.26,.68-.46,1-.39,.59-.89,.89-1.51,.89-.07,0-.15,0-.23-.01-.68-.08-1.18-.45-1.44-1.07-.26-.62-.19-1.22,.22-1.78,.2-.26,.47-.48,.86-.67,.18-.09,.36-.17,.53-.25,.08-.04,.16-.08,.24-.11h.03c.18-.1,.34-.17,.48-.29,.05-.04,.08-.07,.09-.11-.02,0-.04,.02-.06,.03-.29,.12-.58,.19-.86,.25-.59,.12-1.16,.24-1.7,.46-.23,.1-.47,.2-.68,.36l-.02,.05c-.01,.05-.03,.09-.04,.14-.24,.77-.18,1.51,.18,2.19,.77,1.47,2.55,2.08,4.08,1.37l.05-.02c.34-.72,.55-1.53,.64-2.55v-.03c.03-.25,.06-.52,.14-.76-.06,.02-.11,.08-.15,.13Zm0,0c-.15,.18-.24,.39-.32,.59l-.07,.19c-.12,.34-.26,.68-.46,1-.39,.59-.89,.89-1.51,.89-.07,0-.15,0-.23-.01-.68-.08-1.18-.45-1.44-1.07-.26-.62-.19-1.22,.22-1.78,.2-.26,.47-.48,.86-.67,.18-.09,.36-.17,.53-.25,.08-.04,.16-.08,.24-.11h.03c.18-.1,.34-.17,.48-.29,.05-.04,.08-.07,.09-.11-.02,0-.04,.02-.06,.03-.29,.12-.58,.19-.86,.25-.59,.12-1.16,.24-1.7,.46-.23,.1-.47,.2-.68,.36l-.02,.05c-.01,.05-.03,.09-.04,.14-.24,.77-.18,1.51,.18,2.19,.77,1.47,2.55,2.08,4.08,1.37l.05-.02c.34-.72,.55-1.53,.64-2.55v-.03c.03-.25,.06-.52,.14-.76-.06,.02-.11,.08-.15,.13Zm0,0c-.15,.18-.24,.39-.32,.59l-.07,.19c-.12,.34-.26,.68-.46,1-.39,.59-.89,.89-1.51,.89-.07,0-.15,0-.23-.01-.68-.08-1.18-.45-1.44-1.07-.26-.62-.19-1.22,.22-1.78,.2-.26,.47-.48,.86-.67,.18-.09,.36-.17,.53-.25,.08-.04,.16-.08,.24-.11h.03c.18-.1,.34-.17,.48-.29,.05-.04,.08-.07,.09-.11-.02,0-.04,.02-.06,.03-.29,.12-.58,.19-.86,.25-.59,.12-1.16,.24-1.7,.46-.23,.1-.47,.2-.68,.36l-.02,.05c-.01,.05-.03,.09-.04,.14-.24,.77-.18,1.51,.18,2.19,.77,1.47,2.55,2.08,4.08,1.37l.05-.02c.34-.72,.55-1.53,.64-2.55v-.03c.03-.25,.06-.52,.14-.76-.06,.02-.11,.08-.15,.13Zm0,0c-.15,.18-.24,.39-.32,.59l-.07,.19c-.12,.34-.26,.68-.46,1-.39,.59-.89,.89-1.51,.89-.07,0-.15,0-.23-.01-.68-.08-1.18-.45-1.44-1.07-.26-.62-.19-1.22,.22-1.78,.2-.26,.47-.48,.86-.67,.18-.09,.36-.17,.53-.25,.08-.04,.16-.08,.24-.11h.03c.18-.1,.34-.17,.48-.29,.05-.04,.08-.07,.09-.11-.02,0-.04,.02-.06,.03-.29,.12-.58,.19-.86,.25-.59,.12-1.16,.24-1.7,.46-.23,.1-.47,.2-.68,.36l-.02,.05c-.01,.05-.03,.09-.04,.14-.24,.77-.18,1.51,.18,2.19,.77,1.47,2.55,2.08,4.08,1.37l.05-.02c.34-.72,.55-1.53,.64-2.55v-.03c.03-.25,.06-.52,.14-.76-.06,.02-.11,.08-.15,.13Zm0,0c-.15,.18-.24,.39-.32,.59l-.07,.19c-.12,.34-.26,.68-.46,1-.39,.59-.89,.89-1.51,.89-.07,0-.15,0-.23-.01-.68-.08-1.18-.45-1.44-1.07-.26-.62-.19-1.22,.22-1.78,.2-.26,.47-.48,.86-.67,.18-.09,.36-.17,.53-.25,.08-.04,.16-.08,.24-.11h.03c.18-.1,.34-.17,.48-.29,.05-.04,.08-.07,.09-.11-.02,0-.04,.02-.06,.03-.29,.12-.58,.19-.86,.25-.59,.12-1.16,.24-1.7,.46-.23,.1-.47,.2-.68,.36l-.02,.05c-.01,.05-.03,.09-.04,.14-.24,.77-.18,1.51,.18,2.19,.77,1.47,2.55,2.08,4.08,1.37l.05-.02c.34-.72,.55-1.53,.64-2.55v-.03c.03-.25,.06-.52,.14-.76-.06,.02-.11,.08-.15,.13Zm0,0c-.15,.18-.24,.39-.32,.59l-.07,.19c-.12,.34-.26,.68-.46,1-.39,.59-.89,.89-1.51,.89-.07,0-.15,0-.23-.01-.68-.08-1.18-.45-1.44-1.07-.26-.62-.19-1.22,.22-1.78,.2-.26,.47-.48,.86-.67,.18-.09,.36-.17,.53-.25,.08-.04,.16-.08,.24-.11h.03c.18-.1,.34-.17,.48-.29,.05-.04,.08-.07,.09-.11-.02,0-.04,.02-.06,.03-.29,.12-.58,.19-.86,.25-.59,.12-1.16,.24-1.7,.46-.23,.1-.47,.2-.68,.36l-.02,.05c-.01,.05-.03,.09-.04,.14-.24,.77-.18,1.51,.18,2.19,.77,1.47,2.55,2.08,4.08,1.37l.05-.02c.34-.72,.55-1.53,.64-2.55v-.03c.03-.25,.06-.52,.14-.76-.06,.02-.11,.08-.15,.13Zm0,0c-.15,.18-.24,.39-.32,.59l-.07,.19c-.12,.34-.26,.68-.46,1-.39,.59-.89,.89-1.51,.89-.07,0-.15,0-.23-.01-.68-.08-1.18-.45-1.44-1.07-.26-.62-.19-1.22,.22-1.78,.2-.26,.47-.48,.86-.67,.18-.09,.36-.17,.53-.25,.08-.04,.16-.08,.24-.11h.03c.18-.1,.34-.17,.48-.29,.05-.04,.08-.07,.09-.11-.02,0-.04,.02-.06,.03-.29,.12-.58,.19-.86,.25-.59,.12-1.16,.24-1.7,.46-.23,.1-.47,.2-.68,.36l-.02,.05c-.01,.05-.03,.09-.04,.14-.24,.77-.18,1.51,.18,2.19,.77,1.47,2.55,2.08,4.08,1.37l.05-.02c.34-.72,.55-1.53,.64-2.55v-.03c.03-.25,.06-.52,.14-.76-.06,.02-.11,.08-.15,.13Zm0,0c-.15,.18-.24,.39-.32,.59l-.07,.19c-.12,.34-.26,.68-.46,1-.39,.59-.89,.89-1.51,.89-.07,0-.15,0-.23-.01-.68-.08-1.18-.45-1.44-1.07-.26-.62-.19-1.22,.22-1.78,.2-.26,.47-.48,.86-.67,.18-.09,.36-.17,.53-.25,.08-.04,.16-.08,.24-.11h.03c.18-.1,.34-.17,.48-.29,.05-.04,.08-.07,.09-.11-.02,0-.04,.02-.06,.03-.29,.12-.58,.19-.86,.25-.59,.12-1.16,.24-1.7,.46-.23,.1-.47,.2-.68,.36l-.02,.05c-.01,.05-.03,.09-.04,.14-.24,.77-.18,1.51,.18,2.19,.77,1.47,2.55,2.08,4.08,1.37l.05-.02c.34-.72,.55-1.53,.64-2.55v-.03c.03-.25,.06-.52,.14-.76-.06,.02-.11,.08-.15,.13Zm0,0c-.15,.18-.24,.39-.32,.59l-.07,.19c-.12,.34-.26,.68-.46,1-.39,.59-.89,.89-1.51,.89-.07,0-.15,0-.23-.01-.68-.08-1.18-.45-1.44-1.07-.26-.62-.19-1.22,.22-1.78,.2-.26,.47-.48,.86-.67,.18-.09,.36-.17,.53-.25,.08-.04,.16-.08,.24-.11h.03c.18-.1,.34-.17,.48-.29,.05-.04,.08-.07,.09-.11-.02,0-.04,.02-.06,.03-.29,.12-.58,.19-.86,.25-.59,.12-1.16,.24-1.7,.46-.23,.1-.47,.2-.68,.36l-.02,.05c-.01,.05-.03,.09-.04,.14-.24,.77-.18,1.51,.18,2.19,.77,1.47,2.55,2.08,4.08,1.37l.05-.02c.34-.72,.55-1.53,.64-2.55v-.03c.03-.25,.06-.52,.14-.76-.06,.02-.11,.08-.15,.13Zm0,0c-.15,.18-.24,.39-.32,.59l-.07,.19c-.12,.34-.26,.68-.46,1-.39,.59-.89,.89-1.51,.89-.07,0-.15,0-.23-.01-.68-.08-1.18-.45-1.44-1.07-.26-.62-.19-1.22,.22-1.78,.2-.26,.47-.48,.86-.67,.18-.09,.36-.17,.53-.25,.08-.04,.16-.08,.24-.11h.03c.18-.1,.34-.17,.48-.29,.05-.04,.08-.07,.09-.11-.02,0-.04,.02-.06,.03-.29,.12-.58,.19-.86,.25-.59,.12-1.16,.24-1.7,.46-.23,.1-.47,.2-.68,.36l-.02,.05c-.01,.05-.03,.09-.04,.14-.24,.77-.18,1.51,.18,2.19,.77,1.47,2.55,2.08,4.08,1.37l.05-.02c.34-.72,.55-1.53,.64-2.55v-.03c.03-.25,.06-.52,.14-.76-.06,.02-.11,.08-.15,.13Zm0,0c-.15,.18-.24,.39-.32,.59l-.07,.19c-.12,.34-.26,.68-.46,1-.39,.59-.89,.89-1.51,.89-.07,0-.15,0-.23-.01-.68-.08-1.18-.45-1.44-1.07-.26-.62-.19-1.22,.22-1.78,.2-.26,.47-.48,.86-.67,.18-.09,.36-.17,.53-.25,.08-.04,.16-.08,.24-.11h.03c.18-.1,.34-.17,.48-.29,.05-.04,.08-.07,.09-.11-.02,0-.04,.02-.06,.03-.29,.12-.58,.19-.86,.25-.59,.12-1.16,.24-1.7,.46-.23,.1-.47,.2-.68,.36l-.02,.05c-.01,.05-.03,.09-.04,.14-.24,.77-.18,1.51,.18,2.19,.77,1.47,2.55,2.08,4.08,1.37l.05-.02c.34-.72,.55-1.53,.64-2.55v-.03c.03-.25,.06-.52,.14-.76-.06,.02-.11,.08-.15,.13Zm0,0c-.15,.18-.24,.39-.32,.59l-.07,.19c-.12,.34-.26,.68-.46,1-.39,.59-.89,.89-1.51,.89-.07,0-.15,0-.23-.01-.68-.08-1.18-.45-1.44-1.07-.26-.62-.19-1.22,.22-1.78,.2-.26,.47-.48,.86-.67,.18-.09,.36-.17,.53-.25,.08-.04,.16-.08,.24-.11h.03c.18-.1,.34-.17,.48-.29,.05-.04,.08-.07,.09-.11-.02,0-.04,.02-.06,.03-.29,.12-.58,.19-.86,.25-.59,.12-1.16,.24-1.7,.46-.23,.1-.47,.2-.68,.36l-.02,.05c-.01,.05-.03,.09-.04,.14-.24,.77-.18,1.51,.18,2.19,.77,1.47,2.55,2.08,4.08,1.37l.05-.02c.34-.72,.55-1.53,.64-2.55v-.03c.03-.25,.06-.52,.14-.76-.06,.02-.11,.08-.15,.13Zm0,0c-.15,.18-.24,.39-.32,.59l-.07,.19c-.12,.34-.26,.68-.46,1-.39,.59-.89,.89-1.51,.89-.07,0-.15,0-.23-.01-.68-.08-1.18-.45-1.44-1.07-.26-.62-.19-1.22,.22-1.78,.2-.26,.47-.48,.86-.67,.18-.09,.36-.17,.53-.25,.08-.04,.16-.08,.24-.11h.03c.18-.1,.34-.17,.48-.29,.05-.04,.08-.07,.09-.11-.02,0-.04,.02-.06,.03-.29,.12-.58,.19-.86,.25-.59,.12-1.16,.24-1.7,.46-.23,.1-.47,.2-.68,.36l-.02,.05c-.01,.05-.03,.09-.04,.14-.24,.77-.18,1.51,.18,2.19,.77,1.47,2.55,2.08,4.08,1.37l.05-.02c.34-.72,.55-1.53,.64-2.55v-.03c.03-.25,.06-.52,.14-.76-.06,.02-.11,.08-.15,.13Zm0,0c-.15,.18-.24,.39-.32,.59l-.07,.19c-.12,.34-.26,.68-.46,1-.39,.59-.89,.89-1.51,.89-.07,0-.15,0-.23-.01-.68-.08-1.18-.45-1.44-1.07-.26-.62-.19-1.22,.22-1.78,.2-.26,.47-.48,.86-.67,.18-.09,.36-.17,.53-.25,.08-.04,.16-.08,.24-.11h.03c.18-.1,.34-.17,.48-.29,.05-.04,.08-.07,.09-.11-.02,0-.04,.02-.06,.03-.29,.12-.58,.19-.86,.25-.59,.12-1.16,.24-1.7,.46-.23,.1-.47,.2-.68,.36l-.02,.05c-.01,.05-.03,.09-.04,.14-.24,.77-.18,1.51,.18,2.19,.77,1.47,2.55,2.08,4.08,1.37l.05-.02c.34-.72,.55-1.53,.64-2.55v-.03c.03-.25,.06-.52,.14-.76-.06,.02-.11,.08-.15,.13Zm0,0c-.15,.18-.24,.39-.32,.59l-.07,.19c-.12,.34-.26,.68-.46,1-.39,.59-.89,.89-1.51,.89-.07,0-.15,0-.23-.01-.68-.08-1.18-.45-1.44-1.07-.26-.62-.19-1.22,.22-1.78,.2-.26,.47-.48,.86-.67,.18-.09,.36-.17,.53-.25,.08-.04,.16-.08,.24-.11h.03c.18-.1,.34-.17,.48-.29,.05-.04,.08-.07,.09-.11-.02,0-.04,.02-.06,.03-.29,.12-.58,.19-.86,.25-.59,.12-1.16,.24-1.7,.46-.23,.1-.47,.2-.68,.36l-.02,.05c-.01,.05-.03,.09-.04,.14-.24,.77-.18,1.51,.18,2.19,.77,1.47,2.55,2.08,4.08,1.37l.05-.02c.34-.72,.55-1.53,.64-2.55v-.03c.03-.25,.06-.52,.14-.76-.06,.02-.11,.08-.15,.13Zm0,0c-.15,.18-.24,.39-.32,.59l-.07,.19c-.12,.34-.26,.68-.46,1-.39,.59-.89,.89-1.51,.89-.07,0-.15,0-.23-.01-.68-.08-1.18-.45-1.44-1.07-.26-.62-.19-1.22,.22-1.78,.2-.26,.47-.48,.86-.67,.18-.09,.36-.17,.53-.25,.08-.04,.16-.08,.24-.11h.03c.18-.1,.34-.17,.48-.29,.05-.04,.08-.07,.09-.11-.02,0-.04,.02-.06,.03-.29,.12-.58,.19-.86,.25-.59,.12-1.16,.24-1.7,.46-.23,.1-.47,.2-.68,.36l-.02,.05c-.01,.05-.03,.09-.04,.14-.24,.77-.18,1.51,.18,2.19,.77,1.47,2.55,2.08,4.08,1.37l.05-.02c.34-.72,.55-1.53,.64-2.55v-.03c.03-.25,.06-.52,.14-.76-.06,.02-.11,.08-.15,.13Zm0,0c-.15,.18-.24,.39-.32,.59l-.07,.19c-.12,.34-.26,.68-.46,1-.39,.59-.89,.89-1.51,.89-.07,0-.15,0-.23-.01-.68-.08-1.18-.45-1.44-1.07-.26-.62-.19-1.22,.22-1.78,.2-.26,.47-.48,.86-.67,.18-.09,.36-.17,.53-.25,.08-.04,.16-.08,.24-.11h.03c.18-.1,.34-.17,.48-.29,.05-.04,.08-.07,.09-.11-.02,0-.04,.02-.06,.03-.29,.12-.58,.19-.86,.25-.59,.12-1.16,.24-1.7,.46-.23,.1-.47,.2-.68,.36l-.02,.05c-.01,.05-.03,.09-.04,.14-.24,.77-.18,1.51,.18,2.19,.77,1.47,2.55,2.08,4.08,1.37l.05-.02c.34-.72,.55-1.53,.64-2.55v-.03c.03-.25,.06-.52,.14-.76-.06,.02-.11,.08-.15,.13Zm0,0c-.15,.18-.24,.39-.32,.59l-.07,.19c-.12,.34-.26,.68-.46,1-.39,.59-.89,.89-1.51,.89-.07,0-.15,0-.23-.01-.68-.08-1.18-.45-1.44-1.07-.26-.62-.19-1.22,.22-1.78,.2-.26,.47-.48,.86-.67,.18-.09,.36-.17,.53-.25,.08-.04,.16-.08,.24-.11h.03c.18-.1,.34-.17,.48-.29,.05-.04,.08-.07,.09-.11-.02,0-.04,.02-.06,.03-.29,.12-.58,.19-.86,.25-.59,.12-1.16,.24-1.7,.46-.23,.1-.47,.2-.68,.36l-.02,.05c-.01,.05-.03,.09-.04,.14-.24,.77-.18,1.51,.18,2.19,.77,1.47,2.55,2.08,4.08,1.37l.05-.02c.34-.72,.55-1.53,.64-2.55v-.03c.03-.25,.06-.52,.14-.76-.06,.02-.11,.08-.15,.13Zm-.75-2.17c-.09-.04-.18-.08-.27-.11,.01,.07,0,.15-.04,.24h.01c.7,.23,1.23,.69,1.57,1.39,0,0,0,.02,.02,.04,0,0,0,.01,.01,.01h.08s.11,.01,.17,.02c.02,0,.04,.02,.05,.02-.3-.73-.84-1.27-1.6-1.61Zm0,0c-.09-.04-.18-.08-.27-.11,.01,.07,0,.15-.04,.24h.01c.7,.23,1.23,.69,1.57,1.39,0,0,0,.02,.02,.04,0,0,0,.01,.01,.01h.08s.11,.01,.17,.02c.02,0,.04,.02,.05,.02-.3-.73-.84-1.27-1.6-1.61Zm.75,2.17c-.15,.18-.24,.39-.32,.59l-.07,.19c-.12,.34-.26,.68-.46,1-.39,.59-.89,.89-1.51,.89-.07,0-.15,0-.23-.01-.68-.08-1.18-.45-1.44-1.07-.26-.62-.19-1.22,.22-1.78,.2-.26,.47-.48,.86-.67,.18-.09,.36-.17,.53-.25,.08-.04,.16-.08,.24-.11h.03c.18-.1,.34-.17,.48-.29,.05-.04,.08-.07,.09-.11-.02,0-.04,.02-.06,.03-.29,.12-.58,.19-.86,.25-.59,.12-1.16,.24-1.7,.46-.23,.1-.47,.2-.68,.36l-.02,.05c-.01,.05-.03,.09-.04,.14-.24,.77-.18,1.51,.18,2.19,.77,1.47,2.55,2.08,4.08,1.37l.05-.02c.34-.72,.55-1.53,.64-2.55v-.03c.03-.25,.06-.52,.14-.76-.06,.02-.11,.08-.15,.13Zm0,0c-.15,.18-.24,.39-.32,.59l-.07,.19c-.12,.34-.26,.68-.46,1-.39,.59-.89,.89-1.51,.89-.07,0-.15,0-.23-.01-.68-.08-1.18-.45-1.44-1.07-.26-.62-.19-1.22,.22-1.78,.2-.26,.47-.48,.86-.67,.18-.09,.36-.17,.53-.25,.08-.04,.16-.08,.24-.11h.03c.18-.1,.34-.17,.48-.29,.05-.04,.08-.07,.09-.11-.02,0-.04,.02-.06,.03-.29,.12-.58,.19-.86,.25-.59,.12-1.16,.24-1.7,.46-.23,.1-.47,.2-.68,.36l-.02,.05c-.01,.05-.03,.09-.04,.14-.24,.77-.18,1.51,.18,2.19,.77,1.47,2.55,2.08,4.08,1.37l.05-.02c.34-.72,.55-1.53,.64-2.55v-.03c.03-.25,.06-.52,.14-.76-.06,.02-.11,.08-.15,.13Zm-.75-2.17c-.09-.04-.18-.08-.27-.11,.01,.07,0,.15-.04,.24h.01c.7,.23,1.23,.69,1.57,1.39,0,0,0,.02,.02,.04,0,0,0,.01,.01,.01h.08s.11,.01,.17,.02c.02,0,.04,.02,.05,.02-.3-.73-.84-1.27-1.6-1.61Zm0,0c-.09-.04-.18-.08-.27-.11,.01,.07,0,.15-.04,.24h.01c.7,.23,1.23,.69,1.57,1.39,0,0,0,.02,.02,.04,0,0,0,.01,.01,.01h.08s.11,.01,.17,.02c.02,0,.04,.02,.05,.02-.3-.73-.84-1.27-1.6-1.61Zm.75,2.17c-.15,.18-.24,.39-.32,.59l-.07,.19c-.12,.34-.26,.68-.46,1-.39,.59-.89,.89-1.51,.89-.07,0-.15,0-.23-.01-.68-.08-1.18-.45-1.44-1.07-.26-.62-.19-1.22,.22-1.78,.2-.26,.47-.48,.86-.67,.18-.09,.36-.17,.53-.25,.08-.04,.16-.08,.24-.11h.03c.18-.1,.34-.17,.48-.29,.05-.04,.08-.07,.09-.11-.02,0-.04,.02-.06,.03-.29,.12-.58,.19-.86,.25-.59,.12-1.16,.24-1.7,.46-.23,.1-.47,.2-.68,.36l-.02,.05c-.01,.05-.03,.09-.04,.14-.24,.77-.18,1.51,.18,2.19,.77,1.47,2.55,2.08,4.08,1.37l.05-.02c.34-.72,.55-1.53,.64-2.55v-.03c.03-.25,.06-.52,.14-.76-.06,.02-.11,.08-.15,.13Zm0,0c-.15,.18-.24,.39-.32,.59l-.07,.19c-.12,.34-.26,.68-.46,1-.39,.59-.89,.89-1.51,.89-.07,0-.15,0-.23-.01-.68-.08-1.18-.45-1.44-1.07-.26-.62-.19-1.22,.22-1.78,.2-.26,.47-.48,.86-.67,.18-.09,.36-.17,.53-.25,.08-.04,.16-.08,.24-.11h.03c.18-.1,.34-.17,.48-.29,.05-.04,.08-.07,.09-.11-.02,0-.04,.02-.06,.03-.29,.12-.58,.19-.86,.25-.59,.12-1.16,.24-1.7,.46-.23,.1-.47,.2-.68,.36l-.02,.05c-.01,.05-.03,.09-.04,.14-.24,.77-.18,1.51,.18,2.19,.77,1.47,2.55,2.08,4.08,1.37l.05-.02c.34-.72,.55-1.53,.64-2.55v-.03c.03-.25,.06-.52,.14-.76-.06,.02-.11,.08-.15,.13Zm-.75-2.17c-.09-.04-.18-.08-.27-.11,.01,.07,0,.15-.04,.24h.01c.7,.23,1.23,.69,1.57,1.39,0,0,0,.02,.02,.04,0,0,0,.01,.01,.01h.08s.11,.01,.17,.02c.02,0,.04,.02,.05,.02-.3-.73-.84-1.27-1.6-1.61Zm0,0c-.09-.04-.18-.08-.27-.11,.01,.07,0,.15-.04,.24h.01c.7,.23,1.23,.69,1.57,1.39,0,0,0,.02,.02,.04,0,0,0,.01,.01,.01h.08s.11,.01,.17,.02c.02,0,.04,.02,.05,.02-.3-.73-.84-1.27-1.6-1.61Zm.75,2.17c-.15,.18-.24,.39-.32,.59l-.07,.19c-.12,.34-.26,.68-.46,1-.39,.59-.89,.89-1.51,.89-.07,0-.15,0-.23-.01-.68-.08-1.18-.45-1.44-1.07-.26-.62-.19-1.22,.22-1.78,.2-.26,.47-.48,.86-.67,.18-.09,.36-.17,.53-.25,.08-.04,.16-.08,.24-.11h.03c.18-.1,.34-.17,.48-.29,.05-.04,.08-.07,.09-.11-.02,0-.04,.02-.06,.03-.29,.12-.58,.19-.86,.25-.59,.12-1.16,.24-1.7,.46-.23,.1-.47,.2-.68,.36l-.02,.05c-.01,.05-.03,.09-.04,.14-.24,.77-.18,1.51,.18,2.19,.77,1.47,2.55,2.08,4.08,1.37l.05-.02c.34-.72,.55-1.53,.64-2.55v-.03c.03-.25,.06-.52,.14-.76-.06,.02-.11,.08-.15,.13Zm0,0c-.15,.18-.24,.39-.32,.59l-.07,.19c-.12,.34-.26,.68-.46,1-.39,.59-.89,.89-1.51,.89-.07,0-.15,0-.23-.01-.68-.08-1.18-.45-1.44-1.07-.26-.62-.19-1.22,.22-1.78,.2-.26,.47-.48,.86-.67,.18-.09,.36-.17,.53-.25,.08-.04,.16-.08,.24-.11h.03c.18-.1,.34-.17,.48-.29,.05-.04,.08-.07,.09-.11-.02,0-.04,.02-.06,.03-.29,.12-.58,.19-.86,.25-.59,.12-1.16,.24-1.7,.46-.23,.1-.47,.2-.68,.36l-.02,.05c-.01,.05-.03,.09-.04,.14-.24,.77-.18,1.51,.18,2.19,.77,1.47,2.55,2.08,4.08,1.37l.05-.02c.34-.72,.55-1.53,.64-2.55v-.03c.03-.25,.06-.52,.14-.76-.06,.02-.11,.08-.15,.13Zm-.75-2.17c-.09-.04-.18-.08-.27-.11,.01,.07,0,.15-.04,.24h.01c.7,.23,1.23,.69,1.57,1.39,0,0,0,.02,.02,.04,0,0,0,.01,.01,.01h.08s.11,.01,.17,.02c.02,0,.04,.02,.05,.02-.3-.73-.84-1.27-1.6-1.61Zm0,0c-.09-.04-.18-.08-.27-.11,.01,.07,0,.15-.04,.24h.01c.7,.23,1.23,.69,1.57,1.39,0,0,0,.02,.02,.04,0,0,0,.01,.01,.01h.08s.11,.01,.17,.02c.02,0,.04,.02,.05,.02-.3-.73-.84-1.27-1.6-1.61Zm.75,2.17c-.15,.18-.24,.39-.32,.59l-.07,.19c-.12,.34-.26,.68-.46,1-.39,.59-.89,.89-1.51,.89-.07,0-.15,0-.23-.01-.68-.08-1.18-.45-1.44-1.07-.26-.62-.19-1.22,.22-1.78,.2-.26,.47-.48,.86-.67,.18-.09,.36-.17,.53-.25,.08-.04,.16-.08,.24-.11h.03c.18-.1,.34-.17,.48-.29,.05-.04,.08-.07,.09-.11-.02,0-.04,.02-.06,.03-.29,.12-.58,.19-.86,.25-.59,.12-1.16,.24-1.7,.46-.23,.1-.47,.2-.68,.36l-.02,.05c-.01,.05-.03,.09-.04,.14-.24,.77-.18,1.51,.18,2.19,.77,1.47,2.55,2.08,4.08,1.37l.05-.02c.34-.72,.55-1.53,.64-2.55v-.03c.03-.25,.06-.52,.14-.76-.06,.02-.11,.08-.15,.13Zm0,0c-.15,.18-.24,.39-.32,.59l-.07,.19c-.12,.34-.26,.68-.46,1-.39,.59-.89,.89-1.51,.89-.07,0-.15,0-.23-.01-.68-.08-1.18-.45-1.44-1.07-.26-.62-.19-1.22,.22-1.78,.2-.26,.47-.48,.86-.67,.18-.09,.36-.17,.53-.25,.08-.04,.16-.08,.24-.11h.03c.18-.1,.34-.17,.48-.29,.05-.04,.08-.07,.09-.11-.02,0-.04,.02-.06,.03-.29,.12-.58,.19-.86,.25-.59,.12-1.16,.24-1.7,.46-.23,.1-.47,.2-.68,.36l-.02,.05c-.01,.05-.03,.09-.04,.14-.24,.77-.18,1.51,.18,2.19,.77,1.47,2.55,2.08,4.08,1.37l.05-.02c.34-.72,.55-1.53,.64-2.55v-.03c.03-.25,.06-.52,.14-.76-.06,.02-.11,.08-.15,.13Zm-.75-2.17c-.09-.04-.18-.08-.27-.11,.01,.07,0,.15-.04,.24h.01c.7,.23,1.23,.69,1.57,1.39,0,0,0,.02,.02,.04,0,0,0,.01,.01,.01h.08s.11,.01,.17,.02c.02,0,.04,.02,.05,.02-.3-.73-.84-1.27-1.6-1.61Zm0,0c-.09-.04-.18-.08-.27-.11,.01,.07,0,.15-.04,.24h.01c.7,.23,1.23,.69,1.57,1.39,0,0,0,.02,.02,.04,0,0,0,.01,.01,.01h.08s.11,.01,.17,.02c.02,0,.04,.02,.05,.02-.3-.73-.84-1.27-1.6-1.61Zm.75,2.17c-.15,.18-.24,.39-.32,.59l-.07,.19c-.12,.34-.26,.68-.46,1-.39,.59-.89,.89-1.51,.89-.07,0-.15,0-.23-.01-.68-.08-1.18-.45-1.44-1.07-.26-.62-.19-1.22,.22-1.78,.2-.26,.47-.48,.86-.67,.18-.09,.36-.17,.53-.25,.08-.04,.16-.08,.24-.11h.03c.18-.1,.34-.17,.48-.29,.05-.04,.08-.07,.09-.11-.02,0-.04,.02-.06,.03-.29,.12-.58,.19-.86,.25-.59,.12-1.16,.24-1.7,.46-.23,.1-.47,.2-.68,.36l-.02,.05c-.01,.05-.03,.09-.04,.14-.24,.77-.18,1.51,.18,2.19,.77,1.47,2.55,2.08,4.08,1.37l.05-.02c.34-.72,.55-1.53,.64-2.55v-.03c.03-.25,.06-.52,.14-.76-.06,.02-.11,.08-.15,.13Zm.28-6.12H4.3C1.92,0,0,1.93,0,4.3v6.44c0,2.38,1.92,4.3,4.3,4.3h6.44c2.37,0,4.3-1.92,4.3-4.3V4.3c0-2.37-1.93-4.3-4.3-4.3Zm.67,9.9c-.37,.6-.83,1.09-1.38,1.45-.54,.36-1.16,.59-1.83,.68-.25,.04-.49,.06-.73,.06-1.21,0-2.28-.46-3.19-1.36-.67-.67-1.09-1.47-1.25-2.39-.25-1.47,.13-2.78,1.14-3.89,.76-.84,1.72-1.32,2.85-1.46,.17-.02,.34-.03,.51-.03,.54,0,1.07,.1,1.59,.29,.15,.05,.26,.16,.34,.26,.14,.03,.26,.08,.39,.14,.89,.39,1.51,1.05,1.84,1.95,.03,.07,.06,.15,.06,.24,.14,.35,.24,.72,.3,1.1,.13,1.09-.09,2.08-.64,2.96Zm-1.7-5.95c-.09-.04-.18-.08-.27-.11,.01,.07,0,.15-.04,.24h.01c.7,.23,1.23,.69,1.57,1.39,0,0,0,.02,.02,.04,0,0,0,.01,.01,.01h.08s.11,.01,.17,.02c.02,0,.04,.02,.05,.02-.3-.73-.84-1.27-1.6-1.61Zm.75,2.17c-.15,.18-.24,.39-.32,.59l-.07,.19c-.12,.34-.26,.68-.46,1-.39,.59-.89,.89-1.51,.89-.07,0-.15,0-.23-.01-.68-.08-1.18-.45-1.44-1.07-.26-.62-.19-1.22,.22-1.78,.2-.26,.47-.48,.86-.67,.18-.09,.36-.17,.53-.25,.08-.04,.16-.08,.24-.11h.03c.18-.1,.34-.17,.48-.29,.05-.04,.08-.07,.09-.11-.02,0-.04,.02-.06,.03-.29,.12-.58,.19-.86,.25-.59,.12-1.16,.24-1.7,.46-.23,.1-.47,.2-.68,.36l-.02,.05c-.01,.05-.03,.09-.04,.14-.24,.77-.18,1.51,.18,2.19,.77,1.47,2.55,2.08,4.08,1.37l.05-.02c.34-.72,.55-1.53,.64-2.55v-.03c.03-.25,.06-.52,.14-.76-.06,.02-.11,.08-.15,.13Zm0,0c-.15,.18-.24,.39-.32,.59l-.07,.19c-.12,.34-.26,.68-.46,1-.39,.59-.89,.89-1.51,.89-.07,0-.15,0-.23-.01-.68-.08-1.18-.45-1.44-1.07-.26-.62-.19-1.22,.22-1.78,.2-.26,.47-.48,.86-.67,.18-.09,.36-.17,.53-.25,.08-.04,.16-.08,.24-.11h.03c.18-.1,.34-.17,.48-.29,.05-.04,.08-.07,.09-.11-.02,0-.04,.02-.06,.03-.29,.12-.58,.19-.86,.25-.59,.12-1.16,.24-1.7,.46-.23,.1-.47,.2-.68,.36l-.02,.05c-.01,.05-.03,.09-.04,.14-.24,.77-.18,1.51,.18,2.19,.77,1.47,2.55,2.08,4.08,1.37l.05-.02c.34-.72,.55-1.53,.64-2.55v-.03c.03-.25,.06-.52,.14-.76-.06,.02-.11,.08-.15,.13Zm-.75-2.17c-.09-.04-.18-.08-.27-.11,.01,.07,0,.15-.04,.24h.01c.7,.23,1.23,.69,1.57,1.39,0,0,0,.02,.02,.04,0,0,0,.01,.01,.01h.08s.11,.01,.17,.02c.02,0,.04,.02,.05,.02-.3-.73-.84-1.27-1.6-1.61Zm0,0c-.09-.04-.18-.08-.27-.11,.01,.07,0,.15-.04,.24h.01c.7,.23,1.23,.69,1.57,1.39,0,0,0,.02,.02,.04,0,0,0,.01,.01,.01h.08s.11,.01,.17,.02c.02,0,.04,.02,.05,.02-.3-.73-.84-1.27-1.6-1.61Zm.75,2.17c-.15,.18-.24,.39-.32,.59l-.07,.19c-.12,.34-.26,.68-.46,1-.39,.59-.89,.89-1.51,.89-.07,0-.15,0-.23-.01-.68-.08-1.18-.45-1.44-1.07-.26-.62-.19-1.22,.22-1.78,.2-.26,.47-.48,.86-.67,.18-.09,.36-.17,.53-.25,.08-.04,.16-.08,.24-.11h.03c.18-.1,.34-.17,.48-.29,.05-.04,.08-.07,.09-.11-.02,0-.04,.02-.06,.03-.29,.12-.58,.19-.86,.25-.59,.12-1.16,.24-1.7,.46-.23,.1-.47,.2-.68,.36l-.02,.05c-.01,.05-.03,.09-.04,.14-.24,.77-.18,1.51,.18,2.19,.77,1.47,2.55,2.08,4.08,1.37l.05-.02c.34-.72,.55-1.53,.64-2.55v-.03c.03-.25,.06-.52,.14-.76-.06,.02-.11,.08-.15,.13Zm0,0c-.15,.18-.24,.39-.32,.59l-.07,.19c-.12,.34-.26,.68-.46,1-.39,.59-.89,.89-1.51,.89-.07,0-.15,0-.23-.01-.68-.08-1.18-.45-1.44-1.07-.26-.62-.19-1.22,.22-1.78,.2-.26,.47-.48,.86-.67,.18-.09,.36-.17,.53-.25,.08-.04,.16-.08,.24-.11h.03c.18-.1,.34-.17,.48-.29,.05-.04,.08-.07,.09-.11-.02,0-.04,.02-.06,.03-.29,.12-.58,.19-.86,.25-.59,.12-1.16,.24-1.7,.46-.23,.1-.47,.2-.68,.36l-.02,.05c-.01,.05-.03,.09-.04,.14-.24,.77-.18,1.51,.18,2.19,.77,1.47,2.55,2.08,4.08,1.37l.05-.02c.34-.72,.55-1.53,.64-2.55v-.03c.03-.25,.06-.52,.14-.76-.06,.02-.11,.08-.15,.13Zm-.75-2.17c-.09-.04-.18-.08-.27-.11,.01,.07,0,.15-.04,.24h.01c.7,.23,1.23,.69,1.57,1.39,0,0,0,.02,.02,.04,0,0,0,.01,.01,.01h.08s.11,.01,.17,.02c.02,0,.04,.02,.05,.02-.3-.73-.84-1.27-1.6-1.61Zm0,0c-.09-.04-.18-.08-.27-.11,.01,.07,0,.15-.04,.24h.01c.7,.23,1.23,.69,1.57,1.39,0,0,0,.02,.02,.04,0,0,0,.01,.01,.01h.08s.11,.01,.17,.02c.02,0,.04,.02,.05,.02-.3-.73-.84-1.27-1.6-1.61Zm.75,2.17c-.15,.18-.24,.39-.32,.59l-.07,.19c-.12,.34-.26,.68-.46,1-.39,.59-.89,.89-1.51,.89-.07,0-.15,0-.23-.01-.68-.08-1.18-.45-1.44-1.07-.26-.62-.19-1.22,.22-1.78,.2-.26,.47-.48,.86-.67,.18-.09,.36-.17,.53-.25,.08-.04,.16-.08,.24-.11h.03c.18-.1,.34-.17,.48-.29,.05-.04,.08-.07,.09-.11-.02,0-.04,.02-.06,.03-.29,.12-.58,.19-.86,.25-.59,.12-1.16,.24-1.7,.46-.23,.1-.47,.2-.68,.36l-.02,.05c-.01,.05-.03,.09-.04,.14-.24,.77-.18,1.51,.18,2.19,.77,1.47,2.55,2.08,4.08,1.37l.05-.02c.34-.72,.55-1.53,.64-2.55v-.03c.03-.25,.06-.52,.14-.76-.06,.02-.11,.08-.15,.13Zm0,0c-.15,.18-.24,.39-.32,.59l-.07,.19c-.12,.34-.26,.68-.46,1-.39,.59-.89,.89-1.51,.89-.07,0-.15,0-.23-.01-.68-.08-1.18-.45-1.44-1.07-.26-.62-.19-1.22,.22-1.78,.2-.26,.47-.48,.86-.67,.18-.09,.36-.17,.53-.25,.08-.04,.16-.08,.24-.11h.03c.18-.1,.34-.17,.48-.29,.05-.04,.08-.07,.09-.11-.02,0-.04,.02-.06,.03-.29,.12-.58,.19-.86,.25-.59,.12-1.16,.24-1.7,.46-.23,.1-.47,.2-.68,.36l-.02,.05c-.01,.05-.03,.09-.04,.14-.24,.77-.18,1.51,.18,2.19,.77,1.47,2.55,2.08,4.08,1.37l.05-.02c.34-.72,.55-1.53,.64-2.55v-.03c.03-.25,.06-.52,.14-.76-.06,.02-.11,.08-.15,.13Zm-.75-2.17c-.09-.04-.18-.08-.27-.11,.01,.07,0,.15-.04,.24h.01c.7,.23,1.23,.69,1.57,1.39,0,0,0,.02,.02,.04,0,0,0,.01,.01,.01h.08s.11,.01,.17,.02c.02,0,.04,.02,.05,.02-.3-.73-.84-1.27-1.6-1.61Zm0,0c-.09-.04-.18-.08-.27-.11,.01,.07,0,.15-.04,.24h.01c.7,.23,1.23,.69,1.57,1.39,0,0,0,.02,.02,.04,0,0,0,.01,.01,.01h.08s.11,.01,.17,.02c.02,0,.04,.02,.05,.02-.3-.73-.84-1.27-1.6-1.61Zm.75,2.17c-.15,.18-.24,.39-.32,.59l-.07,.19c-.12,.34-.26,.68-.46,1-.39,.59-.89,.89-1.51,.89-.07,0-.15,0-.23-.01-.68-.08-1.18-.45-1.44-1.07-.26-.62-.19-1.22,.22-1.78,.2-.26,.47-.48,.86-.67,.18-.09,.36-.17,.53-.25,.08-.04,.16-.08,.24-.11h.03c.18-.1,.34-.17,.48-.29,.05-.04,.08-.07,.09-.11-.02,0-.04,.02-.06,.03-.29,.12-.58,.19-.86,.25-.59,.12-1.16,.24-1.7,.46-.23,.1-.47,.2-.68,.36l-.02,.05c-.01,.05-.03,.09-.04,.14-.24,.77-.18,1.51,.18,2.19,.77,1.47,2.55,2.08,4.08,1.37l.05-.02c.34-.72,.55-1.53,.64-2.55v-.03c.03-.25,.06-.52,.14-.76-.06,.02-.11,.08-.15,.13Zm0,0c-.15,.18-.24,.39-.32,.59l-.07,.19c-.12,.34-.26,.68-.46,1-.39,.59-.89,.89-1.51,.89-.07,0-.15,0-.23-.01-.68-.08-1.18-.45-1.44-1.07-.26-.62-.19-1.22,.22-1.78,.2-.26,.47-.48,.86-.67,.18-.09,.36-.17,.53-.25,.08-.04,.16-.08,.24-.11h.03c.18-.1,.34-.17,.48-.29,.05-.04,.08-.07,.09-.11-.02,0-.04,.02-.06,.03-.29,.12-.58,.19-.86,.25-.59,.12-1.16,.24-1.7,.46-.23,.1-.47,.2-.68,.36l-.02,.05c-.01,.05-.03,.09-.04,.14-.24,.77-.18,1.51,.18,2.19,.77,1.47,2.55,2.08,4.08,1.37l.05-.02c.34-.72,.55-1.53,.64-2.55v-.03c.03-.25,.06-.52,.14-.76-.06,.02-.11,.08-.15,.13Zm-.75-2.17c-.09-.04-.18-.08-.27-.11,.01,.07,0,.15-.04,.24h.01c.7,.23,1.23,.69,1.57,1.39,0,0,0,.02,.02,.04,0,0,0,.01,.01,.01h.08s.11,.01,.17,.02c.02,0,.04,.02,.05,.02-.3-.73-.84-1.27-1.6-1.61Zm0,0c-.09-.04-.18-.08-.27-.11,.01,.07,0,.15-.04,.24h.01c.7,.23,1.23,.69,1.57,1.39,0,0,0,.02,.02,.04,0,0,0,.01,.01,.01h.08s.11,.01,.17,.02c.02,0,.04,.02,.05,.02-.3-.73-.84-1.27-1.6-1.61Zm.75,2.17c-.15,.18-.24,.39-.32,.59l-.07,.19c-.12,.34-.26,.68-.46,1-.39,.59-.89,.89-1.51,.89-.07,0-.15,0-.23-.01-.68-.08-1.18-.45-1.44-1.07-.26-.62-.19-1.22,.22-1.78,.2-.26,.47-.48,.86-.67,.18-.09,.36-.17,.53-.25,.08-.04,.16-.08,.24-.11h.03c.18-.1,.34-.17,.48-.29,.05-.04,.08-.07,.09-.11-.02,0-.04,.02-.06,.03-.29,.12-.58,.19-.86,.25-.59,.12-1.16,.24-1.7,.46-.23,.1-.47,.2-.68,.36l-.02,.05c-.01,.05-.03,.09-.04,.14-.24,.77-.18,1.51,.18,2.19,.77,1.47,2.55,2.08,4.08,1.37l.05-.02c.34-.72,.55-1.53,.64-2.55v-.03c.03-.25,.06-.52,.14-.76-.06,.02-.11,.08-.15,.13Zm0,0c-.15,.18-.24,.39-.32,.59l-.07,.19c-.12,.34-.26,.68-.46,1-.39,.59-.89,.89-1.51,.89-.07,0-.15,0-.23-.01-.68-.08-1.18-.45-1.44-1.07-.26-.62-.19-1.22,.22-1.78,.2-.26,.47-.48,.86-.67,.18-.09,.36-.17,.53-.25,.08-.04,.16-.08,.24-.11h.03c.18-.1,.34-.17,.48-.29,.05-.04,.08-.07,.09-.11-.02,0-.04,.02-.06,.03-.29,.12-.58,.19-.86,.25-.59,.12-1.16,.24-1.7,.46-.23,.1-.47,.2-.68,.36l-.02,.05c-.01,.05-.03,.09-.04,.14-.24,.77-.18,1.51,.18,2.19,.77,1.47,2.55,2.08,4.08,1.37l.05-.02c.34-.72,.55-1.53,.64-2.55v-.03c.03-.25,.06-.52,.14-.76-.06,.02-.11,.08-.15,.13Zm0,0c-.15,.18-.24,.39-.32,.59l-.07,.19c-.12,.34-.26,.68-.46,1-.39,.59-.89,.89-1.51,.89-.07,0-.15,0-.23-.01-.68-.08-1.18-.45-1.44-1.07-.26-.62-.19-1.22,.22-1.78,.2-.26,.47-.48,.86-.67,.18-.09,.36-.17,.53-.25,.08-.04,.16-.08,.24-.11h.03c.18-.1,.34-.17,.48-.29,.05-.04,.08-.07,.09-.11-.02,0-.04,.02-.06,.03-.29,.12-.58,.19-.86,.25-.59,.12-1.16,.24-1.7,.46-.23,.1-.47,.2-.68,.36l-.02,.05c-.01,.05-.03,.09-.04,.14-.24,.77-.18,1.51,.18,2.19,.77,1.47,2.55,2.08,4.08,1.37l.05-.02c.34-.72,.55-1.53,.64-2.55v-.03c.03-.25,.06-.52,.14-.76-.06,.02-.11,.08-.15,.13Zm0,0c-.15,.18-.24,.39-.32,.59l-.07,.19c-.12,.34-.26,.68-.46,1-.39,.59-.89,.89-1.51,.89-.07,0-.15,0-.23-.01-.68-.08-1.18-.45-1.44-1.07-.26-.62-.19-1.22,.22-1.78,.2-.26,.47-.48,.86-.67,.18-.09,.36-.17,.53-.25,.08-.04,.16-.08,.24-.11h.03c.18-.1,.34-.17,.48-.29,.05-.04,.08-.07,.09-.11-.02,0-.04,.02-.06,.03-.29,.12-.58,.19-.86,.25-.59,.12-1.16,.24-1.7,.46-.23,.1-.47,.2-.68,.36l-.02,.05c-.01,.05-.03,.09-.04,.14-.24,.77-.18,1.51,.18,2.19,.77,1.47,2.55,2.08,4.08,1.37l.05-.02c.34-.72,.55-1.53,.64-2.55v-.03c.03-.25,.06-.52,.14-.76-.06,.02-.11,.08-.15,.13Zm0,0c-.15,.18-.24,.39-.32,.59l-.07,.19c-.12,.34-.26,.68-.46,1-.39,.59-.89,.89-1.51,.89-.07,0-.15,0-.23-.01-.68-.08-1.18-.45-1.44-1.07-.26-.62-.19-1.22,.22-1.78,.2-.26,.47-.48,.86-.67,.18-.09,.36-.17,.53-.25,.08-.04,.16-.08,.24-.11h.03c.18-.1,.34-.17,.48-.29,.05-.04,.08-.07,.09-.11-.02,0-.04,.02-.06,.03-.29,.12-.58,.19-.86,.25-.59,.12-1.16,.24-1.7,.46-.23,.1-.47,.2-.68,.36l-.02,.05c-.01,.05-.03,.09-.04,.14-.24,.77-.18,1.51,.18,2.19,.77,1.47,2.55,2.08,4.08,1.37l.05-.02c.34-.72,.55-1.53,.64-2.55v-.03c.03-.25,.06-.52,.14-.76-.06,.02-.11,.08-.15,.13Zm0,0c-.15,.18-.24,.39-.32,.59l-.07,.19c-.12,.34-.26,.68-.46,1-.39,.59-.89,.89-1.51,.89-.07,0-.15,0-.23-.01-.68-.08-1.18-.45-1.44-1.07-.26-.62-.19-1.22,.22-1.78,.2-.26,.47-.48,.86-.67,.18-.09,.36-.17,.53-.25,.08-.04,.16-.08,.24-.11h.03c.18-.1,.34-.17,.48-.29,.05-.04,.08-.07,.09-.11-.02,0-.04,.02-.06,.03-.29,.12-.58,.19-.86,.25-.59,.12-1.16,.24-1.7,.46-.23,.1-.47,.2-.68,.36l-.02,.05c-.01,.05-.03,.09-.04,.14-.24,.77-.18,1.51,.18,2.19,.77,1.47,2.55,2.08,4.08,1.37l.05-.02c.34-.72,.55-1.53,.64-2.55v-.03c.03-.25,.06-.52,.14-.76-.06,.02-.11,.08-.15,.13Zm0,0c-.15,.18-.24,.39-.32,.59l-.07,.19c-.12,.34-.26,.68-.46,1-.39,.59-.89,.89-1.51,.89-.07,0-.15,0-.23-.01-.68-.08-1.18-.45-1.44-1.07-.26-.62-.19-1.22,.22-1.78,.2-.26,.47-.48,.86-.67,.18-.09,.36-.17,.53-.25,.08-.04,.16-.08,.24-.11h.03c.18-.1,.34-.17,.48-.29,.05-.04,.08-.07,.09-.11-.02,0-.04,.02-.06,.03-.29,.12-.58,.19-.86,.25-.59,.12-1.16,.24-1.7,.46-.23,.1-.47,.2-.68,.36l-.02,.05c-.01,.05-.03,.09-.04,.14-.24,.77-.18,1.51,.18,2.19,.77,1.47,2.55,2.08,4.08,1.37l.05-.02c.34-.72,.55-1.53,.64-2.55v-.03c.03-.25,.06-.52,.14-.76-.06,.02-.11,.08-.15,.13Zm0,0c-.15,.18-.24,.39-.32,.59l-.07,.19c-.12,.34-.26,.68-.46,1-.39,.59-.89,.89-1.51,.89-.07,0-.15,0-.23-.01-.68-.08-1.18-.45-1.44-1.07-.26-.62-.19-1.22,.22-1.78,.2-.26,.47-.48,.86-.67,.18-.09,.36-.17,.53-.25,.08-.04,.16-.08,.24-.11h.03c.18-.1,.34-.17,.48-.29,.05-.04,.08-.07,.09-.11-.02,0-.04,.02-.06,.03-.29,.12-.58,.19-.86,.25-.59,.12-1.16,.24-1.7,.46-.23,.1-.47,.2-.68,.36l-.02,.05c-.01,.05-.03,.09-.04,.14-.24,.77-.18,1.51,.18,2.19,.77,1.47,2.55,2.08,4.08,1.37l.05-.02c.34-.72,.55-1.53,.64-2.55v-.03c.03-.25,.06-.52,.14-.76-.06,.02-.11,.08-.15,.13Zm0,0c-.15,.18-.24,.39-.32,.59l-.07,.19c-.12,.34-.26,.68-.46,1-.39,.59-.89,.89-1.51,.89-.07,0-.15,0-.23-.01-.68-.08-1.18-.45-1.44-1.07-.26-.62-.19-1.22,.22-1.78,.2-.26,.47-.48,.86-.67,.18-.09,.36-.17,.53-.25,.08-.04,.16-.08,.24-.11h.03c.18-.1,.34-.17,.48-.29,.05-.04,.08-.07,.09-.11-.02,0-.04,.02-.06,.03-.29,.12-.58,.19-.86,.25-.59,.12-1.16,.24-1.7,.46-.23,.1-.47,.2-.68,.36l-.02,.05c-.01,.05-.03,.09-.04,.14-.24,.77-.18,1.51,.18,2.19,.77,1.47,2.55,2.08,4.08,1.37l.05-.02c.34-.72,.55-1.53,.64-2.55v-.03c.03-.25,.06-.52,.14-.76-.06,.02-.11,.08-.15,.13Zm0,0c-.15,.18-.24,.39-.32,.59l-.07,.19c-.12,.34-.26,.68-.46,1-.39,.59-.89,.89-1.51,.89-.07,0-.15,0-.23-.01-.68-.08-1.18-.45-1.44-1.07-.26-.62-.19-1.22,.22-1.78,.2-.26,.47-.48,.86-.67,.18-.09,.36-.17,.53-.25,.08-.04,.16-.08,.24-.11h.03c.18-.1,.34-.17,.48-.29,.05-.04,.08-.07,.09-.11-.02,0-.04,.02-.06,.03-.29,.12-.58,.19-.86,.25-.59,.12-1.16,.24-1.7,.46-.23,.1-.47,.2-.68,.36l-.02,.05c-.01,.05-.03,.09-.04,.14-.24,.77-.18,1.51,.18,2.19,.77,1.47,2.55,2.08,4.08,1.37l.05-.02c.34-.72,.55-1.53,.64-2.55v-.03c.03-.25,.06-.52,.14-.76-.06,.02-.11,.08-.15,.13Zm0,0c-.15,.18-.24,.39-.32,.59l-.07,.19c-.12,.34-.26,.68-.46,1-.39,.59-.89,.89-1.51,.89-.07,0-.15,0-.23-.01-.68-.08-1.18-.45-1.44-1.07-.26-.62-.19-1.22,.22-1.78,.2-.26,.47-.48,.86-.67,.18-.09,.36-.17,.53-.25,.08-.04,.16-.08,.24-.11h.03c.18-.1,.34-.17,.48-.29,.05-.04,.08-.07,.09-.11-.02,0-.04,.02-.06,.03-.29,.12-.58,.19-.86,.25-.59,.12-1.16,.24-1.7,.46-.23,.1-.47,.2-.68,.36l-.02,.05c-.01,.05-.03,.09-.04,.14-.24,.77-.18,1.51,.18,2.19,.77,1.47,2.55,2.08,4.08,1.37l.05-.02c.34-.72,.55-1.53,.64-2.55v-.03c.03-.25,.06-.52,.14-.76-.06,.02-.11,.08-.15,.13Zm0,0c-.15,.18-.24,.39-.32,.59l-.07,.19c-.12,.34-.26,.68-.46,1-.39,.59-.89,.89-1.51,.89-.07,0-.15,0-.23-.01-.68-.08-1.18-.45-1.44-1.07-.26-.62-.19-1.22,.22-1.78,.2-.26,.47-.48,.86-.67,.18-.09,.36-.17,.53-.25,.08-.04,.16-.08,.24-.11h.03c.18-.1,.34-.17,.48-.29,.05-.04,.08-.07,.09-.11-.02,0-.04,.02-.06,.03-.29,.12-.58,.19-.86,.25-.59,.12-1.16,.24-1.7,.46-.23,.1-.47,.2-.68,.36l-.02,.05c-.01,.05-.03,.09-.04,.14-.24,.77-.18,1.51,.18,2.19,.77,1.47,2.55,2.08,4.08,1.37l.05-.02c.34-.72,.55-1.53,.64-2.55v-.03c.03-.25,.06-.52,.14-.76-.06,.02-.11,.08-.15,.13Zm0,0c-.15,.18-.24,.39-.32,.59l-.07,.19c-.12,.34-.26,.68-.46,1-.39,.59-.89,.89-1.51,.89-.07,0-.15,0-.23-.01-.68-.08-1.18-.45-1.44-1.07-.26-.62-.19-1.22,.22-1.78,.2-.26,.47-.48,.86-.67,.18-.09,.36-.17,.53-.25,.08-.04,.16-.08,.24-.11h.03c.18-.1,.34-.17,.48-.29,.05-.04,.08-.07,.09-.11-.02,0-.04,.02-.06,.03-.29,.12-.58,.19-.86,.25-.59,.12-1.16,.24-1.7,.46-.23,.1-.47,.2-.68,.36l-.02,.05c-.01,.05-.03,.09-.04,.14-.24,.77-.18,1.51,.18,2.19,.77,1.47,2.55,2.08,4.08,1.37l.05-.02c.34-.72,.55-1.53,.64-2.55v-.03c.03-.25,.06-.52,.14-.76-.06,.02-.11,.08-.15,.13Zm0,0c-.15,.18-.24,.39-.32,.59l-.07,.19c-.12,.34-.26,.68-.46,1-.39,.59-.89,.89-1.51,.89-.07,0-.15,0-.23-.01-.68-.08-1.18-.45-1.44-1.07-.26-.62-.19-1.22,.22-1.78,.2-.26,.47-.48,.86-.67,.18-.09,.36-.17,.53-.25,.08-.04,.16-.08,.24-.11h.03c.18-.1,.34-.17,.48-.29,.05-.04,.08-.07,.09-.11-.02,0-.04,.02-.06,.03-.29,.12-.58,.19-.86,.25-.59,.12-1.16,.24-1.7,.46-.23,.1-.47,.2-.68,.36l-.02,.05c-.01,.05-.03,.09-.04,.14-.24,.77-.18,1.51,.18,2.19,.77,1.47,2.55,2.08,4.08,1.37l.05-.02c.34-.72,.55-1.53,.64-2.55v-.03c.03-.25,.06-.52,.14-.76-.06,.02-.11,.08-.15,.13Zm0,0c-.15,.18-.24,.39-.32,.59l-.07,.19c-.12,.34-.26,.68-.46,1-.39,.59-.89,.89-1.51,.89-.07,0-.15,0-.23-.01-.68-.08-1.18-.45-1.44-1.07-.26-.62-.19-1.22,.22-1.78,.2-.26,.47-.48,.86-.67,.18-.09,.36-.17,.53-.25,.08-.04,.16-.08,.24-.11h.03c.18-.1,.34-.17,.48-.29,.05-.04,.08-.07,.09-.11-.02,0-.04,.02-.06,.03-.29,.12-.58,.19-.86,.25-.59,.12-1.16,.24-1.7,.46-.23,.1-.47,.2-.68,.36l-.02,.05c-.01,.05-.03,.09-.04,.14-.24,.77-.18,1.51,.18,2.19,.77,1.47,2.55,2.08,4.08,1.37l.05-.02c.34-.72,.55-1.53,.64-2.55v-.03c.03-.25,.06-.52,.14-.76-.06,.02-.11,.08-.15,.13Zm0,0c-.15,.18-.24,.39-.32,.59l-.07,.19c-.12,.34-.26,.68-.46,1-.39,.59-.89,.89-1.51,.89-.07,0-.15,0-.23-.01-.68-.08-1.18-.45-1.44-1.07-.26-.62-.19-1.22,.22-1.78,.2-.26,.47-.48,.86-.67,.18-.09,.36-.17,.53-.25,.08-.04,.16-.08,.24-.11h.03c.18-.1,.34-.17,.48-.29,.05-.04,.08-.07,.09-.11-.02,0-.04,.02-.06,.03-.29,.12-.58,.19-.86,.25-.59,.12-1.16,.24-1.7,.46-.23,.1-.47,.2-.68,.36l-.02,.05c-.01,.05-.03,.09-.04,.14-.24,.77-.18,1.51,.18,2.19,.77,1.47,2.55,2.08,4.08,1.37l.05-.02c.34-.72,.55-1.53,.64-2.55v-.03c.03-.25,.06-.52,.14-.76-.06,.02-.11,.08-.15,.13Zm0,0c-.15,.18-.24,.39-.32,.59l-.07,.19c-.12,.34-.26,.68-.46,1-.39,.59-.89,.89-1.51,.89-.07,0-.15,0-.23-.01-.68-.08-1.18-.45-1.44-1.07-.26-.62-.19-1.22,.22-1.78,.2-.26,.47-.48,.86-.67,.18-.09,.36-.17,.53-.25,.08-.04,.16-.08,.24-.11h.03c.18-.1,.34-.17,.48-.29,.05-.04,.08-.07,.09-.11-.02,0-.04,.02-.06,.03-.29,.12-.58,.19-.86,.25-.59,.12-1.16,.24-1.7,.46-.23,.1-.47,.2-.68,.36l-.02,.05c-.01,.05-.03,.09-.04,.14-.24,.77-.18,1.51,.18,2.19,.77,1.47,2.55,2.08,4.08,1.37l.05-.02c.34-.72,.55-1.53,.64-2.55v-.03c.03-.25,.06-.52,.14-.76-.06,.02-.11,.08-.15,.13Zm0,0c-.15,.18-.24,.39-.32,.59l-.07,.19c-.12,.34-.26,.68-.46,1-.39,.59-.89,.89-1.51,.89-.07,0-.15,0-.23-.01-.68-.08-1.18-.45-1.44-1.07-.26-.62-.19-1.22,.22-1.78,.2-.26,.47-.48,.86-.67,.18-.09,.36-.17,.53-.25,.08-.04,.16-.08,.24-.11h.03c.18-.1,.34-.17,.48-.29,.05-.04,.08-.07,.09-.11-.02,0-.04,.02-.06,.03-.29,.12-.58,.19-.86,.25-.59,.12-1.16,.24-1.7,.46-.23,.1-.47,.2-.68,.36l-.02,.05c-.01,.05-.03,.09-.04,.14-.24,.77-.18,1.51,.18,2.19,.77,1.47,2.55,2.08,4.08,1.37l.05-.02c.34-.72,.55-1.53,.64-2.55v-.03c.03-.25,.06-.52,.14-.76-.06,.02-.11,.08-.15,.13Zm0,0c-.15,.18-.24,.39-.32,.59l-.07,.19c-.12,.34-.26,.68-.46,1-.39,.59-.89,.89-1.51,.89-.07,0-.15,0-.23-.01-.68-.08-1.18-.45-1.44-1.07-.26-.62-.19-1.22,.22-1.78,.2-.26,.47-.48,.86-.67,.18-.09,.36-.17,.53-.25,.08-.04,.16-.08,.24-.11h.03c.18-.1,.34-.17,.48-.29,.05-.04,.08-.07,.09-.11-.02,0-.04,.02-.06,.03-.29,.12-.58,.19-.86,.25-.59,.12-1.16,.24-1.7,.46-.23,.1-.47,.2-.68,.36l-.02,.05c-.01,.05-.03,.09-.04,.14-.24,.77-.18,1.51,.18,2.19,.77,1.47,2.55,2.08,4.08,1.37l.05-.02c.34-.72,.55-1.53,.64-2.55v-.03c.03-.25,.06-.52,.14-.76-.06,.02-.11,.08-.15,.13Zm0,0c-.15,.18-.24,.39-.32,.59l-.07,.19c-.12,.34-.26,.68-.46,1-.39,.59-.89,.89-1.51,.89-.07,0-.15,0-.23-.01-.68-.08-1.18-.45-1.44-1.07-.26-.62-.19-1.22,.22-1.78,.2-.26,.47-.48,.86-.67,.18-.09,.36-.17,.53-.25,.08-.04,.16-.08,.24-.11h.03c.18-.1,.34-.17,.48-.29,.05-.04,.08-.07,.09-.11-.02,0-.04,.02-.06,.03-.29,.12-.58,.19-.86,.25-.59,.12-1.16,.24-1.7,.46-.23,.1-.47,.2-.68,.36l-.02,.05c-.01,.05-.03,.09-.04,.14-.24,.77-.18,1.51,.18,2.19,.77,1.47,2.55,2.08,4.08,1.37l.05-.02c.34-.72,.55-1.53,.64-2.55v-.03c.03-.25,.06-.52,.14-.76-.06,.02-.11,.08-.15,.13Zm0,0c-.15,.18-.24,.39-.32,.59l-.07,.19c-.12,.34-.26,.68-.46,1-.39,.59-.89,.89-1.51,.89-.07,0-.15,0-.23-.01-.68-.08-1.18-.45-1.44-1.07-.26-.62-.19-1.22,.22-1.78,.2-.26,.47-.48,.86-.67,.18-.09,.36-.17,.53-.25,.08-.04,.16-.08,.24-.11h.03c.18-.1,.34-.17,.48-.29,.05-.04,.08-.07,.09-.11-.02,0-.04,.02-.06,.03-.29,.12-.58,.19-.86,.25-.59,.12-1.16,.24-1.7,.46-.23,.1-.47,.2-.68,.36l-.02,.05c-.01,.05-.03,.09-.04,.14-.24,.77-.18,1.51,.18,2.19,.77,1.47,2.55,2.08,4.08,1.37l.05-.02c.34-.72,.55-1.53,.64-2.55v-.03c.03-.25,.06-.52,.14-.76-.06,.02-.11,.08-.15,.13Z"/><path class="g" d="M11.13,9.72c-.71,1.13-1.71,1.8-2.98,1.98-1.39,.21-2.62-.2-3.64-1.21-.62-.61-1-1.35-1.15-2.21-.23-1.36,.13-2.58,1.06-3.61,.7-.77,1.58-1.22,2.63-1.35,.16-.02,.31-.03,.47-.03,.5,0,.99,.09,1.48,.27,.07,.03,.12,.07,.16,.12,.03,.03,.05,.06,.07,.09,0,.01,0,.02,0,.03,.02,.09,.02,.18-.02,.25-.06,.11-.16,.19-.28,.27-.05,.01-.09,.03-.12,.06l-.06,.03c-.26,.12-.55,.19-.82,.24-.6,.12-1.18,.25-1.73,.47-.24,.09-.5,.21-.72,.38-1.02,.58-1.63,1.84-1.47,3.05,.12,.96,.67,1.79,1.51,2.28,.83,.49,1.82,.56,2.72,.21,.77-.31,1.34-.86,1.68-1.62,0-.01,.01-.02,.02-.02,.35-.73,.56-1.56,.66-2.6v-.04c.03-.29,.05-.56,.16-.82,.05-.13,.14-.21,.26-.23,.17-.02,.29,.04,.39,.16l.03,.09,.1,.31c.08,.25,.14,.48,.16,.72,.13,.99-.07,1.91-.58,2.73Z"/></g></g></g></svg>