<?xml version="1.0" encoding="utf-8"?>
<!-- Generator: Adobe Illustrator 26.2.1, SVG Export Plug-In . SVG Version: 6.00 Build 0)  -->
<svg version="1.1" id="Layer_1" xmlns="http://www.w3.org/2000/svg" xmlns:xlink="http://www.w3.org/1999/xlink" x="0px" y="0px"
	 viewBox="0 0 165.1 50" style="enable-background:new 0 0 165.1 50;" xml:space="preserve">
<style type="text/css">
	.st0{fill:#FFFFFF;}
</style>
<g id="a">
</g>
<g id="b">
	<g id="c">
		<g>
			<g>
				<g>
					<path class="st0" d="M134.2,46.5h-9.3c-0.3,0-0.5-0.2-0.5-0.5V0.6c0,0,0-0.1,0-0.1c0-0.3,0.2-0.5,0.5-0.5h33
						c0.3,0,0.5,0.2,0.5,0.5v9c0,0.3-0.2,0.5-0.5,0.5h-23.2v10.3h21.9c0.3,0,0.5,0.2,0.5,0.5v8.7c0,0.3-0.2,0.5-0.5,0.5h-22
						c-0.2,1.7,0,10.5,0.1,16c0,0.1,0,0.3-0.1,0.4S134.4,46.5,134.2,46.5z M125.4,45.5h8.3c-0.5-15.7,0-16.2,0.1-16.4
						c0.1-0.1,0.2-0.2,0.4-0.2h21.9v-7.7h-21.9c-0.3,0-0.5-0.2-0.5-0.5V9.5c0-0.3,0.2-0.5,0.5-0.5h23.2V1h-32V45.5z"/>
				</g>
				<g>
					<path class="st0" d="M163.2,24.8h-22.4c-0.1,0-0.2,0-0.2-0.1l-6.6-3.5c-0.2-0.1-0.3-0.3-0.2-0.6c0.1-0.2,0.3-0.4,0.5-0.4h22.4
						c0.1,0,0.2,0,0.2,0.1l6.6,3.5c0.2,0.1,0.3,0.3,0.2,0.6C163.7,24.6,163.5,24.8,163.2,24.8z M141,23.8h20.3l-4.7-2.5h-20.3
						L141,23.8z"/>
				</g>
				<g>
					<path class="st0" d="M140.8,50h-9.3c-0.1,0-0.2,0-0.2-0.1l-6.6-3.5c-0.2-0.1-0.3-0.3-0.2-0.6c0.1-0.2,0.3-0.4,0.5-0.4h9.3
						c0.1,0,0.2,0,0.2,0.1l6.6,3.5c0.2,0.1,0.3,0.3,0.2,0.6C141.3,49.8,141.1,50,140.8,50z M131.6,49h7.2l-4.7-2.5h-7.2L131.6,49z"
						/>
				</g>
				<g>
					<path class="st0" d="M131.5,50c-0.1,0-0.2,0-0.2-0.1l-6.6-3.5c-0.2-0.1-0.3-0.3-0.3-0.4V0.5c0-0.2,0.1-0.3,0.2-0.4
						c0.1-0.1,0.3-0.1,0.5,0l6.6,3.5c0.2,0.1,0.3,0.3,0.3,0.4v45.5c0,0.2-0.1,0.3-0.2,0.4C131.7,49.9,131.6,50,131.5,50z
						 M125.4,45.7l5.6,2.9V4.3l-5.6-2.9V45.7z"/>
				</g>
				<g>
					<path class="st0" d="M164.5,4.5h-33c-0.1,0-0.2,0-0.2-0.1L124.7,1c-0.2-0.1-0.3-0.3-0.2-0.6c0.1-0.2,0.3-0.4,0.5-0.4h33
						c0.1,0,0.2,0,0.2,0.1l6.6,3.5c0.2,0.1,0.3,0.3,0.2,0.6C164.9,4.3,164.7,4.5,164.5,4.5z M131.6,3.5h30.9L157.8,1h-30.9
						L131.6,3.5z"/>
				</g>
				<g>
					<path class="st0" d="M164.5,13.5h-23.7c-0.1,0-0.2,0-0.2-0.1L134,9.9c-0.2-0.1-0.3-0.3-0.2-0.6c0.1-0.2,0.3-0.4,0.5-0.4h23.7
						c0.1,0,0.2,0,0.2,0.1l6.6,3.5c0.2,0.1,0.3,0.3,0.2,0.6C164.9,13.3,164.7,13.5,164.5,13.5z M141,12.5h21.6l-4.7-2.5h-21.6
						L141,12.5z"/>
				</g>
				<g>
					<path class="st0" d="M163.2,33.4h-22.4c-0.6,0-4.1-1.9-6.8-3.5c-0.2-0.1-0.3-0.3-0.2-0.6c0.1-0.2,0.3-0.4,0.5-0.4h22.4
						c0.1,0,0.2,0,0.2,0.1l6.6,3.5c0.2,0.1,0.3,0.3,0.2,0.6C163.7,33.3,163.5,33.4,163.2,33.4z M136.1,30c2.3,1.3,4.4,2.4,4.8,2.5
						l20.4,0l-4.7-2.5H136.1z"/>
				</g>
				<g>
					<polygon class="st0" points="131.5,4 164.5,4 164.5,13 140.8,13 140.8,24.3 163.2,24.3 163.2,32.9 140.8,32.9 140.8,49.5 
						131.5,49.5 					"/>
					<path class="st0" d="M140.8,50h-9.3c-0.3,0-0.5-0.2-0.5-0.5V4c0-0.3,0.2-0.5,0.5-0.5h33c0.3,0,0.5,0.2,0.5,0.5v9
						c0,0.3-0.2,0.5-0.5,0.5h-23.2v10.3h21.9c0.3,0,0.5,0.2,0.5,0.5v8.7c0,0.3-0.2,0.5-0.5,0.5h-21.9v16
						C141.3,49.7,141.1,50,140.8,50z M132,49h8.3v-16c0-0.3,0.2-0.5,0.5-0.5h21.9v-7.7h-21.9c-0.3,0-0.5-0.2-0.5-0.5V13
						c0-0.3,0.2-0.5,0.5-0.5H164v-8h-32V49z"/>
				</g>
			</g>
			<g>
				<g>
					<path class="st0" d="M92.7,4.4H82c-0.1,0-0.2,0-0.2-0.1l-6.6-3.5c-0.2-0.1-0.3-0.3-0.2-0.6C75,0.2,75.2,0,75.4,0h10.7
						c0.1,0,0.2,0,0.2,0.1l6.6,3.5c0.2,0.1,0.3,0.3,0.2,0.6C93.1,4.3,92.9,4.4,92.7,4.4z M82.1,3.5h8.6L86,1h-8.6L82.1,3.5z"/>
				</g>
				<g>
					<path class="st0" d="M101.9,46.5h-9.3c-0.3,0-0.5-0.2-0.5-0.5V27.4L75,1.7c-0.1-0.1-0.1-0.2-0.1-0.3v-1c0-0.3,0.2-0.5,0.5-0.5
						h10.7c0.2,0,0.3,0.1,0.4,0.2l10.7,17.4l11.2-17.4c0.1-0.1,0.2-0.2,0.4-0.2h10.8c0.3,0,0.5,0.2,0.5,0.5v1c0,0.1,0,0.2-0.1,0.3
						l-17.7,25.7V46C102.4,46.3,102.2,46.5,101.9,46.5z M93.1,45.6h8.3V27.3c0-0.1,0-0.2,0.1-0.3l17.7-25.7V1h-10.1L97.7,18.8
						c-0.1,0.1-0.2,0.3-0.4,0.2c-0.2,0-0.3-0.1-0.4-0.2L85.8,1h-9.9v0.3L93,27c0.1,0.1,0.1,0.2,0.1,0.3V45.6z"/>
				</g>
				<g>
					<path class="st0" d="M103.8,22.5c-0.1,0-0.2,0-0.2-0.1L97,19c-0.1-0.1-0.2-0.2-0.2-0.3c0-0.1,0-0.3,0.1-0.4l11.6-18.1
						c0.1-0.2,0.4-0.3,0.6-0.2l6.6,3.5c0.1,0.1,0.2,0.2,0.2,0.3s0,0.3-0.1,0.4l-11.6,18.1C104.2,22.4,104,22.5,103.8,22.5z
						 M97.9,18.4l5.7,3l11.1-17.2l-5.7-3L97.9,18.4z"/>
				</g>
				<g>
					<path class="st0" d="M126.3,4.4h-10.8c-0.1,0-0.2,0-0.2-0.1l-6.6-3.5c-0.2-0.1-0.3-0.3-0.2-0.6c0.1-0.2,0.3-0.4,0.5-0.4h10.8
						c0.1,0,0.2,0,0.2,0.1l6.6,3.5c0.2,0.1,0.3,0.3,0.2,0.6C126.7,4.3,126.5,4.4,126.3,4.4z M115.6,3.5h8.7L119.6,1h-8.7L115.6,3.5z
						"/>
				</g>
				<g>
					<path class="st0" d="M99.2,50c-0.1,0-0.2,0-0.2-0.1l-6.6-3.5c-0.2-0.1-0.3-0.3-0.3-0.4V27.4L75,1.7c-0.1-0.1-0.1-0.2-0.1-0.3
						v-1c0-0.2,0.1-0.3,0.2-0.4c0.1-0.1,0.3-0.1,0.5,0l6.6,3.5c0.2,0.1,0.3,0.3,0.3,0.4v0.8l17.1,25.7c0.1,0.1,0.1,0.2,0.1,0.3v18.8
						c0,0.2-0.1,0.3-0.2,0.4C99.3,50,99.3,50,99.2,50z M93.1,45.7l5.6,2.9V30.9L81.6,5.2c-0.1-0.1-0.1-0.2-0.1-0.3V4.2l-5.6-2.9
						L93,27c0.1,0.1,0.1,0.2,0.1,0.3V45.7z"/>
				</g>
				<g>
					<path class="st0" d="M108.5,50h-9.3c-0.1,0-0.2,0-0.2-0.1l-6.6-3.5c-0.2-0.1-0.3-0.3-0.2-0.6c0.1-0.2,0.3-0.4,0.5-0.4h9.3
						c0.1,0,0.2,0,0.2,0.1l6.6,3.5c0.2,0.1,0.3,0.3,0.2,0.6C108.9,49.8,108.7,50,108.5,50z M99.3,49h7.2l-4.7-2.5h-7.2L99.3,49z"/>
				</g>
				<g>
					<polygon class="st0" points="92.7,3.9 103.8,22 115.4,3.9 126.3,3.9 126.3,4.9 108.5,30.8 108.5,49.5 99.2,49.5 99.2,30.8 
						82,4.9 82,3.9 					"/>
					<path class="st0" d="M108.5,50h-9.3c-0.3,0-0.5-0.2-0.5-0.5V30.9L81.6,5.2c-0.1-0.1-0.1-0.2-0.1-0.3v-1c0-0.3,0.2-0.5,0.5-0.5
						h10.7c0.2,0,0.3,0.1,0.4,0.2l10.7,17.4L115,3.7c0.1-0.1,0.2-0.2,0.4-0.2h10.8c0.3,0,0.5,0.2,0.5,0.5v1c0,0.1,0,0.2-0.1,0.3
						L109,30.9v18.6C109,49.8,108.7,50,108.5,50z M99.7,49h8.3V30.8c0-0.1,0-0.2,0.1-0.3l17.7-25.7V4.4h-10.1l-11.5,17.8
						c-0.1,0.1-0.3,0.3-0.4,0.2c-0.2,0-0.3-0.1-0.4-0.2l-11-17.8h-9.9v0.3l17.1,25.7c0.1,0.1,0.1,0.2,0.1,0.3V49z"/>
				</g>
				<g>
					
						<rect x="95.4" y="25.3" transform="matrix(0.4647 -0.8854 0.8854 0.4647 25.6164 100.4316)" class="st0" width="1" height="7.4"/>
				</g>
			</g>
			<g>
				<g>
					<path class="st0" d="M39.5,50H7.2C7.1,50,7,50,7,49.9l-6.6-3.5c-0.2-0.1-0.3-0.3-0.2-0.6c0.1-0.2,0.3-0.4,0.5-0.4h32.3
						c0.1,0,0.2,0,0.2,0.1l6.6,3.5c0.2,0.1,0.3,0.3,0.2,0.6C39.9,49.8,39.7,50,39.5,50z M7.3,49h30.2l-4.7-2.5H2.6L7.3,49z"/>
				</g>
				<g>
					<path class="st0" d="M32.9,46.5H0.6c-0.3,0-0.5-0.2-0.5-0.5V0.5C0.1,0.2,0.3,0,0.6,0h9.3c0.3,0,0.5,0.2,0.5,0.5v36.4h22.5
						c0.3,0,0.5,0.2,0.5,0.5V46C33.4,46.3,33.2,46.5,32.9,46.5z M1.1,45.6h31.3v-7.7H9.9c-0.3,0-0.5-0.2-0.5-0.5V1H1.1V45.6z"/>
				</g>
				<g>
					<path class="st0" d="M39.5,41.3h-23c-0.1,0-0.2,0-0.2-0.1l-6.6-3.5c-0.2-0.1-0.3-0.3-0.2-0.6c0.1-0.2,0.3-0.4,0.5-0.4h23
						c0.1,0,0.2,0,0.2,0.1l6.6,3.5c0.2,0.1,0.3,0.3,0.2,0.6C39.9,41.2,39.7,41.3,39.5,41.3z M16.6,40.3h20.9l-4.7-2.5H11.9
						L16.6,40.3z"/>
				</g>
				<g>
					<path class="st0" d="M7.2,50C7.1,50,7,50,7,49.9l-6.6-3.5c-0.2-0.1-0.3-0.3-0.3-0.4V0.5c0-0.2,0.1-0.3,0.2-0.4s0.3-0.1,0.5,0
						l6.6,3.5c0.2,0.1,0.3,0.3,0.3,0.4v45.6c0,0.2-0.1,0.3-0.2,0.4C7.4,50,7.3,50,7.2,50z M1.1,45.7l5.6,2.9V4.2L1.1,1.3V45.7z"/>
				</g>
				<g>
					<path class="st0" d="M16.5,4.4H7.2C7.1,4.4,7,4.4,7,4.4L0.4,0.9C0.2,0.8,0.1,0.6,0.1,0.4C0.2,0.2,0.4,0,0.6,0h9.3
						c0.1,0,0.2,0,0.2,0.1l6.6,3.5C16.9,3.6,17,3.8,17,4.1C16.9,4.3,16.7,4.4,16.5,4.4z M7.3,3.5h7.2L9.8,1H2.6L7.3,3.5z"/>
				</g>
				<g>
					<polygon class="st0" points="7.2,3.9 16.5,3.9 16.5,40.8 39.5,40.8 39.5,49.5 7.2,49.5 					"/>
					<path class="st0" d="M39.5,50H7.2c-0.3,0-0.5-0.2-0.5-0.5V3.9c0-0.3,0.2-0.5,0.5-0.5h9.3c0.3,0,0.5,0.2,0.5,0.5v36.4h22.5
						c0.3,0,0.5,0.2,0.5,0.5v8.7C40,49.8,39.7,50,39.5,50z M7.7,49H39v-7.7H16.5c-0.3,0-0.5-0.2-0.5-0.5V4.4H7.7V49z"/>
				</g>
			</g>
			<g>
				<g>
					<path class="st0" d="M43.5,4.4H32.8c-0.1,0-0.2,0-0.2-0.1l-6.6-3.5c-0.2-0.1-0.3-0.3-0.2-0.6C25.7,0.2,25.9,0,26.2,0h10.7
						C37,0,37,0,37.1,0.1l6.6,3.5c0.2,0.1,0.3,0.3,0.2,0.6C43.9,4.3,43.7,4.4,43.5,4.4z M32.9,3.5h8.6L36.8,1h-8.6L32.9,3.5z"/>
				</g>
				<g>
					<path class="st0" d="M52.6,46.5h-9.3c-0.3,0-0.5-0.2-0.5-0.5V27.4L25.8,1.7c-0.1-0.1-0.1-0.2-0.1-0.3v-1c0-0.3,0.2-0.5,0.5-0.5
						h10.7c0.2,0,0.3,0.1,0.4,0.2L48,17.6L59.2,0.2C59.3,0.1,59.4,0,59.6,0h10.8c0.3,0,0.5,0.2,0.5,0.5v1c0,0.1,0,0.2-0.1,0.3
						L53.1,27.5V46C53.1,46.3,52.9,46.5,52.6,46.5z M43.8,45.6h8.3V27.3c0-0.1,0-0.2,0.1-0.3L70,1.3V1H59.9L48.4,18.8
						C48.3,19,48.2,19.1,48,19c-0.2,0-0.3-0.1-0.4-0.2L36.6,1h-9.9v0.3L43.7,27c0.1,0.1,0.1,0.2,0.1,0.3V45.6z"/>
				</g>
				<g>
					<path class="st0" d="M54.6,22.5c-0.1,0-0.2,0-0.2-0.1L47.8,19c-0.1-0.1-0.2-0.2-0.2-0.3c0-0.1,0-0.3,0.1-0.4L59.2,0.2
						c0.1-0.2,0.4-0.3,0.6-0.2l6.6,3.5c0.1,0.1,0.2,0.2,0.2,0.3c0,0.1,0,0.3-0.1,0.4L55,22.3C54.9,22.4,54.7,22.5,54.6,22.5z
						 M48.7,18.4l5.7,3L65.5,4.1l-5.7-3L48.7,18.4z"/>
				</g>
				<g>
					<path class="st0" d="M77,4.4H66.2c-0.1,0-0.2,0-0.2-0.1l-6.6-3.5c-0.2-0.1-0.3-0.3-0.2-0.6C59.2,0.2,59.4,0,59.6,0h10.8
						c0.1,0,0.2,0,0.2,0.1l6.6,3.5c0.2,0.1,0.3,0.3,0.2,0.6C77.5,4.3,77.3,4.4,77,4.4z M66.3,3.5H75L70.3,1h-8.7L66.3,3.5z"/>
				</g>
				<g>
					<path class="st0" d="M49.9,50c-0.1,0-0.2,0-0.2-0.1l-6.6-3.5c-0.2-0.1-0.3-0.3-0.3-0.4V27.4L25.8,1.7c-0.1-0.1-0.1-0.2-0.1-0.3
						v-1c0-0.2,0.1-0.3,0.2-0.4c0.1-0.1,0.3-0.1,0.5,0L33,3.5c0.2,0.1,0.3,0.3,0.3,0.4v0.8l17.1,25.7c0.1,0.1,0.1,0.2,0.1,0.3v18.8
						c0,0.2-0.1,0.3-0.2,0.4C50.1,50,50,50,49.9,50z M43.8,45.7l5.6,2.9V30.9L32.3,5.2c-0.1-0.1-0.1-0.2-0.1-0.3V4.2l-5.6-2.9
						L43.7,27c0.1,0.1,0.1,0.2,0.1,0.3V45.7z"/>
				</g>
				<g>
					<path class="st0" d="M59.2,50h-9.3c-0.1,0-0.2,0-0.2-0.1l-6.6-3.5c-0.2-0.1-0.3-0.3-0.2-0.6c0.1-0.2,0.3-0.4,0.5-0.4h9.3
						c0.1,0,0.2,0,0.2,0.1l6.6,3.5c0.2,0.1,0.3,0.3,0.2,0.6C59.6,49.8,59.5,50,59.2,50z M50,49h7.2l-4.7-2.5h-7.2L50,49z"/>
				</g>
				<g>
					<polygon class="st0" points="43.5,3.9 54.6,22 66.2,3.9 77,3.9 77,4.9 59.2,30.8 59.2,49.5 49.9,49.5 49.9,30.8 32.8,4.9 
						32.8,3.9 					"/>
					<path class="st0" d="M59.2,50h-9.3c-0.3,0-0.5-0.2-0.5-0.5V30.9L32.3,5.2c-0.1-0.1-0.1-0.2-0.1-0.3v-1c0-0.3,0.2-0.5,0.5-0.5
						h10.7c0.2,0,0.3,0.1,0.4,0.2l10.7,17.4L65.8,3.7c0.1-0.1,0.2-0.2,0.4-0.2H77c0.3,0,0.5,0.2,0.5,0.5v1c0,0.1,0,0.2-0.1,0.3
						L59.7,30.9v18.6C59.7,49.8,59.5,50,59.2,50z M50.4,49h8.3V30.8c0-0.1,0-0.2,0.1-0.3L76.5,4.8V4.4H66.5L55,22.3
						c-0.1,0.1-0.2,0.3-0.4,0.2c-0.2,0-0.3-0.1-0.4-0.2l-11-17.8h-9.9v0.3l17.1,25.7c0.1,0.1,0.1,0.2,0.1,0.3V49z"/>
				</g>
				<g>
					
						<rect x="46.1" y="25.3" transform="matrix(0.4648 -0.8854 0.8854 0.4648 -0.7459 56.8222)" class="st0" width="1" height="7.4"/>
				</g>
			</g>
		</g>
	</g>
</g>
</svg>
