<?xml version="1.0" encoding="utf-8"?>
<!-- Generator: Adobe Illustrator 26.2.1, SVG Export Plug-In . SVG Version: 6.00 Build 0)  -->
<svg version="1.1" id="Layer_1" xmlns="http://www.w3.org/2000/svg" xmlns:xlink="http://www.w3.org/1999/xlink" x="0px" y="0px"
	 viewBox="0 0 24 24" style="enable-background:new 0 0 24 24;" xml:space="preserve">
<style type="text/css">
	.st0{fill:#FFFFFF;}
</style>
<path class="st0" d="M22.9,10.1c-2.4,5.2-8.3,12.3-12.1,12.3c-3.7,0-4.2-7.8-6.2-13c-1-2.6-1.6-2-3.5-0.7L0,7.2C2.7,4.9,5.4,2.1,7,2
	c1.9-0.2,3,1.1,3.5,3.8c0.6,3.6,1.4,9.2,2.8,9.2c1.1,0,3.7-4.4,3.9-6c0.2-2.3-1.7-2.4-3.4-1.7C16.4-1.5,27.5,0.2,22.9,10.1z"/>
</svg>
